G04 Layer: TopSilkLayer*
G04 EasyEDA v6.4.7, 2020-11-16T16:22:07+01:00*
G04 2d597777df414444a141df10d1f533aa,ed05136cbb5443d0bd3f5f3a1b1e84d4,10*
G04 Gerber Generator version 0.2*
G04 Scale: 100 percent, Rotated: No, Reflected: No *
G04 Dimensions in millimeters *
G04 leading zeros omitted , absolute positions ,3 integer and 3 decimal *
%FSLAX33Y33*%
%MOMM*%
G90*
D02*

%ADD10C,0.254000*%
%ADD26C,0.203200*%
%ADD27C,0.202999*%
%ADD28C,0.399999*%
%ADD29C,0.150012*%
%ADD30C,0.152400*%
%ADD31C,0.499999*%

%LPD*%

%LPD*%
G36*
G01X4677Y39318D02*
G01X4649Y39329D01*
G01X4615Y39313D01*
G01X4590Y39271D01*
G01X4586Y39244D01*
G01X4587Y39216D01*
G01X4594Y39189D01*
G01X4606Y39168D01*
G01X4619Y39149D01*
G01X4623Y39135D01*
G01X4620Y39128D01*
G01X4608Y39125D01*
G01X4587Y39105D01*
G01X4578Y39060D01*
G01X4580Y39007D01*
G01X4595Y38969D01*
G01X4618Y38953D01*
G01X4639Y38952D01*
G01X4654Y38966D01*
G01X4659Y38994D01*
G01X4664Y39013D01*
G01X4680Y39027D01*
G01X4706Y39035D01*
G01X4742Y39038D01*
G01X4779Y39035D01*
G01X4805Y39027D01*
G01X4820Y39013D01*
G01X4826Y38994D01*
G01X4829Y38977D01*
G01X4838Y38963D01*
G01X4851Y38954D01*
G01X4867Y38950D01*
G01X4886Y38958D01*
G01X4899Y38984D01*
G01X4906Y39033D01*
G01X4908Y39111D01*
G01X4906Y39188D01*
G01X4899Y39238D01*
G01X4886Y39264D01*
G01X4867Y39272D01*
G01X4849Y39267D01*
G01X4836Y39252D01*
G01X4828Y39229D01*
G01X4826Y39198D01*
G01X4822Y39165D01*
G01X4813Y39143D01*
G01X4797Y39129D01*
G01X4773Y39125D01*
G01X4734Y39138D01*
G01X4704Y39172D01*
G01X4686Y39221D01*
G01X4685Y39279D01*
G01X4677Y39318D01*
G37*

%LPD*%
G36*
G01X1166Y38958D02*
G01X1127Y38973D01*
G01X1101Y38962D01*
G01X1077Y38937D01*
G01X1051Y38887D01*
G01X1016Y38804D01*
G01X1000Y38768D01*
G01X993Y38761D01*
G01X994Y38784D01*
G01X1002Y38840D01*
G01X1008Y38897D01*
G01X1006Y38931D01*
G01X992Y38946D01*
G01X964Y38950D01*
G01X937Y38945D01*
G01X921Y38928D01*
G01X912Y38895D01*
G01X908Y38840D01*
G01X909Y38795D01*
G01X911Y38752D01*
G01X915Y38717D01*
G01X920Y38693D01*
G01X930Y38680D01*
G01X948Y38668D01*
G01X971Y38660D01*
G01X997Y38657D01*
G01X1030Y38661D01*
G01X1052Y38678D01*
G01X1067Y38709D01*
G01X1079Y38760D01*
G01X1089Y38799D01*
G01X1101Y38832D01*
G01X1114Y38854D01*
G01X1127Y38862D01*
G01X1142Y38847D01*
G01X1144Y38807D01*
G01X1132Y38749D01*
G01X1109Y38679D01*
G01X1102Y38654D01*
G01X1107Y38638D01*
G01X1126Y38630D01*
G01X1161Y38628D01*
G01X1199Y38631D01*
G01X1221Y38645D01*
G01X1231Y38676D01*
G01X1233Y38729D01*
G01X1224Y38824D01*
G01X1199Y38904D01*
G01X1166Y38958D01*
G37*

%LPD*%
G36*
G01X4744Y38857D02*
G01X4716Y38862D01*
G01X4668Y38844D01*
G01X4623Y38799D01*
G01X4590Y38738D01*
G01X4577Y38672D01*
G01X4580Y38643D01*
G01X4590Y38610D01*
G01X4604Y38576D01*
G01X4621Y38545D01*
G01X4646Y38514D01*
G01X4674Y38495D01*
G01X4708Y38486D01*
G01X4751Y38487D01*
G01X4791Y38496D01*
G01X4826Y38513D01*
G01X4854Y38538D01*
G01X4877Y38570D01*
G01X4893Y38608D01*
G01X4902Y38651D01*
G01X4903Y38701D01*
G01X4897Y38754D01*
G01X4875Y38833D01*
G01X4852Y38859D01*
G01X4833Y38832D01*
G01X4825Y38752D01*
G01X4822Y38706D01*
G01X4817Y38662D01*
G01X4808Y38624D01*
G01X4798Y38598D01*
G01X4785Y38587D01*
G01X4777Y38601D01*
G01X4772Y38641D01*
G01X4771Y38708D01*
G01X4769Y38788D01*
G01X4760Y38835D01*
G01X4744Y38857D01*
G37*

%LPC*%
G36*
G01X4708Y38753D02*
G01X4700Y38760D01*
G01X4687Y38745D01*
G01X4677Y38725D01*
G01X4668Y38705D01*
G01X4662Y38687D01*
G01X4660Y38672D01*
G01X4662Y38657D01*
G01X4668Y38638D01*
G01X4677Y38618D01*
G01X4687Y38598D01*
G01X4700Y38584D01*
G01X4708Y38591D01*
G01X4713Y38619D01*
G01X4714Y38672D01*
G01X4713Y38724D01*
G01X4708Y38753D01*
G37*

%LPD*%
G36*
G01X1201Y38551D02*
G01X1178Y38574D01*
G01X1156Y38545D01*
G01X1143Y38531D01*
G01X1114Y38521D01*
G01X1072Y38514D01*
G01X1024Y38511D01*
G01X957Y38509D01*
G01X921Y38499D01*
G01X905Y38478D01*
G01X901Y38437D01*
G01X904Y38407D01*
G01X912Y38384D01*
G01X926Y38369D01*
G01X943Y38364D01*
G01X959Y38367D01*
G01X972Y38373D01*
G01X981Y38383D01*
G01X985Y38394D01*
G01X1005Y38418D01*
G01X1052Y38422D01*
G01X1102Y38407D01*
G01X1133Y38376D01*
G01X1147Y38325D01*
G01X1138Y38294D01*
G01X1099Y38280D01*
G01X1026Y38276D01*
G01X958Y38275D01*
G01X921Y38265D01*
G01X905Y38243D01*
G01X901Y38203D01*
G01X904Y38173D01*
G01X912Y38150D01*
G01X926Y38135D01*
G01X943Y38130D01*
G01X959Y38133D01*
G01X972Y38139D01*
G01X981Y38148D01*
G01X985Y38160D01*
G01X992Y38171D01*
G01X1012Y38180D01*
G01X1041Y38186D01*
G01X1077Y38189D01*
G01X1152Y38198D01*
G01X1198Y38231D01*
G01X1222Y38296D01*
G01X1228Y38401D01*
G01X1221Y38489D01*
G01X1201Y38551D01*
G37*

%LPD*%
G36*
G01X4873Y38395D02*
G01X4845Y38413D01*
G01X4821Y38382D01*
G01X4811Y38303D01*
G01X4809Y38251D01*
G01X4799Y38219D01*
G01X4775Y38202D01*
G01X4736Y38194D01*
G01X4695Y38192D01*
G01X4672Y38201D01*
G01X4662Y38227D01*
G01X4659Y38275D01*
G01X4657Y38314D01*
G01X4649Y38342D01*
G01X4636Y38359D01*
G01X4618Y38364D01*
G01X4600Y38359D01*
G01X4587Y38342D01*
G01X4579Y38315D01*
G01X4577Y38276D01*
G01X4574Y38238D01*
G01X4566Y38211D01*
G01X4553Y38194D01*
G01X4535Y38189D01*
G01X4519Y38185D01*
G01X4506Y38176D01*
G01X4497Y38162D01*
G01X4494Y38145D01*
G01X4497Y38128D01*
G01X4506Y38114D01*
G01X4519Y38105D01*
G01X4535Y38101D01*
G01X4551Y38099D01*
G01X4564Y38093D01*
G01X4574Y38083D01*
G01X4580Y38061D01*
G01X4589Y38051D01*
G01X4602Y38045D01*
G01X4618Y38042D01*
G01X4634Y38045D01*
G01X4647Y38051D01*
G01X4656Y38061D01*
G01X4659Y38072D01*
G01X4667Y38083D01*
G01X4688Y38093D01*
G01X4718Y38099D01*
G01X4755Y38101D01*
G01X4831Y38115D01*
G01X4879Y38158D01*
G01X4901Y38229D01*
G01X4895Y38326D01*
G01X4873Y38395D01*
G37*

%LPD*%
G36*
G01X1039Y38090D02*
G01X985Y38101D01*
G01X938Y38098D01*
G01X913Y38083D01*
G01X903Y38044D01*
G01X901Y37971D01*
G01X905Y37906D01*
G01X915Y37856D01*
G01X934Y37815D01*
G01X962Y37780D01*
G01X1019Y37737D01*
G01X1072Y37724D01*
G01X1124Y37739D01*
G01X1177Y37785D01*
G01X1203Y37825D01*
G01X1221Y37874D01*
G01X1231Y37926D01*
G01X1232Y37978D01*
G01X1226Y38026D01*
G01X1211Y38065D01*
G01X1189Y38091D01*
G01X1160Y38101D01*
G01X1142Y38096D01*
G01X1132Y38080D01*
G01X1130Y38051D01*
G01X1136Y38006D01*
G01X1140Y37930D01*
G01X1126Y37876D01*
G01X1096Y37846D01*
G01X1050Y37842D01*
G01X1010Y37870D01*
G01X990Y37918D01*
G01X994Y37969D01*
G01X1024Y38002D01*
G01X1063Y38031D01*
G01X1066Y38063D01*
G01X1039Y38090D01*
G37*

%LPD*%
G36*
G01X4869Y37955D02*
G01X4843Y37974D01*
G01X4823Y37940D01*
G01X4820Y37857D01*
G01X4824Y37797D01*
G01X4816Y37765D01*
G01X4792Y37752D01*
G01X4745Y37750D01*
G01X4699Y37753D01*
G01X4674Y37764D01*
G01X4662Y37791D01*
G01X4659Y37837D01*
G01X4657Y37876D01*
G01X4649Y37904D01*
G01X4636Y37920D01*
G01X4618Y37925D01*
G01X4600Y37920D01*
G01X4587Y37904D01*
G01X4579Y37876D01*
G01X4577Y37837D01*
G01X4574Y37799D01*
G01X4566Y37772D01*
G01X4553Y37755D01*
G01X4535Y37750D01*
G01X4519Y37746D01*
G01X4506Y37737D01*
G01X4497Y37723D01*
G01X4494Y37706D01*
G01X4497Y37689D01*
G01X4506Y37675D01*
G01X4519Y37665D01*
G01X4535Y37662D01*
G01X4551Y37660D01*
G01X4564Y37654D01*
G01X4574Y37644D01*
G01X4577Y37633D01*
G01X4580Y37621D01*
G01X4589Y37612D01*
G01X4602Y37606D01*
G01X4618Y37603D01*
G01X4634Y37606D01*
G01X4647Y37612D01*
G01X4656Y37621D01*
G01X4659Y37633D01*
G01X4668Y37644D01*
G01X4691Y37654D01*
G01X4726Y37660D01*
G01X4768Y37662D01*
G01X4845Y37672D01*
G01X4889Y37708D01*
G01X4904Y37776D01*
G01X4893Y37882D01*
G01X4869Y37955D01*
G37*

%LPD*%
G36*
G01X1117Y37654D02*
G01X1065Y37662D01*
G01X1022Y37655D01*
G01X984Y37636D01*
G01X952Y37607D01*
G01X928Y37569D01*
G01X912Y37525D01*
G01X905Y37475D01*
G01X908Y37423D01*
G01X922Y37369D01*
G01X943Y37326D01*
G01X970Y37293D01*
G01X1002Y37271D01*
G01X1037Y37260D01*
G01X1073Y37261D01*
G01X1110Y37273D01*
G01X1145Y37296D01*
G01X1178Y37332D01*
G01X1208Y37385D01*
G01X1223Y37441D01*
G01X1225Y37496D01*
G01X1214Y37548D01*
G01X1192Y37593D01*
G01X1159Y37630D01*
G01X1117Y37654D01*
G37*

%LPC*%
G36*
G01X1115Y37541D02*
G01X1073Y37563D01*
G01X1027Y37546D01*
G01X1000Y37510D01*
G01X986Y37466D01*
G01X987Y37422D01*
G01X1003Y37389D01*
G01X1038Y37370D01*
G01X1078Y37372D01*
G01X1114Y37394D01*
G01X1137Y37431D01*
G01X1139Y37494D01*
G01X1115Y37541D01*
G37*

%LPD*%
G36*
G01X4886Y37548D02*
G01X4865Y37567D01*
G01X4839Y37545D01*
G01X4823Y37534D01*
G01X4791Y37525D01*
G01X4748Y37518D01*
G01X4700Y37515D01*
G01X4632Y37513D01*
G01X4596Y37504D01*
G01X4580Y37482D01*
G01X4577Y37442D01*
G01X4580Y37412D01*
G01X4588Y37389D01*
G01X4600Y37374D01*
G01X4618Y37369D01*
G01X4634Y37372D01*
G01X4647Y37378D01*
G01X4656Y37387D01*
G01X4659Y37399D01*
G01X4680Y37423D01*
G01X4727Y37427D01*
G01X4778Y37412D01*
G01X4809Y37381D01*
G01X4817Y37335D01*
G01X4801Y37304D01*
G01X4758Y37287D01*
G01X4685Y37281D01*
G01X4627Y37279D01*
G01X4594Y37270D01*
G01X4580Y37247D01*
G01X4577Y37208D01*
G01X4580Y37178D01*
G01X4588Y37155D01*
G01X4600Y37140D01*
G01X4618Y37135D01*
G01X4634Y37137D01*
G01X4647Y37144D01*
G01X4656Y37153D01*
G01X4659Y37164D01*
G01X4668Y37176D01*
G01X4691Y37185D01*
G01X4725Y37191D01*
G01X4767Y37194D01*
G01X4841Y37201D01*
G01X4884Y37232D01*
G01X4903Y37299D01*
G01X4908Y37414D01*
G01X4902Y37496D01*
G01X4886Y37548D01*
G37*

%LPD*%
G36*
G01X849Y37233D02*
G01X823Y37235D01*
G01X792Y37196D01*
G01X772Y37142D01*
G01X766Y37087D01*
G01X772Y37033D01*
G01X793Y36982D01*
G01X807Y36962D01*
G01X824Y36945D01*
G01X842Y36934D01*
G01X859Y36930D01*
G01X874Y36926D01*
G01X890Y36915D01*
G01X904Y36899D01*
G01X914Y36879D01*
G01X926Y36851D01*
G01X935Y36842D01*
G01X948Y36851D01*
G01X969Y36879D01*
G01X1016Y36916D01*
G01X1076Y36930D01*
G01X1128Y36920D01*
G01X1150Y36887D01*
G01X1154Y36869D01*
G01X1163Y36856D01*
G01X1177Y36846D01*
G01X1193Y36842D01*
G01X1214Y36849D01*
G01X1226Y36875D01*
G01X1230Y36926D01*
G01X1227Y37008D01*
G01X1222Y37078D01*
G01X1212Y37132D01*
G01X1199Y37169D01*
G01X1185Y37186D01*
G01X1170Y37186D01*
G01X1159Y37173D01*
G01X1152Y37147D01*
G01X1150Y37108D01*
G01X1148Y37060D01*
G01X1136Y37033D01*
G01X1112Y37021D01*
G01X1067Y37018D01*
G01X1023Y37021D01*
G01X998Y37033D01*
G01X987Y37059D01*
G01X985Y37106D01*
G01X982Y37144D01*
G01X974Y37172D01*
G01X961Y37188D01*
G01X943Y37194D01*
G01X925Y37188D01*
G01X912Y37172D01*
G01X904Y37144D01*
G01X901Y37104D01*
G01X899Y37068D01*
G01X894Y37043D01*
G01X884Y37032D01*
G01X872Y37034D01*
G01X862Y37048D01*
G01X856Y37071D01*
G01X855Y37101D01*
G01X860Y37135D01*
G01X864Y37198D01*
G01X849Y37233D01*
G37*

%LPD*%
G36*
G01X4885Y37129D02*
G01X4867Y37135D01*
G01X4851Y37133D01*
G01X4838Y37126D01*
G01X4829Y37117D01*
G01X4826Y37106D01*
G01X4818Y37094D01*
G01X4798Y37085D01*
G01X4768Y37079D01*
G01X4732Y37077D01*
G01X4658Y37065D01*
G01X4609Y37034D01*
G01X4585Y36983D01*
G01X4588Y36916D01*
G01X4594Y36877D01*
G01X4590Y36855D01*
G01X4572Y36845D01*
G01X4535Y36842D01*
G01X4504Y36839D01*
G01X4483Y36830D01*
G01X4470Y36814D01*
G01X4466Y36791D01*
G01X4473Y36765D01*
G01X4504Y36749D01*
G01X4572Y36742D01*
G01X4687Y36740D01*
G01X4908Y36740D01*
G01X4908Y36820D01*
G01X4905Y36855D01*
G01X4898Y36880D01*
G01X4884Y36896D01*
G01X4867Y36901D01*
G01X4851Y36899D01*
G01X4838Y36892D01*
G01X4829Y36883D01*
G01X4826Y36872D01*
G01X4809Y36848D01*
G01X4771Y36843D01*
G01X4725Y36857D01*
G01X4688Y36885D01*
G01X4666Y36932D01*
G01X4680Y36965D01*
G01X4726Y36981D01*
G01X4801Y36977D01*
G01X4862Y36968D01*
G01X4894Y36973D01*
G01X4906Y36997D01*
G01X4908Y37047D01*
G01X4906Y37086D01*
G01X4898Y37113D01*
G01X4885Y37129D01*
G37*

%LPD*%
G36*
G01X4848Y36647D02*
G01X4811Y36667D01*
G01X4790Y36657D01*
G01X4765Y36630D01*
G01X4738Y36591D01*
G01X4713Y36542D01*
G01X4683Y36484D01*
G01X4671Y36476D01*
G01X4676Y36512D01*
G01X4701Y36586D01*
G01X4708Y36611D01*
G01X4703Y36627D01*
G01X4685Y36635D01*
G01X4653Y36638D01*
G01X4618Y36634D01*
G01X4596Y36618D01*
G01X4586Y36584D01*
G01X4582Y36525D01*
G01X4583Y36470D01*
G01X4591Y36426D01*
G01X4608Y36390D01*
G01X4632Y36360D01*
G01X4683Y36331D01*
G01X4727Y36341D01*
G01X4758Y36388D01*
G01X4770Y36465D01*
G01X4772Y36498D01*
G01X4779Y36525D01*
G01X4788Y36543D01*
G01X4800Y36550D01*
G01X4812Y36542D01*
G01X4818Y36520D01*
G01X4818Y36483D01*
G01X4811Y36432D01*
G01X4803Y36370D01*
G01X4805Y36334D01*
G01X4820Y36319D01*
G01X4850Y36316D01*
G01X4879Y36320D01*
G01X4897Y36335D01*
G01X4906Y36365D01*
G01X4908Y36416D01*
G01X4900Y36513D01*
G01X4879Y36592D01*
G01X4848Y36647D01*
G37*

%LPD*%
G36*
G01X2035Y35730D02*
G01X708Y35730D01*
G01X708Y35163D01*
G01X706Y35071D01*
G01X704Y34990D01*
G01X701Y34921D01*
G01X696Y34863D01*
G01X692Y34820D01*
G01X686Y34792D01*
G01X680Y34779D01*
G01X670Y34766D01*
G01X661Y34744D01*
G01X655Y34716D01*
G01X653Y34685D01*
G01X649Y34662D01*
G01X639Y34626D01*
G01X622Y34579D01*
G01X600Y34522D01*
G01X574Y34457D01*
G01X543Y34387D01*
G01X509Y34312D01*
G01X473Y34235D01*
G01X437Y34160D01*
G01X403Y34088D01*
G01X373Y34024D01*
G01X346Y33967D01*
G01X324Y33918D01*
G01X308Y33881D01*
G01X297Y33857D01*
G01X294Y33846D01*
G01X296Y33839D01*
G01X302Y33830D01*
G01X311Y33820D01*
G01X323Y33812D01*
G01X334Y33803D01*
G01X343Y33798D01*
G01X354Y33804D01*
G01X369Y33827D01*
G01X393Y33875D01*
G01X429Y33952D01*
G01X482Y34066D01*
G01X553Y34223D01*
G01X591Y34305D01*
G01X628Y34383D01*
G01X663Y34455D01*
G01X694Y34518D01*
G01X722Y34571D01*
G01X744Y34612D01*
G01X760Y34640D01*
G01X771Y34652D01*
G01X777Y34664D01*
G01X783Y34691D01*
G01X788Y34734D01*
G01X791Y34791D01*
G01X794Y34863D01*
G01X795Y34951D01*
G01X795Y35054D01*
G01X794Y35172D01*
G01X787Y35671D01*
G01X1951Y35671D01*
G01X1951Y33798D01*
G01X2670Y33798D01*
G01X2670Y33579D01*
G01X2672Y33470D01*
G01X2678Y33403D01*
G01X2691Y33369D01*
G01X2711Y33359D01*
G01X2727Y33357D01*
G01X2741Y33351D01*
G01X2749Y33341D01*
G01X2753Y33330D01*
G01X2749Y33318D01*
G01X2741Y33309D01*
G01X2727Y33303D01*
G01X2711Y33301D01*
G01X2690Y33288D01*
G01X2678Y33240D01*
G01X2672Y33142D01*
G01X2670Y32978D01*
G01X2670Y32657D01*
G01X786Y32657D01*
G01X794Y33227D01*
G01X795Y33342D01*
G01X796Y33450D01*
G01X795Y33548D01*
G01X794Y33635D01*
G01X792Y33707D01*
G01X790Y33763D01*
G01X788Y33799D01*
G01X784Y33815D01*
G01X751Y33820D01*
G01X707Y33796D01*
G01X669Y33755D01*
G01X653Y33709D01*
G01X655Y33687D01*
G01X661Y33669D01*
G01X670Y33657D01*
G01X680Y33652D01*
G01X686Y33642D01*
G01X692Y33616D01*
G01X697Y33571D01*
G01X701Y33509D01*
G01X704Y33432D01*
G01X706Y33339D01*
G01X708Y33231D01*
G01X708Y32569D01*
G01X2670Y32569D01*
G01X2670Y32217D01*
G01X2173Y32217D01*
G01X2173Y30162D01*
G01X2174Y30060D01*
G01X2174Y29967D01*
G01X2175Y29884D01*
G01X2176Y29810D01*
G01X2177Y29744D01*
G01X2179Y29685D01*
G01X2180Y29633D01*
G01X2182Y29588D01*
G01X2185Y29547D01*
G01X2187Y29512D01*
G01X2191Y29482D01*
G01X2194Y29455D01*
G01X2198Y29432D01*
G01X2202Y29412D01*
G01X2207Y29393D01*
G01X2212Y29376D01*
G01X2218Y29359D01*
G01X2224Y29343D01*
G01X2231Y29327D01*
G01X2257Y29265D01*
G01X2284Y29199D01*
G01X2310Y29136D01*
G01X2331Y29086D01*
G01X2350Y29039D01*
G01X2373Y28988D01*
G01X2395Y28938D01*
G01X2416Y28896D01*
G01X2427Y28868D01*
G01X2436Y28832D01*
G01X2445Y28786D01*
G01X2452Y28731D01*
G01X2458Y28663D01*
G01X2463Y28582D01*
G01X2467Y28487D01*
G01X2470Y28376D01*
G01X2482Y27944D01*
G01X2670Y27944D01*
G01X2670Y27637D01*
G01X2672Y27482D01*
G01X2678Y27388D01*
G01X2690Y27342D01*
G01X2711Y27330D01*
G01X2733Y27342D01*
G01X2745Y27388D01*
G01X2751Y27482D01*
G01X2753Y27637D01*
G01X2753Y27944D01*
G01X3195Y27944D01*
G01X3195Y27637D01*
G01X3197Y27482D01*
G01X3203Y27388D01*
G01X3216Y27342D01*
G01X3236Y27330D01*
G01X3257Y27342D01*
G01X3270Y27388D01*
G01X3276Y27482D01*
G01X3278Y27637D01*
G01X3278Y27944D01*
G01X3471Y27944D01*
G01X3471Y28325D01*
G01X3472Y28436D01*
G01X3473Y28526D01*
G01X3477Y28601D01*
G01X3482Y28662D01*
G01X3489Y28714D01*
G01X3500Y28759D01*
G01X3513Y28802D01*
G01X3530Y28844D01*
G01X3550Y28893D01*
G01X3569Y28938D01*
G01X3607Y29030D01*
G01X3628Y29082D01*
G01X3651Y29139D01*
G01X3677Y29206D01*
G01X3708Y29283D01*
G01X3728Y29330D01*
G01X3747Y29376D01*
G01X3764Y29415D01*
G01X3777Y29444D01*
G01X3780Y29450D01*
G01X3781Y29463D01*
G01X3783Y29481D01*
G01X3785Y29505D01*
G01X3786Y29534D01*
G01X3788Y29569D01*
G01X3789Y29608D01*
G01X3791Y29652D01*
G01X3792Y29701D01*
G01X3793Y29754D01*
G01X3794Y29812D01*
G01X3796Y29873D01*
G01X3797Y29938D01*
G01X3798Y30007D01*
G01X3799Y30079D01*
G01X3799Y30155D01*
G01X3800Y30234D01*
G01X3801Y30316D01*
G01X3801Y30400D01*
G01X3802Y30487D01*
G01X3802Y30576D01*
G01X3803Y30668D01*
G01X3803Y32217D01*
G01X3278Y32217D01*
G01X3278Y32569D01*
G01X5240Y32569D01*
G01X5240Y33225D01*
G01X5242Y33337D01*
G01X5244Y33432D01*
G01X5248Y33511D01*
G01X5253Y33575D01*
G01X5258Y33624D01*
G01X5265Y33660D01*
G01X5274Y33681D01*
G01X5289Y33712D01*
G01X5292Y33737D01*
G01X5283Y33761D01*
G01X5260Y33789D01*
G01X5237Y33811D01*
G01X5218Y33824D01*
G01X5201Y33826D01*
G01X5187Y33818D01*
G01X5176Y33797D01*
G01X5167Y33762D01*
G01X5160Y33714D01*
G01X5156Y33649D01*
G01X5153Y33568D01*
G01X5152Y33469D01*
G01X5152Y33351D01*
G01X5154Y33213D01*
G01X5162Y32657D01*
G01X3278Y32657D01*
G01X3278Y32978D01*
G01X3276Y33142D01*
G01X3270Y33240D01*
G01X3257Y33288D01*
G01X3236Y33301D01*
G01X3220Y33303D01*
G01X3207Y33309D01*
G01X3198Y33318D01*
G01X3195Y33330D01*
G01X3198Y33341D01*
G01X3207Y33351D01*
G01X3220Y33357D01*
G01X3236Y33359D01*
G01X3248Y33363D01*
G01X3258Y33375D01*
G01X3265Y33399D01*
G01X3270Y33437D01*
G01X3274Y33492D01*
G01X3276Y33565D01*
G01X3278Y33661D01*
G01X3278Y33908D01*
G01X3277Y34007D01*
G01X3274Y34082D01*
G01X3270Y34136D01*
G01X3264Y34174D01*
G01X3255Y34197D01*
G01X3244Y34210D01*
G01X3229Y34217D01*
G01X3203Y34225D01*
G01X3195Y34229D01*
G01X3203Y34232D01*
G01X3229Y34234D01*
G01X3267Y34264D01*
G01X3281Y34325D01*
G01X3269Y34386D01*
G01X3232Y34413D01*
G01X3210Y34418D01*
G01X3199Y34438D01*
G01X3199Y34481D01*
G01X3208Y34552D01*
G01X3224Y34654D01*
G01X3236Y34739D01*
G01X3246Y34807D01*
G01X3252Y34861D01*
G01X3254Y34904D01*
G01X3253Y34939D01*
G01X3247Y34967D01*
G01X3237Y34991D01*
G01X3223Y35013D01*
G01X3203Y35035D01*
G01X3179Y35061D01*
G01X3149Y35091D01*
G01X3029Y35215D01*
G01X3029Y35671D01*
G01X5162Y35671D01*
G01X5152Y35166D01*
G01X5141Y34662D01*
G01X4953Y34257D01*
G01X4908Y34159D01*
G01X4870Y34074D01*
G01X4840Y34002D01*
G01X4816Y33942D01*
G01X4801Y33894D01*
G01X4791Y33859D01*
G01X4788Y33834D01*
G01X4793Y33821D01*
G01X4803Y33820D01*
G01X4817Y33832D01*
G01X4837Y33859D01*
G01X4863Y33899D01*
G01X4893Y33955D01*
G01X4930Y34025D01*
G01X4972Y34110D01*
G01X5020Y34211D01*
G01X5061Y34296D01*
G01X5101Y34377D01*
G01X5139Y34452D01*
G01X5173Y34518D01*
G01X5204Y34575D01*
G01X5231Y34620D01*
G01X5251Y34651D01*
G01X5264Y34667D01*
G01X5285Y34687D01*
G01X5294Y34707D01*
G01X5290Y34730D01*
G01X5275Y34762D01*
G01X5266Y34783D01*
G01X5259Y34816D01*
G01X5253Y34861D01*
G01X5248Y34918D01*
G01X5245Y34987D01*
G01X5242Y35070D01*
G01X5241Y35166D01*
G01X5240Y35276D01*
G01X5240Y35730D01*
G01X2946Y35730D01*
G01X2946Y35229D01*
G01X2805Y35084D01*
G01X2742Y35014D01*
G01X2701Y34960D01*
G01X2682Y34919D01*
G01X2683Y34888D01*
G01X2692Y34857D01*
G01X2704Y34809D01*
G01X2715Y34752D01*
G01X2726Y34691D01*
G01X2738Y34629D01*
G01X2749Y34569D01*
G01X2760Y34516D01*
G01X2769Y34479D01*
G01X2775Y34446D01*
G01X2772Y34426D01*
G01X2757Y34416D01*
G01X2728Y34413D01*
G01X2700Y34409D01*
G01X2682Y34395D01*
G01X2673Y34369D01*
G01X2670Y34327D01*
G01X2673Y34289D01*
G01X2682Y34260D01*
G01X2697Y34239D01*
G01X2718Y34228D01*
G01X2744Y34221D01*
G01X2753Y34216D01*
G01X2744Y34213D01*
G01X2718Y34211D01*
G01X2694Y34203D01*
G01X2679Y34178D01*
G01X2672Y34128D01*
G01X2670Y34047D01*
G01X2670Y33886D01*
G01X2035Y33886D01*
G01X2035Y35730D01*
G37*

%LPC*%
G36*
G01X3416Y28735D02*
G01X2532Y28735D01*
G01X2532Y28388D01*
G01X2533Y28252D01*
G01X2537Y28138D01*
G01X2543Y28057D01*
G01X2550Y28022D01*
G01X2562Y28018D01*
G01X2591Y28015D01*
G01X2633Y28011D01*
G01X2688Y28008D01*
G01X2753Y28006D01*
G01X2827Y28004D01*
G01X2907Y28003D01*
G01X3416Y28003D01*
G01X3416Y28735D01*
G37*
G36*
G01X3690Y29496D02*
G01X2987Y29496D01*
G01X2858Y29495D01*
G01X2745Y29495D01*
G01X2646Y29494D01*
G01X2562Y29492D01*
G01X2490Y29491D01*
G01X2431Y29488D01*
G01X2383Y29485D01*
G01X2345Y29481D01*
G01X2318Y29477D01*
G01X2299Y29471D01*
G01X2289Y29466D01*
G01X2286Y29459D01*
G01X2293Y29430D01*
G01X2311Y29377D01*
G01X2336Y29309D01*
G01X2367Y29232D01*
G01X2401Y29148D01*
G01X2437Y29061D01*
G01X2469Y28981D01*
G01X2494Y28918D01*
G01X2543Y28793D01*
G01X3409Y28793D01*
G01X3445Y28888D01*
G01X3464Y28937D01*
G01X3488Y28998D01*
G01X3516Y29065D01*
G01X3542Y29129D01*
G01X3570Y29195D01*
G01X3598Y29265D01*
G01X3625Y29332D01*
G01X3646Y29386D01*
G01X3690Y29496D01*
G37*
G36*
G01X3720Y32159D02*
G01X2228Y32159D01*
G01X2228Y29584D01*
G01X3720Y29584D01*
G01X3720Y32159D01*
G37*
G36*
G01X3195Y33242D02*
G01X2753Y33242D01*
G01X2753Y32217D01*
G01X3195Y32217D01*
G01X3195Y33242D01*
G37*
G36*
G01X3195Y34120D02*
G01X2753Y34120D01*
G01X2753Y33418D01*
G01X3195Y33418D01*
G01X3195Y34120D01*
G37*
G36*
G01X3063Y34352D02*
G01X2974Y34354D01*
G01X2885Y34352D01*
G01X2815Y34346D01*
G01X2769Y34337D01*
G01X2753Y34325D01*
G01X2769Y34314D01*
G01X2815Y34304D01*
G01X2885Y34298D01*
G01X2974Y34296D01*
G01X3063Y34298D01*
G01X3133Y34304D01*
G01X3179Y34314D01*
G01X3195Y34325D01*
G01X3179Y34337D01*
G01X3133Y34346D01*
G01X3063Y34352D01*
G37*
G36*
G01X3099Y34909D02*
G01X2974Y34910D01*
G01X2888Y34909D01*
G01X2819Y34904D01*
G01X2772Y34897D01*
G01X2756Y34889D01*
G01X2761Y34863D01*
G01X2772Y34809D01*
G01X2787Y34734D01*
G01X2805Y34647D01*
G01X2849Y34428D01*
G01X2975Y34419D01*
G01X3100Y34410D01*
G01X3135Y34594D01*
G01X3150Y34671D01*
G01X3164Y34744D01*
G01X3176Y34805D01*
G01X3184Y34845D01*
G01X3186Y34882D01*
G01X3164Y34902D01*
G01X3099Y34909D01*
G37*
G36*
G01X3001Y35110D02*
G01X2981Y35116D01*
G01X2962Y35110D01*
G01X2935Y35094D01*
G01X2904Y35071D01*
G01X2875Y35042D01*
G01X2806Y34969D01*
G01X3149Y34969D01*
G01X3085Y35042D01*
G01X3056Y35071D01*
G01X3028Y35094D01*
G01X3001Y35110D01*
G37*

%LPD*%
G36*
G01X77897Y44734D02*
G01X77822Y44734D01*
G01X77674Y44732D01*
G01X77530Y44728D01*
G01X77460Y44724D01*
G01X77392Y44720D01*
G01X77326Y44716D01*
G01X77262Y44710D01*
G01X77201Y44705D01*
G01X77141Y44698D01*
G01X77085Y44691D01*
G01X77032Y44683D01*
G01X76975Y44674D01*
G01X76918Y44663D01*
G01X76803Y44643D01*
G01X76745Y44632D01*
G01X76688Y44620D01*
G01X76629Y44609D01*
G01X76571Y44596D01*
G01X76513Y44584D01*
G01X76396Y44557D01*
G01X76338Y44544D01*
G01X76279Y44529D01*
G01X76220Y44515D01*
G01X76161Y44499D01*
G01X76102Y44484D01*
G01X75925Y44436D01*
G01X75807Y44402D01*
G01X75630Y44348D01*
G01X75572Y44329D01*
G01X75454Y44291D01*
G01X75395Y44271D01*
G01X75336Y44252D01*
G01X75220Y44210D01*
G01X75161Y44189D01*
G01X75045Y44146D01*
G01X74987Y44125D01*
G01X74930Y44102D01*
G01X74815Y44056D01*
G01X74758Y44034D01*
G01X74701Y44010D01*
G01X74645Y43986D01*
G01X74588Y43962D01*
G01X74532Y43938D01*
G01X74476Y43913D01*
G01X74411Y43884D01*
G01X74344Y43853D01*
G01X74276Y43822D01*
G01X74207Y43789D01*
G01X74139Y43757D01*
G01X74007Y43693D01*
G01X73944Y43662D01*
G01X73885Y43632D01*
G01X73829Y43604D01*
G01X73777Y43577D01*
G01X73731Y43552D01*
G01X73690Y43531D01*
G01X73655Y43512D01*
G01X73628Y43496D01*
G01X73609Y43483D01*
G01X73598Y43475D01*
G01X73595Y43471D01*
G01X73604Y43471D01*
G01X73621Y43476D01*
G01X73645Y43484D01*
G01X73679Y43496D01*
G01X73721Y43510D01*
G01X73771Y43528D01*
G01X73827Y43547D01*
G01X73886Y43567D01*
G01X73948Y43589D01*
G01X74010Y43610D01*
G01X74080Y43635D01*
G01X74149Y43658D01*
G01X74288Y43703D01*
G01X74357Y43724D01*
G01X74427Y43746D01*
G01X74565Y43786D01*
G01X74703Y43823D01*
G01X74773Y43841D01*
G01X74841Y43858D01*
G01X74910Y43875D01*
G01X74979Y43891D01*
G01X75116Y43922D01*
G01X75252Y43950D01*
G01X75320Y43962D01*
G01X75388Y43975D01*
G01X75455Y43987D01*
G01X75523Y43998D01*
G01X75590Y44009D01*
G01X75656Y44019D01*
G01X75790Y44037D01*
G01X75855Y44045D01*
G01X75987Y44059D01*
G01X76052Y44066D01*
G01X76116Y44072D01*
G01X76181Y44077D01*
G01X76309Y44085D01*
G01X76435Y44091D01*
G01X76498Y44093D01*
G01X76622Y44095D01*
G01X76744Y44095D01*
G01X76804Y44094D01*
G01X76864Y44092D01*
G01X76924Y44089D01*
G01X76983Y44086D01*
G01X77041Y44083D01*
G01X77099Y44079D01*
G01X77157Y44074D01*
G01X77213Y44069D01*
G01X77270Y44063D01*
G01X77326Y44056D01*
G01X77381Y44048D01*
G01X77490Y44032D01*
G01X77543Y44023D01*
G01X77596Y44013D01*
G01X77648Y44003D01*
G01X77700Y43991D01*
G01X77751Y43980D01*
G01X77851Y43954D01*
G01X77899Y43941D01*
G01X77948Y43926D01*
G01X77995Y43912D01*
G01X78042Y43896D01*
G01X78088Y43880D01*
G01X78178Y43846D01*
G01X78264Y43810D01*
G01X78348Y43770D01*
G01X78395Y43746D01*
G01X78444Y43717D01*
G01X78496Y43686D01*
G01X78549Y43651D01*
G01X78603Y43614D01*
G01X78657Y43575D01*
G01X78713Y43533D01*
G01X78768Y43490D01*
G01X78823Y43445D01*
G01X78877Y43399D01*
G01X78930Y43352D01*
G01X78982Y43306D01*
G01X79032Y43258D01*
G01X79080Y43211D01*
G01X79126Y43163D01*
G01X79169Y43117D01*
G01X79209Y43072D01*
G01X79245Y43028D01*
G01X79278Y42986D01*
G01X79306Y42945D01*
G01X79371Y42847D01*
G01X80570Y42859D01*
G01X81768Y42870D01*
G01X81531Y43172D01*
G01X81494Y43219D01*
G01X81455Y43266D01*
G01X81416Y43312D01*
G01X81376Y43357D01*
G01X81334Y43402D01*
G01X81293Y43446D01*
G01X81250Y43490D01*
G01X81206Y43533D01*
G01X81162Y43575D01*
G01X81117Y43617D01*
G01X81071Y43658D01*
G01X81024Y43698D01*
G01X80977Y43737D01*
G01X80928Y43777D01*
G01X80880Y43815D01*
G01X80830Y43853D01*
G01X80780Y43890D01*
G01X80676Y43962D01*
G01X80624Y43996D01*
G01X80570Y44031D01*
G01X80516Y44065D01*
G01X80461Y44098D01*
G01X80406Y44130D01*
G01X80349Y44162D01*
G01X80292Y44192D01*
G01X80235Y44223D01*
G01X80176Y44252D01*
G01X80058Y44308D01*
G01X79997Y44336D01*
G01X79875Y44388D01*
G01X79813Y44413D01*
G01X79750Y44437D01*
G01X79686Y44461D01*
G01X79622Y44484D01*
G01X79557Y44506D01*
G01X79492Y44527D01*
G01X79426Y44548D01*
G01X79360Y44567D01*
G01X79293Y44586D01*
G01X79225Y44605D01*
G01X79157Y44622D01*
G01X79110Y44633D01*
G01X79061Y44643D01*
G01X79008Y44653D01*
G01X78952Y44662D01*
G01X78893Y44671D01*
G01X78832Y44679D01*
G01X78768Y44687D01*
G01X78702Y44693D01*
G01X78634Y44700D01*
G01X78565Y44706D01*
G01X78494Y44712D01*
G01X78421Y44716D01*
G01X78348Y44721D01*
G01X78274Y44724D01*
G01X78199Y44728D01*
G01X78124Y44730D01*
G01X77972Y44733D01*
G01X77897Y44734D01*
G37*

%LPD*%
G36*
G01X78484Y42546D02*
G01X78298Y42546D01*
G01X78210Y42544D01*
G01X78145Y42540D01*
G01X78098Y42532D01*
G01X78066Y42520D01*
G01X78046Y42502D01*
G01X78033Y42480D01*
G01X78024Y42449D01*
G01X78016Y42411D01*
G01X78006Y42369D01*
G01X77985Y42273D01*
G01X77973Y42219D01*
G01X77961Y42162D01*
G01X77948Y42102D01*
G01X77935Y42039D01*
G01X77922Y41973D01*
G01X77907Y41904D01*
G01X77893Y41833D01*
G01X77878Y41760D01*
G01X77864Y41685D01*
G01X77848Y41608D01*
G01X77833Y41531D01*
G01X77817Y41451D01*
G01X77802Y41371D01*
G01X77786Y41290D01*
G01X77754Y41126D01*
G01X77739Y41044D01*
G01X77723Y40962D01*
G01X77708Y40880D01*
G01X77692Y40798D01*
G01X77677Y40717D01*
G01X77662Y40638D01*
G01X77648Y40559D01*
G01X77633Y40482D01*
G01X77619Y40406D01*
G01X77606Y40332D01*
G01X77593Y40260D01*
G01X77580Y40191D01*
G01X77569Y40123D01*
G01X77557Y40059D01*
G01X77546Y39997D01*
G01X77536Y39939D01*
G01X77526Y39883D01*
G01X77518Y39831D01*
G01X77510Y39784D01*
G01X77503Y39739D01*
G01X77496Y39700D01*
G01X77491Y39664D01*
G01X77487Y39633D01*
G01X77483Y39607D01*
G01X77481Y39587D01*
G01X77480Y39571D01*
G01X77480Y39561D01*
G01X77481Y39556D01*
G01X77489Y39553D01*
G01X77508Y39550D01*
G01X77537Y39547D01*
G01X77574Y39544D01*
G01X77620Y39542D01*
G01X77675Y39540D01*
G01X77737Y39538D01*
G01X77806Y39536D01*
G01X77881Y39535D01*
G01X77963Y39534D01*
G01X78049Y39533D01*
G01X78336Y39533D01*
G01X78438Y39534D01*
G01X78543Y39535D01*
G01X79575Y39546D01*
G01X79626Y39805D01*
G01X79645Y39908D01*
G01X79657Y39997D01*
G01X79662Y40063D01*
G01X79658Y40096D01*
G01X79650Y40101D01*
G01X79630Y40105D01*
G01X79599Y40109D01*
G01X79559Y40113D01*
G01X79510Y40116D01*
G01X79454Y40119D01*
G01X79389Y40122D01*
G01X79319Y40125D01*
G01X79243Y40127D01*
G01X79162Y40128D01*
G01X79077Y40129D01*
G01X78341Y40129D01*
G01X78367Y40247D01*
G01X78382Y40319D01*
G01X78397Y40392D01*
G01X78413Y40467D01*
G01X78445Y40623D01*
G01X78461Y40704D01*
G01X78478Y40785D01*
G01X78494Y40868D01*
G01X78528Y41034D01*
G01X78576Y41284D01*
G01X78593Y41366D01*
G01X78608Y41447D01*
G01X78624Y41528D01*
G01X78639Y41607D01*
G01X78654Y41685D01*
G01X78668Y41760D01*
G01X78682Y41833D01*
G01X78695Y41904D01*
G01X78707Y41973D01*
G01X78719Y42038D01*
G01X78730Y42101D01*
G01X78741Y42160D01*
G01X78751Y42215D01*
G01X78760Y42266D01*
G01X78767Y42313D01*
G01X78775Y42357D01*
G01X78781Y42395D01*
G01X78786Y42428D01*
G01X78790Y42457D01*
G01X78793Y42480D01*
G01X78795Y42497D01*
G01X78795Y42514D01*
G01X78783Y42520D01*
G01X78758Y42526D01*
G01X78721Y42532D01*
G01X78674Y42536D01*
G01X78618Y42541D01*
G01X78554Y42544D01*
G01X78484Y42546D01*
G37*

%LPD*%
G36*
G01X81942Y42618D02*
G01X81882Y42618D01*
G01X81823Y42617D01*
G01X81763Y42613D01*
G01X81705Y42607D01*
G01X81647Y42599D01*
G01X81590Y42588D01*
G01X81532Y42575D01*
G01X81476Y42560D01*
G01X81419Y42544D01*
G01X81364Y42525D01*
G01X81308Y42506D01*
G01X81255Y42484D01*
G01X81201Y42460D01*
G01X81149Y42435D01*
G01X81097Y42409D01*
G01X81046Y42381D01*
G01X80997Y42352D01*
G01X80947Y42321D01*
G01X80900Y42289D01*
G01X80852Y42255D01*
G01X80807Y42220D01*
G01X80761Y42183D01*
G01X80718Y42146D01*
G01X80675Y42107D01*
G01X80633Y42068D01*
G01X80593Y42026D01*
G01X80554Y41984D01*
G01X80515Y41941D01*
G01X80478Y41897D01*
G01X80443Y41852D01*
G01X80409Y41805D01*
G01X80376Y41758D01*
G01X80344Y41710D01*
G01X80314Y41661D01*
G01X80285Y41611D01*
G01X80257Y41561D01*
G01X80231Y41510D01*
G01X80207Y41458D01*
G01X80184Y41405D01*
G01X80163Y41352D01*
G01X80143Y41299D01*
G01X80125Y41244D01*
G01X80109Y41189D01*
G01X80093Y41133D01*
G01X80080Y41078D01*
G01X80069Y41022D01*
G01X80059Y40965D01*
G01X80051Y40908D01*
G01X80045Y40850D01*
G01X80040Y40793D01*
G01X80038Y40735D01*
G01X80037Y40677D01*
G01X80038Y40619D01*
G01X80042Y40561D01*
G01X80049Y40485D01*
G01X80058Y40413D01*
G01X80071Y40345D01*
G01X80087Y40280D01*
G01X80106Y40218D01*
G01X80128Y40160D01*
G01X80155Y40103D01*
G01X80185Y40047D01*
G01X80220Y39993D01*
G01X80258Y39940D01*
G01X80302Y39887D01*
G01X80349Y39834D01*
G01X80386Y39797D01*
G01X80424Y39762D01*
G01X80464Y39729D01*
G01X80506Y39698D01*
G01X80550Y39669D01*
G01X80595Y39642D01*
G01X80642Y39617D01*
G01X80691Y39593D01*
G01X80740Y39572D01*
G01X80791Y39552D01*
G01X80843Y39534D01*
G01X80896Y39518D01*
G01X80950Y39504D01*
G01X81006Y39492D01*
G01X81062Y39482D01*
G01X81118Y39473D01*
G01X81175Y39467D01*
G01X81233Y39462D01*
G01X81291Y39460D01*
G01X81350Y39459D01*
G01X81409Y39460D01*
G01X81468Y39463D01*
G01X81527Y39468D01*
G01X81586Y39474D01*
G01X81645Y39483D01*
G01X81704Y39493D01*
G01X81763Y39506D01*
G01X81822Y39520D01*
G01X81879Y39536D01*
G01X81937Y39554D01*
G01X81994Y39574D01*
G01X82050Y39595D01*
G01X82105Y39619D01*
G01X82159Y39644D01*
G01X82213Y39672D01*
G01X82266Y39701D01*
G01X82317Y39732D01*
G01X82367Y39765D01*
G01X82415Y39800D01*
G01X82463Y39837D01*
G01X82585Y39936D01*
G01X82429Y40140D01*
G01X82365Y40220D01*
G01X82307Y40285D01*
G01X82262Y40329D01*
G01X82236Y40344D01*
G01X82202Y40334D01*
G01X82137Y40307D01*
G01X82051Y40266D01*
G01X81953Y40215D01*
G01X81896Y40187D01*
G01X81839Y40162D01*
G01X81782Y40141D01*
G01X81725Y40122D01*
G01X81669Y40108D01*
G01X81613Y40097D01*
G01X81558Y40089D01*
G01X81504Y40084D01*
G01X81451Y40083D01*
G01X81399Y40086D01*
G01X81348Y40092D01*
G01X81299Y40101D01*
G01X81251Y40114D01*
G01X81205Y40130D01*
G01X81161Y40150D01*
G01X81119Y40173D01*
G01X81080Y40200D01*
G01X81044Y40230D01*
G01X81011Y40263D01*
G01X80982Y40300D01*
G01X80955Y40339D01*
G01X80932Y40381D01*
G01X80911Y40426D01*
G01X80894Y40472D01*
G01X80879Y40521D01*
G01X80868Y40572D01*
G01X80859Y40624D01*
G01X80853Y40678D01*
G01X80850Y40733D01*
G01X80849Y40789D01*
G01X80851Y40846D01*
G01X80856Y40904D01*
G01X80864Y40962D01*
G01X80874Y41020D01*
G01X80886Y41079D01*
G01X80902Y41136D01*
G01X80919Y41194D01*
G01X80939Y41252D01*
G01X80961Y41309D01*
G01X80986Y41364D01*
G01X81013Y41419D01*
G01X81043Y41472D01*
G01X81074Y41524D01*
G01X81108Y41573D01*
G01X81144Y41621D01*
G01X81182Y41667D01*
G01X81222Y41710D01*
G01X81264Y41751D01*
G01X81308Y41789D01*
G01X81354Y41824D01*
G01X81402Y41856D01*
G01X81452Y41885D01*
G01X81509Y41913D01*
G01X81566Y41937D01*
G01X81623Y41956D01*
G01X81680Y41971D01*
G01X81738Y41981D01*
G01X81795Y41988D01*
G01X81853Y41990D01*
G01X81910Y41988D01*
G01X81969Y41981D01*
G01X82027Y41970D01*
G01X82086Y41955D01*
G01X82146Y41935D01*
G01X82206Y41911D01*
G01X82267Y41883D01*
G01X82328Y41850D01*
G01X82389Y41813D01*
G01X82419Y41796D01*
G01X82446Y41787D01*
G01X82474Y41787D01*
G01X82505Y41797D01*
G01X82543Y41819D01*
G01X82590Y41853D01*
G01X82650Y41901D01*
G01X82724Y41964D01*
G01X82967Y42174D01*
G01X82854Y42292D01*
G01X82822Y42324D01*
G01X82786Y42354D01*
G01X82748Y42383D01*
G01X82706Y42410D01*
G01X82662Y42436D01*
G01X82616Y42460D01*
G01X82567Y42483D01*
G01X82516Y42504D01*
G01X82464Y42524D01*
G01X82410Y42542D01*
G01X82355Y42557D01*
G01X82298Y42572D01*
G01X82240Y42584D01*
G01X82182Y42595D01*
G01X82122Y42604D01*
G01X82062Y42611D01*
G01X82002Y42615D01*
G01X81942Y42618D01*
G37*

%LPD*%
G36*
G01X73480Y42546D02*
G01X73008Y42546D01*
G01X72827Y41629D01*
G01X72799Y41486D01*
G01X72773Y41354D01*
G01X72748Y41231D01*
G01X72724Y41118D01*
G01X72703Y41014D01*
G01X72683Y40918D01*
G01X72663Y40831D01*
G01X72646Y40751D01*
G01X72628Y40678D01*
G01X72612Y40612D01*
G01X72597Y40553D01*
G01X72582Y40499D01*
G01X72567Y40452D01*
G01X72554Y40410D01*
G01X72540Y40371D01*
G01X72526Y40338D01*
G01X72512Y40308D01*
G01X72499Y40283D01*
G01X72484Y40259D01*
G01X72470Y40239D01*
G01X72456Y40221D01*
G01X72440Y40204D01*
G01X72424Y40189D01*
G01X72407Y40175D01*
G01X72360Y40142D01*
G01X72312Y40117D01*
G01X72263Y40098D01*
G01X72213Y40086D01*
G01X72162Y40082D01*
G01X72112Y40083D01*
G01X72061Y40092D01*
G01X72012Y40107D01*
G01X71963Y40130D01*
G01X71915Y40158D01*
G01X71869Y40193D01*
G01X71826Y40235D01*
G01X71685Y40385D01*
G01X71391Y40224D01*
G01X71277Y40160D01*
G01X71183Y40104D01*
G01X71120Y40061D01*
G01X71097Y40038D01*
G01X71104Y40017D01*
G01X71125Y39977D01*
G01X71157Y39925D01*
G01X71195Y39866D01*
G01X71227Y39823D01*
G01X71261Y39781D01*
G01X71299Y39741D01*
G01X71339Y39704D01*
G01X71382Y39670D01*
G01X71426Y39638D01*
G01X71474Y39608D01*
G01X71523Y39581D01*
G01X71574Y39556D01*
G01X71626Y39534D01*
G01X71681Y39514D01*
G01X71737Y39497D01*
G01X71795Y39483D01*
G01X71853Y39471D01*
G01X71912Y39462D01*
G01X71973Y39455D01*
G01X72034Y39451D01*
G01X72096Y39450D01*
G01X72159Y39452D01*
G01X72222Y39456D01*
G01X72285Y39464D01*
G01X72349Y39474D01*
G01X72412Y39487D01*
G01X72475Y39503D01*
G01X72538Y39521D01*
G01X72601Y39543D01*
G01X72663Y39567D01*
G01X72724Y39595D01*
G01X72762Y39613D01*
G01X72798Y39632D01*
G01X72833Y39652D01*
G01X72867Y39672D01*
G01X72900Y39693D01*
G01X72931Y39715D01*
G01X72960Y39737D01*
G01X72989Y39761D01*
G01X73017Y39786D01*
G01X73043Y39813D01*
G01X73069Y39841D01*
G01X73094Y39871D01*
G01X73118Y39902D01*
G01X73141Y39936D01*
G01X73163Y39971D01*
G01X73185Y40009D01*
G01X73206Y40049D01*
G01X73227Y40092D01*
G01X73247Y40137D01*
G01X73267Y40185D01*
G01X73286Y40236D01*
G01X73305Y40290D01*
G01X73324Y40346D01*
G01X73343Y40406D01*
G01X73361Y40470D01*
G01X73380Y40537D01*
G01X73398Y40608D01*
G01X73417Y40682D01*
G01X73435Y40761D01*
G01X73454Y40843D01*
G01X73474Y40929D01*
G01X73493Y41020D01*
G01X73513Y41116D01*
G01X73533Y41215D01*
G01X73554Y41320D01*
G01X73575Y41430D01*
G01X73595Y41534D01*
G01X73615Y41635D01*
G01X73634Y41734D01*
G01X73652Y41829D01*
G01X73669Y41920D01*
G01X73685Y42007D01*
G01X73701Y42088D01*
G01X73715Y42164D01*
G01X73728Y42233D01*
G01X73739Y42296D01*
G01X73749Y42351D01*
G01X73757Y42398D01*
G01X73764Y42437D01*
G01X73769Y42467D01*
G01X73772Y42488D01*
G01X73773Y42498D01*
G01X73767Y42509D01*
G01X73748Y42519D01*
G01X73718Y42527D01*
G01X73677Y42534D01*
G01X73623Y42540D01*
G01X73557Y42543D01*
G01X73480Y42546D01*
G37*

%LPD*%
G36*
G01X75873Y42189D02*
G01X75798Y42190D01*
G01X75728Y42189D01*
G01X75660Y42187D01*
G01X75597Y42184D01*
G01X75537Y42181D01*
G01X75480Y42176D01*
G01X75427Y42170D01*
G01X75377Y42163D01*
G01X75330Y42154D01*
G01X75286Y42145D01*
G01X75245Y42135D01*
G01X75176Y42115D01*
G01X75108Y42094D01*
G01X75042Y42071D01*
G01X74978Y42047D01*
G01X74915Y42022D01*
G01X74854Y41996D01*
G01X74794Y41969D01*
G01X74735Y41940D01*
G01X74679Y41910D01*
G01X74624Y41878D01*
G01X74570Y41845D01*
G01X74517Y41811D01*
G01X74466Y41776D01*
G01X74416Y41739D01*
G01X74368Y41701D01*
G01X74321Y41661D01*
G01X74275Y41620D01*
G01X74231Y41577D01*
G01X74188Y41534D01*
G01X74146Y41488D01*
G01X74105Y41441D01*
G01X74066Y41393D01*
G01X74027Y41343D01*
G01X73990Y41292D01*
G01X73952Y41236D01*
G01X73916Y41178D01*
G01X73881Y41120D01*
G01X73849Y41062D01*
G01X73820Y41003D01*
G01X73792Y40945D01*
G01X73766Y40885D01*
G01X73742Y40827D01*
G01X73721Y40767D01*
G01X73702Y40708D01*
G01X73685Y40649D01*
G01X73670Y40590D01*
G01X73657Y40531D01*
G01X73647Y40472D01*
G01X73638Y40414D01*
G01X73632Y40357D01*
G01X73627Y40299D01*
G01X73625Y40243D01*
G01X73626Y40187D01*
G01X73628Y40132D01*
G01X73633Y40077D01*
G01X73639Y40024D01*
G01X73648Y39972D01*
G01X73659Y39920D01*
G01X73672Y39869D01*
G01X73687Y39821D01*
G01X73705Y39772D01*
G01X73725Y39726D01*
G01X73746Y39681D01*
G01X73770Y39637D01*
G01X73796Y39595D01*
G01X73825Y39555D01*
G01X73855Y39516D01*
G01X73888Y39479D01*
G01X73923Y39444D01*
G01X73959Y39411D01*
G01X73996Y39381D01*
G01X74034Y39353D01*
G01X74075Y39326D01*
G01X74116Y39300D01*
G01X74160Y39275D01*
G01X74205Y39251D01*
G01X74252Y39228D01*
G01X74300Y39207D01*
G01X74349Y39186D01*
G01X74401Y39167D01*
G01X74453Y39149D01*
G01X74506Y39132D01*
G01X74561Y39116D01*
G01X74617Y39101D01*
G01X74673Y39088D01*
G01X74731Y39076D01*
G01X74790Y39065D01*
G01X74849Y39056D01*
G01X74909Y39047D01*
G01X74970Y39040D01*
G01X75032Y39034D01*
G01X75094Y39029D01*
G01X75220Y39023D01*
G01X75347Y39023D01*
G01X75411Y39024D01*
G01X75475Y39027D01*
G01X75539Y39031D01*
G01X75603Y39037D01*
G01X75667Y39044D01*
G01X75731Y39052D01*
G01X75795Y39061D01*
G01X75859Y39072D01*
G01X75922Y39085D01*
G01X75986Y39098D01*
G01X76048Y39113D01*
G01X76111Y39129D01*
G01X76233Y39165D01*
G01X76285Y39184D01*
G01X76341Y39207D01*
G01X76400Y39233D01*
G01X76460Y39263D01*
G01X76522Y39295D01*
G01X76583Y39330D01*
G01X76645Y39367D01*
G01X76704Y39404D01*
G01X76762Y39442D01*
G01X76817Y39480D01*
G01X76869Y39518D01*
G01X76916Y39556D01*
G01X76958Y39592D01*
G01X76994Y39626D01*
G01X77023Y39658D01*
G01X77044Y39687D01*
G01X77077Y39741D01*
G01X77075Y39770D01*
G01X77031Y39782D01*
G01X76934Y39784D01*
G01X76888Y39782D01*
G01X76842Y39775D01*
G01X76793Y39764D01*
G01X76743Y39748D01*
G01X76690Y39727D01*
G01X76633Y39700D01*
G01X76574Y39669D01*
G01X76446Y39595D01*
G01X76387Y39561D01*
G01X76331Y39531D01*
G01X76277Y39504D01*
G01X76224Y39481D01*
G01X76172Y39461D01*
G01X76119Y39443D01*
G01X76064Y39428D01*
G01X76006Y39414D01*
G01X75946Y39403D01*
G01X75880Y39394D01*
G01X75809Y39386D01*
G01X75731Y39379D01*
G01X75646Y39373D01*
G01X75553Y39368D01*
G01X75450Y39364D01*
G01X75358Y39360D01*
G01X75270Y39359D01*
G01X75186Y39360D01*
G01X75104Y39363D01*
G01X75027Y39368D01*
G01X74952Y39374D01*
G01X74880Y39383D01*
G01X74812Y39393D01*
G01X74747Y39406D01*
G01X74684Y39420D01*
G01X74625Y39437D01*
G01X74568Y39455D01*
G01X74514Y39476D01*
G01X74463Y39499D01*
G01X74415Y39524D01*
G01X74369Y39551D01*
G01X74325Y39580D01*
G01X74284Y39612D01*
G01X74246Y39645D01*
G01X74209Y39682D01*
G01X74175Y39720D01*
G01X74143Y39761D01*
G01X74113Y39804D01*
G01X74085Y39850D01*
G01X74064Y39888D01*
G01X74047Y39930D01*
G01X74031Y39975D01*
G01X74018Y40022D01*
G01X74007Y40072D01*
G01X73999Y40123D01*
G01X73993Y40177D01*
G01X73990Y40232D01*
G01X73989Y40289D01*
G01X73990Y40345D01*
G01X73994Y40403D01*
G01X74000Y40462D01*
G01X74008Y40521D01*
G01X74019Y40579D01*
G01X74032Y40638D01*
G01X74048Y40696D01*
G01X74065Y40752D01*
G01X74085Y40808D01*
G01X74107Y40863D01*
G01X74131Y40915D01*
G01X74159Y40970D01*
G01X74188Y41023D01*
G01X74219Y41074D01*
G01X74252Y41125D01*
G01X74285Y41174D01*
G01X74320Y41221D01*
G01X74357Y41266D01*
G01X74395Y41310D01*
G01X74434Y41353D01*
G01X74474Y41394D01*
G01X74516Y41434D01*
G01X74560Y41472D01*
G01X74604Y41508D01*
G01X74650Y41543D01*
G01X74696Y41576D01*
G01X74745Y41608D01*
G01X74794Y41638D01*
G01X74844Y41667D01*
G01X74896Y41694D01*
G01X74949Y41719D01*
G01X75003Y41742D01*
G01X75058Y41764D01*
G01X75113Y41784D01*
G01X75170Y41803D01*
G01X75229Y41820D01*
G01X75288Y41835D01*
G01X75348Y41848D01*
G01X75409Y41860D01*
G01X75471Y41870D01*
G01X75534Y41878D01*
G01X75598Y41884D01*
G01X75662Y41889D01*
G01X75728Y41892D01*
G01X75794Y41893D01*
G01X75861Y41892D01*
G01X75929Y41890D01*
G01X76005Y41885D01*
G01X76077Y41878D01*
G01X76145Y41870D01*
G01X76209Y41859D01*
G01X76270Y41847D01*
G01X76327Y41832D01*
G01X76381Y41816D01*
G01X76433Y41797D01*
G01X76482Y41776D01*
G01X76528Y41752D01*
G01X76572Y41726D01*
G01X76614Y41697D01*
G01X76654Y41666D01*
G01X76692Y41632D01*
G01X76728Y41596D01*
G01X76763Y41556D01*
G01X76795Y41516D01*
G01X76822Y41474D01*
G01X76846Y41431D01*
G01X76866Y41386D01*
G01X76883Y41339D01*
G01X76896Y41291D01*
G01X76906Y41243D01*
G01X76912Y41193D01*
G01X76915Y41143D01*
G01X76915Y41091D01*
G01X76911Y41040D01*
G01X76905Y40988D01*
G01X76894Y40936D01*
G01X76881Y40883D01*
G01X76865Y40831D01*
G01X76846Y40779D01*
G01X76823Y40728D01*
G01X76797Y40677D01*
G01X76769Y40626D01*
G01X76738Y40577D01*
G01X76703Y40528D01*
G01X76667Y40480D01*
G01X76627Y40434D01*
G01X76584Y40389D01*
G01X76539Y40345D01*
G01X76491Y40304D01*
G01X76440Y40264D01*
G01X76387Y40226D01*
G01X76313Y40179D01*
G01X76244Y40141D01*
G01X76181Y40112D01*
G01X76126Y40094D01*
G01X76081Y40086D01*
G01X76047Y40088D01*
G01X76025Y40102D01*
G01X76017Y40128D01*
G01X76020Y40139D01*
G01X76027Y40162D01*
G01X76039Y40194D01*
G01X76056Y40236D01*
G01X76076Y40286D01*
G01X76099Y40344D01*
G01X76127Y40409D01*
G01X76156Y40480D01*
G01X76189Y40556D01*
G01X76223Y40636D01*
G01X76260Y40720D01*
G01X76298Y40806D01*
G01X76336Y40893D01*
G01X76372Y40976D01*
G01X76407Y41056D01*
G01X76439Y41131D01*
G01X76469Y41201D01*
G01X76496Y41265D01*
G01X76520Y41323D01*
G01X76540Y41372D01*
G01X76556Y41413D01*
G01X76568Y41445D01*
G01X76576Y41466D01*
G01X76578Y41476D01*
G01X76560Y41490D01*
G01X76509Y41500D01*
G01X76434Y41508D01*
G01X76343Y41510D01*
G01X76223Y41507D01*
G01X76144Y41494D01*
G01X76093Y41467D01*
G01X76060Y41423D01*
G01X76032Y41376D01*
G01X76008Y41359D01*
G01X75977Y41374D01*
G01X75926Y41419D01*
G01X75887Y41451D01*
G01X75844Y41478D01*
G01X75798Y41501D01*
G01X75748Y41518D01*
G01X75697Y41531D01*
G01X75642Y41539D01*
G01X75585Y41542D01*
G01X75525Y41541D01*
G01X75465Y41535D01*
G01X75403Y41525D01*
G01X75340Y41511D01*
G01X75276Y41492D01*
G01X75212Y41469D01*
G01X75148Y41442D01*
G01X75084Y41411D01*
G01X75020Y41376D01*
G01X74958Y41337D01*
G01X74896Y41293D01*
G01X74836Y41246D01*
G01X74778Y41195D01*
G01X74732Y41151D01*
G01X74689Y41104D01*
G01X74647Y41055D01*
G01X74608Y41004D01*
G01X74571Y40951D01*
G01X74536Y40896D01*
G01X74504Y40840D01*
G01X74474Y40783D01*
G01X74446Y40725D01*
G01X74422Y40668D01*
G01X74400Y40609D01*
G01X74381Y40551D01*
G01X74365Y40493D01*
G01X74352Y40436D01*
G01X74342Y40380D01*
G01X74335Y40324D01*
G01X74332Y40271D01*
G01X74331Y40219D01*
G01X74334Y40169D01*
G01X74341Y40122D01*
G01X74351Y40077D01*
G01X74365Y40035D01*
G01X74383Y39996D01*
G01X74404Y39961D01*
G01X74436Y39922D01*
G01X74472Y39887D01*
G01X74513Y39855D01*
G01X74559Y39828D01*
G01X74608Y39804D01*
G01X74661Y39784D01*
G01X74717Y39768D01*
G01X74775Y39757D01*
G01X74835Y39750D01*
G01X74896Y39747D01*
G01X74958Y39748D01*
G01X75021Y39754D01*
G01X75083Y39764D01*
G01X75146Y39779D01*
G01X75207Y39799D01*
G01X75267Y39823D01*
G01X75370Y39868D01*
G01X75431Y39882D01*
G01X75474Y39865D01*
G01X75520Y39817D01*
G01X75543Y39791D01*
G01X75568Y39772D01*
G01X75595Y39758D01*
G01X75629Y39749D01*
G01X75670Y39744D01*
G01X75721Y39742D01*
G01X75786Y39746D01*
G01X75866Y39751D01*
G01X75923Y39757D01*
G01X75980Y39765D01*
G01X76036Y39775D01*
G01X76091Y39787D01*
G01X76146Y39801D01*
G01X76199Y39817D01*
G01X76251Y39834D01*
G01X76303Y39854D01*
G01X76354Y39876D01*
G01X76403Y39898D01*
G01X76452Y39923D01*
G01X76499Y39949D01*
G01X76545Y39977D01*
G01X76591Y40007D01*
G01X76635Y40037D01*
G01X76678Y40069D01*
G01X76719Y40103D01*
G01X76759Y40137D01*
G01X76798Y40173D01*
G01X76836Y40210D01*
G01X76873Y40247D01*
G01X76907Y40287D01*
G01X76941Y40326D01*
G01X76973Y40367D01*
G01X77003Y40409D01*
G01X77032Y40451D01*
G01X77060Y40494D01*
G01X77085Y40538D01*
G01X77109Y40583D01*
G01X77132Y40627D01*
G01X77153Y40673D01*
G01X77172Y40719D01*
G01X77189Y40765D01*
G01X77205Y40812D01*
G01X77219Y40859D01*
G01X77230Y40906D01*
G01X77240Y40953D01*
G01X77249Y41000D01*
G01X77255Y41048D01*
G01X77259Y41095D01*
G01X77261Y41143D01*
G01X77261Y41190D01*
G01X77259Y41237D01*
G01X77255Y41283D01*
G01X77249Y41330D01*
G01X77240Y41376D01*
G01X77229Y41421D01*
G01X77217Y41467D01*
G01X77201Y41511D01*
G01X77183Y41556D01*
G01X77164Y41599D01*
G01X77141Y41642D01*
G01X77117Y41684D01*
G01X77090Y41725D01*
G01X77061Y41765D01*
G01X77029Y41804D01*
G01X76994Y41844D01*
G01X76958Y41880D01*
G01X76921Y41914D01*
G01X76883Y41946D01*
G01X76843Y41975D01*
G01X76801Y42003D01*
G01X76759Y42027D01*
G01X76714Y42050D01*
G01X76666Y42072D01*
G01X76617Y42090D01*
G01X76564Y42108D01*
G01X76509Y42123D01*
G01X76451Y42137D01*
G01X76391Y42148D01*
G01X76327Y42159D01*
G01X76259Y42167D01*
G01X76188Y42174D01*
G01X76114Y42180D01*
G01X76035Y42184D01*
G01X75953Y42187D01*
G01X75873Y42189D01*
G37*

%LPC*%
G36*
G01X75607Y41240D02*
G01X75577Y41246D01*
G01X75526Y41240D01*
G01X75477Y41230D01*
G01X75430Y41216D01*
G01X75383Y41199D01*
G01X75338Y41179D01*
G01X75294Y41154D01*
G01X75252Y41126D01*
G01X75211Y41095D01*
G01X75172Y41060D01*
G01X75133Y41022D01*
G01X75097Y40979D01*
G01X75061Y40934D01*
G01X75027Y40885D01*
G01X74995Y40833D01*
G01X74964Y40776D01*
G01X74934Y40717D01*
G01X74900Y40642D01*
G01X74872Y40574D01*
G01X74849Y40511D01*
G01X74832Y40453D01*
G01X74820Y40400D01*
G01X74815Y40351D01*
G01X74814Y40306D01*
G01X74820Y40265D01*
G01X74830Y40227D01*
G01X74846Y40192D01*
G01X74868Y40160D01*
G01X74895Y40129D01*
G01X74926Y40102D01*
G01X74959Y40080D01*
G01X74994Y40065D01*
G01X75031Y40054D01*
G01X75069Y40048D01*
G01X75108Y40048D01*
G01X75148Y40052D01*
G01X75190Y40062D01*
G01X75231Y40076D01*
G01X75273Y40094D01*
G01X75316Y40117D01*
G01X75358Y40144D01*
G01X75399Y40174D01*
G01X75441Y40209D01*
G01X75482Y40248D01*
G01X75521Y40290D01*
G01X75560Y40335D01*
G01X75598Y40384D01*
G01X75633Y40436D01*
G01X75667Y40491D01*
G01X75699Y40549D01*
G01X75729Y40610D01*
G01X75757Y40673D01*
G01X75781Y40738D01*
G01X75809Y40820D01*
G01X75828Y40886D01*
G01X75838Y40940D01*
G01X75838Y40986D01*
G01X75829Y41026D01*
G01X75809Y41063D01*
G01X75779Y41102D01*
G01X75739Y41145D01*
G01X75693Y41186D01*
G01X75647Y41219D01*
G01X75607Y41240D01*
G37*

%LPD*%
G36*
G01X80718Y39265D02*
G01X79173Y39265D01*
G01X78980Y39014D01*
G01X78946Y38970D01*
G01X78911Y38927D01*
G01X78875Y38883D01*
G01X78839Y38841D01*
G01X78802Y38799D01*
G01X78727Y38715D01*
G01X78689Y38675D01*
G01X78650Y38634D01*
G01X78610Y38594D01*
G01X78530Y38516D01*
G01X78489Y38478D01*
G01X78447Y38439D01*
G01X78404Y38402D01*
G01X78362Y38365D01*
G01X78318Y38328D01*
G01X78274Y38292D01*
G01X78230Y38257D01*
G01X78185Y38221D01*
G01X78140Y38186D01*
G01X78093Y38152D01*
G01X78047Y38118D01*
G01X78000Y38085D01*
G01X77952Y38052D01*
G01X77904Y38020D01*
G01X77855Y37988D01*
G01X77757Y37926D01*
G01X77706Y37896D01*
G01X77656Y37866D01*
G01X77605Y37837D01*
G01X77553Y37808D01*
G01X77501Y37780D01*
G01X77448Y37752D01*
G01X77395Y37725D01*
G01X77341Y37698D01*
G01X77288Y37671D01*
G01X77123Y37596D01*
G01X77066Y37571D01*
G01X77010Y37547D01*
G01X76953Y37525D01*
G01X76895Y37502D01*
G01X76838Y37479D01*
G01X76780Y37458D01*
G01X76721Y37436D01*
G01X76662Y37416D01*
G01X76542Y37376D01*
G01X76420Y37338D01*
G01X76359Y37320D01*
G01X76298Y37303D01*
G01X76235Y37285D01*
G01X76173Y37269D01*
G01X76110Y37253D01*
G01X76046Y37238D01*
G01X75982Y37222D01*
G01X75918Y37208D01*
G01X75853Y37194D01*
G01X75722Y37168D01*
G01X75590Y37144D01*
G01X75456Y37122D01*
G01X75388Y37113D01*
G01X75320Y37103D01*
G01X75252Y37094D01*
G01X75045Y37070D01*
G01X74975Y37063D01*
G01X74905Y37057D01*
G01X74692Y37042D01*
G01X74620Y37038D01*
G01X74547Y37034D01*
G01X74475Y37032D01*
G01X74404Y37030D01*
G01X74333Y37029D01*
G01X74262Y37029D01*
G01X74192Y37030D01*
G01X74123Y37032D01*
G01X73987Y37038D01*
G01X73919Y37042D01*
G01X73852Y37048D01*
G01X73786Y37054D01*
G01X73720Y37061D01*
G01X73655Y37068D01*
G01X73590Y37077D01*
G01X73527Y37087D01*
G01X73463Y37097D01*
G01X73401Y37108D01*
G01X73338Y37120D01*
G01X73216Y37146D01*
G01X73096Y37176D01*
G01X73037Y37192D01*
G01X72979Y37209D01*
G01X72921Y37227D01*
G01X72864Y37246D01*
G01X72808Y37265D01*
G01X72752Y37285D01*
G01X72696Y37307D01*
G01X72642Y37328D01*
G01X72588Y37351D01*
G01X72482Y37399D01*
G01X72430Y37424D01*
G01X72379Y37450D01*
G01X72328Y37477D01*
G01X72278Y37505D01*
G01X72228Y37534D01*
G01X72180Y37563D01*
G01X72132Y37593D01*
G01X72085Y37624D01*
G01X72038Y37656D01*
G01X71992Y37688D01*
G01X71902Y37756D01*
G01X71814Y37826D01*
G01X71730Y37900D01*
G01X71648Y37978D01*
G01X71609Y38017D01*
G01X71531Y38099D01*
G01X71493Y38141D01*
G01X71456Y38184D01*
G01X71420Y38228D01*
G01X71385Y38272D01*
G01X71350Y38318D01*
G01X71316Y38364D01*
G01X71282Y38411D01*
G01X71218Y38507D01*
G01X71186Y38556D01*
G01X71156Y38606D01*
G01X71126Y38657D01*
G01X71097Y38709D01*
G01X71057Y38781D01*
G01X71026Y38834D01*
G01X71003Y38870D01*
G01X70987Y38888D01*
G01X70977Y38891D01*
G01X70971Y38878D01*
G01X70969Y38851D01*
G01X70968Y38811D01*
G01X70969Y38777D01*
G01X70972Y38739D01*
G01X70978Y38696D01*
G01X70986Y38649D01*
G01X70996Y38599D01*
G01X71008Y38547D01*
G01X71021Y38491D01*
G01X71036Y38434D01*
G01X71053Y38375D01*
G01X71071Y38315D01*
G01X71111Y38193D01*
G01X71133Y38131D01*
G01X71155Y38070D01*
G01X71178Y38010D01*
G01X71202Y37951D01*
G01X71227Y37893D01*
G01X71252Y37837D01*
G01X71276Y37784D01*
G01X71302Y37734D01*
G01X71328Y37685D01*
G01X71357Y37635D01*
G01X71389Y37585D01*
G01X71422Y37534D01*
G01X71458Y37482D01*
G01X71496Y37431D01*
G01X71578Y37327D01*
G01X71622Y37276D01*
G01X71667Y37224D01*
G01X71714Y37173D01*
G01X71762Y37122D01*
G01X71862Y37022D01*
G01X71914Y36973D01*
G01X72020Y36877D01*
G01X72074Y36831D01*
G01X72129Y36786D01*
G01X72184Y36743D01*
G01X72296Y36659D01*
G01X72351Y36620D01*
G01X72407Y36583D01*
G01X72463Y36548D01*
G01X72519Y36514D01*
G01X72574Y36483D01*
G01X72629Y36453D01*
G01X72680Y36427D01*
G01X72781Y36378D01*
G01X72832Y36354D01*
G01X72884Y36330D01*
G01X72936Y36307D01*
G01X72988Y36285D01*
G01X73041Y36263D01*
G01X73094Y36242D01*
G01X73146Y36221D01*
G01X73200Y36201D01*
G01X73253Y36182D01*
G01X73361Y36144D01*
G01X73415Y36127D01*
G01X73470Y36110D01*
G01X73524Y36093D01*
G01X73579Y36077D01*
G01X73689Y36047D01*
G01X73745Y36032D01*
G01X73801Y36018D01*
G01X73857Y36006D01*
G01X73914Y35993D01*
G01X73970Y35981D01*
G01X74084Y35958D01*
G01X74142Y35948D01*
G01X74200Y35939D01*
G01X74257Y35929D01*
G01X74373Y35913D01*
G01X74432Y35906D01*
G01X74491Y35898D01*
G01X74550Y35892D01*
G01X74608Y35887D01*
G01X74728Y35877D01*
G01X74788Y35873D01*
G01X74908Y35867D01*
G01X74968Y35865D01*
G01X75029Y35863D01*
G01X75151Y35861D01*
G01X75212Y35861D01*
G01X75336Y35863D01*
G01X75397Y35865D01*
G01X75460Y35867D01*
G01X75522Y35871D01*
G01X75585Y35874D01*
G01X75647Y35878D01*
G01X75710Y35883D01*
G01X75774Y35888D01*
G01X75900Y35900D01*
G01X75964Y35907D01*
G01X76092Y35923D01*
G01X76221Y35941D01*
G01X76286Y35951D01*
G01X76416Y35972D01*
G01X76546Y35996D01*
G01X76613Y36009D01*
G01X76678Y36022D01*
G01X76810Y36050D01*
G01X76877Y36066D01*
G01X76943Y36081D01*
G01X77010Y36098D01*
G01X77077Y36114D01*
G01X77144Y36132D01*
G01X77211Y36149D01*
G01X77346Y36187D01*
G01X77482Y36227D01*
G01X77618Y36269D01*
G01X77686Y36291D01*
G01X77749Y36312D01*
G01X77811Y36333D01*
G01X77873Y36355D01*
G01X77934Y36376D01*
G01X78057Y36422D01*
G01X78118Y36446D01*
G01X78179Y36469D01*
G01X78359Y36544D01*
G01X78477Y36596D01*
G01X78595Y36650D01*
G01X78711Y36706D01*
G01X78769Y36735D01*
G01X78826Y36764D01*
G01X78940Y36824D01*
G01X79052Y36884D01*
G01X79107Y36915D01*
G01X79163Y36947D01*
G01X79218Y36979D01*
G01X79326Y37045D01*
G01X79434Y37112D01*
G01X79487Y37146D01*
G01X79540Y37181D01*
G01X79644Y37251D01*
G01X79696Y37287D01*
G01X79747Y37323D01*
G01X79798Y37360D01*
G01X79848Y37398D01*
G01X79898Y37435D01*
G01X79948Y37473D01*
G01X80046Y37549D01*
G01X80094Y37589D01*
G01X80189Y37668D01*
G01X80236Y37708D01*
G01X80283Y37749D01*
G01X80375Y37831D01*
G01X80420Y37873D01*
G01X80509Y37957D01*
G01X80564Y38011D01*
G01X80620Y38068D01*
G01X80677Y38127D01*
G01X80734Y38187D01*
G01X80791Y38249D01*
G01X80848Y38312D01*
G01X80904Y38375D01*
G01X81014Y38503D01*
G01X81067Y38567D01*
G01X81118Y38630D01*
G01X81168Y38691D01*
G01X81214Y38751D01*
G01X81259Y38810D01*
G01X81301Y38866D01*
G01X81339Y38919D01*
G01X81374Y38969D01*
G01X81406Y39016D01*
G01X81433Y39059D01*
G01X81456Y39098D01*
G01X81475Y39133D01*
G01X81488Y39163D01*
G01X81496Y39187D01*
G01X81499Y39207D01*
G01X81497Y39213D01*
G01X81492Y39220D01*
G01X81484Y39226D01*
G01X81470Y39231D01*
G01X81452Y39236D01*
G01X81429Y39241D01*
G01X81400Y39245D01*
G01X81365Y39248D01*
G01X81324Y39251D01*
G01X81276Y39254D01*
G01X81222Y39257D01*
G01X81159Y39259D01*
G01X81088Y39260D01*
G01X81009Y39262D01*
G01X80922Y39263D01*
G01X80825Y39264D01*
G01X80718Y39265D01*
G37*

%LPD*%
G36*
G01X57581Y46094D02*
G01X57516Y46095D01*
G01X57452Y46094D01*
G01X57387Y46092D01*
G01X57323Y46090D01*
G01X57195Y46084D01*
G01X57132Y46079D01*
G01X57070Y46074D01*
G01X57009Y46068D01*
G01X56949Y46060D01*
G01X56889Y46053D01*
G01X56832Y46044D01*
G01X56776Y46035D01*
G01X56721Y46025D01*
G01X56669Y46014D01*
G01X56618Y46003D01*
G01X56560Y45988D01*
G01X56502Y45972D01*
G01X56382Y45934D01*
G01X56322Y45913D01*
G01X56261Y45891D01*
G01X56200Y45867D01*
G01X56138Y45843D01*
G01X56076Y45817D01*
G01X56015Y45789D01*
G01X55953Y45761D01*
G01X55831Y45701D01*
G01X55771Y45670D01*
G01X55711Y45638D01*
G01X55651Y45605D01*
G01X55593Y45571D01*
G01X55536Y45537D01*
G01X55479Y45502D01*
G01X55424Y45466D01*
G01X55370Y45430D01*
G01X55317Y45394D01*
G01X55266Y45357D01*
G01X55217Y45320D01*
G01X55168Y45282D01*
G01X55123Y45245D01*
G01X55078Y45207D01*
G01X55036Y45169D01*
G01X54979Y45116D01*
G01X54928Y45070D01*
G01X54880Y45029D01*
G01X54837Y44994D01*
G01X54795Y44964D01*
G01X54755Y44938D01*
G01X54714Y44916D01*
G01X54672Y44898D01*
G01X54629Y44882D01*
G01X54581Y44869D01*
G01X54529Y44859D01*
G01X54471Y44850D01*
G01X54406Y44842D01*
G01X54334Y44835D01*
G01X54251Y44829D01*
G01X54159Y44822D01*
G01X54095Y44817D01*
G01X54031Y44811D01*
G01X53968Y44804D01*
G01X53905Y44795D01*
G01X53844Y44785D01*
G01X53782Y44775D01*
G01X53722Y44764D01*
G01X53662Y44751D01*
G01X53602Y44737D01*
G01X53543Y44722D01*
G01X53485Y44706D01*
G01X53371Y44672D01*
G01X53259Y44634D01*
G01X53204Y44613D01*
G01X53150Y44591D01*
G01X53044Y44545D01*
G01X52992Y44521D01*
G01X52940Y44496D01*
G01X52890Y44469D01*
G01X52840Y44443D01*
G01X52791Y44415D01*
G01X52695Y44357D01*
G01X52649Y44327D01*
G01X52602Y44296D01*
G01X52557Y44264D01*
G01X52513Y44231D01*
G01X52470Y44198D01*
G01X52427Y44164D01*
G01X52385Y44129D01*
G01X52344Y44093D01*
G01X52304Y44057D01*
G01X52265Y44020D01*
G01X52226Y43982D01*
G01X52189Y43944D01*
G01X52153Y43905D01*
G01X52117Y43865D01*
G01X52082Y43825D01*
G01X52049Y43784D01*
G01X52016Y43742D01*
G01X51984Y43700D01*
G01X51953Y43658D01*
G01X51923Y43614D01*
G01X51894Y43570D01*
G01X51866Y43526D01*
G01X51839Y43481D01*
G01X51813Y43436D01*
G01X51788Y43389D01*
G01X51764Y43343D01*
G01X51741Y43296D01*
G01X51719Y43249D01*
G01X51698Y43201D01*
G01X51678Y43153D01*
G01X51642Y43055D01*
G01X51626Y43005D01*
G01X51610Y42956D01*
G01X51596Y42905D01*
G01X51582Y42855D01*
G01X51570Y42803D01*
G01X51559Y42752D01*
G01X51549Y42700D01*
G01X51533Y42596D01*
G01X51526Y42543D01*
G01X51521Y42490D01*
G01X51517Y42437D01*
G01X51515Y42384D01*
G01X51513Y42330D01*
G01X51513Y42276D01*
G01X51514Y42222D01*
G01X51516Y42167D01*
G01X51519Y42113D01*
G01X51529Y42003D01*
G01X51545Y41893D01*
G01X51555Y41837D01*
G01X51566Y41782D01*
G01X51578Y41727D01*
G01X51592Y41671D01*
G01X51607Y41615D01*
G01X51623Y41560D01*
G01X51641Y41504D01*
G01X51660Y41448D01*
G01X51680Y41395D01*
G01X51702Y41341D01*
G01X51726Y41288D01*
G01X51751Y41235D01*
G01X51779Y41182D01*
G01X51809Y41129D01*
G01X51840Y41077D01*
G01X51873Y41025D01*
G01X51908Y40973D01*
G01X51945Y40922D01*
G01X51983Y40871D01*
G01X52022Y40821D01*
G01X52063Y40772D01*
G01X52106Y40722D01*
G01X52150Y40674D01*
G01X52195Y40626D01*
G01X52241Y40579D01*
G01X52289Y40533D01*
G01X52338Y40488D01*
G01X52388Y40444D01*
G01X52439Y40400D01*
G01X52492Y40358D01*
G01X52544Y40317D01*
G01X52599Y40276D01*
G01X52654Y40237D01*
G01X52710Y40199D01*
G01X52766Y40163D01*
G01X52823Y40128D01*
G01X52881Y40094D01*
G01X52940Y40061D01*
G01X52999Y40030D01*
G01X53058Y40000D01*
G01X53118Y39972D01*
G01X53179Y39945D01*
G01X53239Y39920D01*
G01X53301Y39897D01*
G01X53357Y39875D01*
G01X53410Y39852D01*
G01X53458Y39828D01*
G01X53502Y39803D01*
G01X53544Y39776D01*
G01X53582Y39746D01*
G01X53618Y39714D01*
G01X53652Y39679D01*
G01X53685Y39641D01*
G01X53716Y39599D01*
G01X53746Y39554D01*
G01X53776Y39504D01*
G01X53802Y39463D01*
G01X53831Y39421D01*
G01X53864Y39380D01*
G01X53899Y39340D01*
G01X53938Y39299D01*
G01X53980Y39259D01*
G01X54024Y39219D01*
G01X54071Y39181D01*
G01X54120Y39143D01*
G01X54171Y39105D01*
G01X54223Y39070D01*
G01X54277Y39035D01*
G01X54333Y39002D01*
G01X54390Y38970D01*
G01X54447Y38940D01*
G01X54505Y38911D01*
G01X54564Y38885D01*
G01X54624Y38861D01*
G01X54683Y38838D01*
G01X54743Y38818D01*
G01X54802Y38800D01*
G01X54860Y38785D01*
G01X54918Y38772D01*
G01X55034Y38754D01*
G01X55092Y38749D01*
G01X55150Y38745D01*
G01X55208Y38743D01*
G01X55265Y38743D01*
G01X55323Y38745D01*
G01X55380Y38748D01*
G01X55437Y38754D01*
G01X55493Y38761D01*
G01X55549Y38770D01*
G01X55604Y38781D01*
G01X55659Y38793D01*
G01X55713Y38807D01*
G01X55767Y38823D01*
G01X55820Y38840D01*
G01X55872Y38859D01*
G01X55924Y38879D01*
G01X55974Y38901D01*
G01X56074Y38949D01*
G01X56122Y38975D01*
G01X56169Y39003D01*
G01X56216Y39032D01*
G01X56261Y39062D01*
G01X56305Y39094D01*
G01X56348Y39127D01*
G01X56391Y39161D01*
G01X56471Y39233D01*
G01X56509Y39272D01*
G01X56547Y39310D01*
G01X56583Y39350D01*
G01X56617Y39391D01*
G01X56650Y39434D01*
G01X56681Y39477D01*
G01X56711Y39522D01*
G01X56740Y39567D01*
G01X56766Y39613D01*
G01X56791Y39660D01*
G01X56815Y39708D01*
G01X56837Y39757D01*
G01X56857Y39807D01*
G01X56875Y39857D01*
G01X56891Y39909D01*
G01X56906Y39960D01*
G01X56919Y40013D01*
G01X56930Y40067D01*
G01X56938Y40121D01*
G01X56985Y40454D01*
G01X58123Y41016D01*
G01X58216Y41061D01*
G01X58307Y41107D01*
G01X58397Y41151D01*
G01X58484Y41195D01*
G01X58650Y41278D01*
G01X58727Y41317D01*
G01X58802Y41355D01*
G01X58873Y41391D01*
G01X58939Y41425D01*
G01X59001Y41457D01*
G01X59058Y41486D01*
G01X59109Y41514D01*
G01X59156Y41538D01*
G01X59197Y41560D01*
G01X59231Y41579D01*
G01X59259Y41595D01*
G01X59281Y41607D01*
G01X59302Y41622D01*
G01X59304Y41639D01*
G01X59296Y41671D01*
G01X59278Y41716D01*
G01X59252Y41771D01*
G01X59219Y41835D01*
G01X59181Y41906D01*
G01X59139Y41980D01*
G01X59094Y42055D01*
G01X59048Y42131D01*
G01X59002Y42203D01*
G01X58957Y42270D01*
G01X58915Y42331D01*
G01X58877Y42381D01*
G01X58844Y42420D01*
G01X58818Y42445D01*
G01X58801Y42454D01*
G01X58793Y42452D01*
G01X58779Y42447D01*
G01X58758Y42438D01*
G01X58731Y42427D01*
G01X58697Y42412D01*
G01X58657Y42394D01*
G01X58612Y42373D01*
G01X58561Y42351D01*
G01X58505Y42325D01*
G01X58444Y42297D01*
G01X58379Y42267D01*
G01X58310Y42235D01*
G01X58237Y42200D01*
G01X58160Y42165D01*
G01X58080Y42127D01*
G01X57997Y42088D01*
G01X57912Y42047D01*
G01X57824Y42006D01*
G01X57734Y41963D01*
G01X57642Y41919D01*
G01X57495Y41849D01*
G01X57361Y41785D01*
G01X57239Y41728D01*
G01X57129Y41676D01*
G01X57031Y41631D01*
G01X56942Y41591D01*
G01X56863Y41557D01*
G01X56794Y41528D01*
G01X56732Y41504D01*
G01X56679Y41484D01*
G01X56632Y41469D01*
G01X56591Y41459D01*
G01X56556Y41451D01*
G01X56525Y41448D01*
G01X56499Y41449D01*
G01X56475Y41452D01*
G01X56455Y41459D01*
G01X56436Y41468D01*
G01X56419Y41480D01*
G01X56402Y41494D01*
G01X56364Y41528D01*
G01X56323Y41560D01*
G01X56280Y41591D01*
G01X56236Y41620D01*
G01X56190Y41647D01*
G01X56143Y41673D01*
G01X56094Y41698D01*
G01X56044Y41722D01*
G01X55993Y41744D01*
G01X55940Y41764D01*
G01X55886Y41783D01*
G01X55832Y41800D01*
G01X55776Y41816D01*
G01X55719Y41830D01*
G01X55663Y41843D01*
G01X55547Y41863D01*
G01X55488Y41871D01*
G01X55429Y41877D01*
G01X55369Y41882D01*
G01X55310Y41885D01*
G01X55250Y41886D01*
G01X55191Y41886D01*
G01X55131Y41884D01*
G01X55072Y41881D01*
G01X55013Y41875D01*
G01X54954Y41868D01*
G01X54896Y41859D01*
G01X54839Y41849D01*
G01X54781Y41837D01*
G01X54725Y41823D01*
G01X54670Y41808D01*
G01X54615Y41790D01*
G01X54562Y41771D01*
G01X54509Y41750D01*
G01X54458Y41728D01*
G01X54408Y41703D01*
G01X54356Y41673D01*
G01X54302Y41641D01*
G01X54248Y41606D01*
G01X54193Y41567D01*
G01X54139Y41527D01*
G01X54085Y41485D01*
G01X54032Y41442D01*
G01X53981Y41398D01*
G01X53931Y41352D01*
G01X53885Y41308D01*
G01X53841Y41263D01*
G01X53800Y41220D01*
G01X53764Y41178D01*
G01X53731Y41138D01*
G01X53704Y41100D01*
G01X53681Y41064D01*
G01X53665Y41032D01*
G01X53655Y41003D01*
G01X53651Y40978D01*
G01X53647Y40944D01*
G01X53633Y40922D01*
G01X53610Y40909D01*
G01X53579Y40908D01*
G01X53540Y40916D01*
G01X53494Y40935D01*
G01X53442Y40964D01*
G01X53383Y41001D01*
G01X53319Y41049D01*
G01X53249Y41105D01*
G01X53175Y41170D01*
G01X53096Y41244D01*
G01X53014Y41328D01*
G01X52976Y41372D01*
G01X52940Y41415D01*
G01X52906Y41460D01*
G01X52874Y41505D01*
G01X52844Y41550D01*
G01X52816Y41596D01*
G01X52789Y41641D01*
G01X52765Y41688D01*
G01X52743Y41735D01*
G01X52722Y41782D01*
G01X52703Y41829D01*
G01X52687Y41876D01*
G01X52671Y41924D01*
G01X52658Y41972D01*
G01X52647Y42019D01*
G01X52637Y42067D01*
G01X52629Y42115D01*
G01X52623Y42163D01*
G01X52619Y42211D01*
G01X52616Y42259D01*
G01X52615Y42306D01*
G01X52616Y42354D01*
G01X52618Y42401D01*
G01X52622Y42449D01*
G01X52628Y42495D01*
G01X52635Y42542D01*
G01X52644Y42588D01*
G01X52654Y42635D01*
G01X52666Y42680D01*
G01X52680Y42725D01*
G01X52695Y42770D01*
G01X52711Y42814D01*
G01X52729Y42858D01*
G01X52749Y42901D01*
G01X52770Y42944D01*
G01X52792Y42986D01*
G01X52816Y43027D01*
G01X52842Y43068D01*
G01X52869Y43108D01*
G01X52897Y43147D01*
G01X52926Y43185D01*
G01X52957Y43223D01*
G01X52989Y43260D01*
G01X53023Y43295D01*
G01X53058Y43331D01*
G01X53094Y43365D01*
G01X53131Y43397D01*
G01X53170Y43429D01*
G01X53210Y43460D01*
G01X53251Y43490D01*
G01X53337Y43546D01*
G01X53382Y43572D01*
G01X53428Y43597D01*
G01X53475Y43621D01*
G01X53523Y43643D01*
G01X53572Y43664D01*
G01X53622Y43684D01*
G01X53674Y43702D01*
G01X53727Y43719D01*
G01X53780Y43734D01*
G01X53835Y43748D01*
G01X53891Y43761D01*
G01X53947Y43771D01*
G01X54005Y43781D01*
G01X54063Y43788D01*
G01X54123Y43794D01*
G01X54183Y43798D01*
G01X54245Y43800D01*
G01X54307Y43800D01*
G01X54370Y43799D01*
G01X54434Y43796D01*
G01X54500Y43791D01*
G01X54565Y43785D01*
G01X54631Y43778D01*
G01X54694Y43768D01*
G01X54756Y43759D01*
G01X54814Y43748D01*
G01X54869Y43735D01*
G01X54918Y43723D01*
G01X54962Y43709D01*
G01X55000Y43695D01*
G01X55246Y43593D01*
G01X55364Y43862D01*
G01X55384Y43903D01*
G01X55406Y43944D01*
G01X55431Y43986D01*
G01X55459Y44028D01*
G01X55489Y44072D01*
G01X55522Y44115D01*
G01X55557Y44159D01*
G01X55595Y44202D01*
G01X55634Y44246D01*
G01X55675Y44290D01*
G01X55718Y44333D01*
G01X55763Y44375D01*
G01X55809Y44418D01*
G01X55857Y44460D01*
G01X55905Y44501D01*
G01X55955Y44541D01*
G01X56006Y44581D01*
G01X56057Y44619D01*
G01X56110Y44656D01*
G01X56162Y44691D01*
G01X56215Y44725D01*
G01X56268Y44758D01*
G01X56321Y44789D01*
G01X56375Y44818D01*
G01X56428Y44845D01*
G01X56481Y44870D01*
G01X56533Y44893D01*
G01X56585Y44914D01*
G01X56642Y44935D01*
G01X56699Y44954D01*
G01X56758Y44972D01*
G01X56817Y44988D01*
G01X56876Y45003D01*
G01X56936Y45017D01*
G01X56997Y45028D01*
G01X57057Y45039D01*
G01X57118Y45048D01*
G01X57179Y45056D01*
G01X57241Y45062D01*
G01X57303Y45067D01*
G01X57365Y45070D01*
G01X57427Y45072D01*
G01X57551Y45072D01*
G01X57613Y45070D01*
G01X57676Y45066D01*
G01X57738Y45061D01*
G01X57799Y45055D01*
G01X57861Y45048D01*
G01X57983Y45028D01*
G01X58044Y45017D01*
G01X58104Y45004D01*
G01X58164Y44990D01*
G01X58282Y44958D01*
G01X58398Y44920D01*
G01X58455Y44899D01*
G01X58511Y44877D01*
G01X58567Y44854D01*
G01X58621Y44830D01*
G01X58675Y44804D01*
G01X58728Y44777D01*
G01X58780Y44749D01*
G01X58831Y44719D01*
G01X58881Y44689D01*
G01X58930Y44657D01*
G01X58978Y44624D01*
G01X59024Y44590D01*
G01X59070Y44554D01*
G01X59114Y44518D01*
G01X59162Y44475D01*
G01X59210Y44428D01*
G01X59259Y44380D01*
G01X59305Y44329D01*
G01X59352Y44275D01*
G01X59397Y44221D01*
G01X59441Y44164D01*
G01X59484Y44106D01*
G01X59524Y44048D01*
G01X59564Y43988D01*
G01X59601Y43929D01*
G01X59637Y43869D01*
G01X59669Y43809D01*
G01X59700Y43750D01*
G01X59728Y43691D01*
G01X59752Y43634D01*
G01X59775Y43577D01*
G01X59794Y43523D01*
G01X59809Y43470D01*
G01X59821Y43418D01*
G01X59837Y43352D01*
G01X59856Y43299D01*
G01X59883Y43257D01*
G01X59920Y43223D01*
G01X59971Y43195D01*
G01X60041Y43171D01*
G01X60133Y43148D01*
G01X60250Y43123D01*
G01X60334Y43105D01*
G01X60411Y43087D01*
G01X60482Y43068D01*
G01X60549Y43050D01*
G01X60610Y43030D01*
G01X60667Y43009D01*
G01X60720Y42987D01*
G01X60769Y42963D01*
G01X60815Y42937D01*
G01X60858Y42910D01*
G01X60899Y42880D01*
G01X60938Y42848D01*
G01X60976Y42813D01*
G01X61012Y42776D01*
G01X61048Y42735D01*
G01X61084Y42691D01*
G01X61121Y42643D01*
G01X61154Y42593D01*
G01X61185Y42542D01*
G01X61213Y42490D01*
G01X61238Y42437D01*
G01X61261Y42384D01*
G01X61281Y42329D01*
G01X61297Y42274D01*
G01X61312Y42218D01*
G01X61323Y42163D01*
G01X61332Y42106D01*
G01X61338Y42050D01*
G01X61342Y41993D01*
G01X61342Y41937D01*
G01X61340Y41880D01*
G01X61335Y41824D01*
G01X61327Y41768D01*
G01X61317Y41713D01*
G01X61304Y41658D01*
G01X61288Y41604D01*
G01X61270Y41550D01*
G01X61249Y41498D01*
G01X61225Y41447D01*
G01X61198Y41396D01*
G01X61169Y41347D01*
G01X61137Y41299D01*
G01X61102Y41252D01*
G01X61064Y41208D01*
G01X61027Y41165D01*
G01X60989Y41126D01*
G01X60951Y41089D01*
G01X60913Y41055D01*
G01X60875Y41023D01*
G01X60836Y40993D01*
G01X60796Y40966D01*
G01X60755Y40940D01*
G01X60713Y40917D01*
G01X60669Y40896D01*
G01X60624Y40876D01*
G01X60577Y40859D01*
G01X60528Y40843D01*
G01X60476Y40830D01*
G01X60423Y40817D01*
G01X60366Y40806D01*
G01X60306Y40797D01*
G01X60243Y40789D01*
G01X60177Y40783D01*
G01X60108Y40778D01*
G01X60034Y40775D01*
G01X59958Y40772D01*
G01X59876Y40770D01*
G01X59791Y40770D01*
G01X59692Y40769D01*
G01X59598Y40767D01*
G01X59510Y40762D01*
G01X59426Y40756D01*
G01X59349Y40748D01*
G01X59276Y40738D01*
G01X59208Y40726D01*
G01X59145Y40713D01*
G01X59087Y40698D01*
G01X59033Y40680D01*
G01X58984Y40660D01*
G01X58940Y40639D01*
G01X58900Y40615D01*
G01X58863Y40589D01*
G01X58832Y40561D01*
G01X58805Y40531D01*
G01X58781Y40499D01*
G01X58761Y40464D01*
G01X58746Y40427D01*
G01X58734Y40388D01*
G01X58723Y40339D01*
G01X58716Y40293D01*
G01X58712Y40248D01*
G01X58711Y40206D01*
G01X58714Y40165D01*
G01X58720Y40126D01*
G01X58729Y40089D01*
G01X58742Y40054D01*
G01X58758Y40020D01*
G01X58778Y39989D01*
G01X58802Y39959D01*
G01X58828Y39931D01*
G01X58858Y39905D01*
G01X58892Y39880D01*
G01X58929Y39857D01*
G01X58970Y39836D01*
G01X59014Y39817D01*
G01X59062Y39800D01*
G01X59113Y39784D01*
G01X59168Y39770D01*
G01X59226Y39757D01*
G01X59289Y39747D01*
G01X59354Y39737D01*
G01X59424Y39730D01*
G01X59497Y39725D01*
G01X59574Y39721D01*
G01X59654Y39718D01*
G01X59739Y39717D01*
G01X59809Y39718D01*
G01X59880Y39720D01*
G01X59950Y39723D01*
G01X60019Y39727D01*
G01X60087Y39732D01*
G01X60154Y39738D01*
G01X60221Y39746D01*
G01X60287Y39754D01*
G01X60352Y39763D01*
G01X60416Y39775D01*
G01X60480Y39786D01*
G01X60542Y39799D01*
G01X60604Y39813D01*
G01X60665Y39828D01*
G01X60726Y39844D01*
G01X60785Y39861D01*
G01X60844Y39879D01*
G01X60902Y39898D01*
G01X60958Y39918D01*
G01X61014Y39940D01*
G01X61070Y39961D01*
G01X61124Y39985D01*
G01X61177Y40009D01*
G01X61229Y40034D01*
G01X61281Y40060D01*
G01X61331Y40087D01*
G01X61380Y40115D01*
G01X61429Y40144D01*
G01X61476Y40173D01*
G01X61523Y40204D01*
G01X61613Y40268D01*
G01X61699Y40336D01*
G01X61740Y40371D01*
G01X61780Y40407D01*
G01X61820Y40444D01*
G01X61858Y40482D01*
G01X61895Y40520D01*
G01X61931Y40560D01*
G01X61965Y40600D01*
G01X61999Y40641D01*
G01X62032Y40683D01*
G01X62063Y40725D01*
G01X62123Y40813D01*
G01X62151Y40858D01*
G01X62177Y40903D01*
G01X62203Y40950D01*
G01X62227Y40997D01*
G01X62250Y41045D01*
G01X62273Y41094D01*
G01X62293Y41143D01*
G01X62313Y41193D01*
G01X62331Y41244D01*
G01X62348Y41295D01*
G01X62363Y41347D01*
G01X62378Y41400D01*
G01X62391Y41453D01*
G01X62403Y41508D01*
G01X62413Y41562D01*
G01X62422Y41618D01*
G01X62430Y41674D01*
G01X62436Y41730D01*
G01X62441Y41788D01*
G01X62445Y41846D01*
G01X62447Y41904D01*
G01X62448Y41963D01*
G01X62447Y42024D01*
G01X62444Y42084D01*
G01X62440Y42145D01*
G01X62434Y42205D01*
G01X62426Y42264D01*
G01X62416Y42323D01*
G01X62405Y42382D01*
G01X62392Y42440D01*
G01X62377Y42498D01*
G01X62361Y42555D01*
G01X62342Y42612D01*
G01X62322Y42668D01*
G01X62301Y42723D01*
G01X62278Y42778D01*
G01X62253Y42833D01*
G01X62227Y42886D01*
G01X62199Y42939D01*
G01X62170Y42991D01*
G01X62139Y43042D01*
G01X62107Y43093D01*
G01X62073Y43143D01*
G01X62037Y43191D01*
G01X62000Y43239D01*
G01X61962Y43286D01*
G01X61923Y43333D01*
G01X61882Y43378D01*
G01X61839Y43421D01*
G01X61796Y43465D01*
G01X61750Y43507D01*
G01X61704Y43548D01*
G01X61656Y43588D01*
G01X61608Y43627D01*
G01X61557Y43664D01*
G01X61506Y43700D01*
G01X61453Y43736D01*
G01X61399Y43770D01*
G01X61345Y43802D01*
G01X61288Y43834D01*
G01X61231Y43864D01*
G01X61172Y43893D01*
G01X61095Y43930D01*
G01X61026Y43967D01*
G01X60964Y44002D01*
G01X60908Y44037D01*
G01X60858Y44073D01*
G01X60813Y44109D01*
G01X60773Y44148D01*
G01X60734Y44190D01*
G01X60699Y44234D01*
G01X60666Y44282D01*
G01X60633Y44336D01*
G01X60601Y44394D01*
G01X60576Y44439D01*
G01X60550Y44485D01*
G01X60522Y44530D01*
G01X60492Y44575D01*
G01X60461Y44620D01*
G01X60429Y44665D01*
G01X60395Y44709D01*
G01X60360Y44754D01*
G01X60323Y44798D01*
G01X60285Y44842D01*
G01X60246Y44885D01*
G01X60206Y44929D01*
G01X60164Y44972D01*
G01X60121Y45015D01*
G01X60078Y45057D01*
G01X60033Y45098D01*
G01X59987Y45139D01*
G01X59893Y45221D01*
G01X59844Y45260D01*
G01X59795Y45300D01*
G01X59745Y45338D01*
G01X59694Y45376D01*
G01X59642Y45413D01*
G01X59590Y45449D01*
G01X59537Y45485D01*
G01X59484Y45520D01*
G01X59429Y45554D01*
G01X59375Y45587D01*
G01X59320Y45620D01*
G01X59265Y45652D01*
G01X59153Y45712D01*
G01X59096Y45741D01*
G01X58982Y45795D01*
G01X58925Y45821D01*
G01X58868Y45846D01*
G01X58811Y45869D01*
G01X58753Y45892D01*
G01X58696Y45913D01*
G01X58638Y45933D01*
G01X58582Y45952D01*
G01X58524Y45970D01*
G01X58467Y45986D01*
G01X58410Y46001D01*
G01X58353Y46014D01*
G01X58297Y46026D01*
G01X58245Y46037D01*
G01X58135Y46055D01*
G01X58077Y46063D01*
G01X58019Y46069D01*
G01X57959Y46075D01*
G01X57835Y46085D01*
G01X57773Y46088D01*
G01X57709Y46091D01*
G01X57645Y46093D01*
G01X57581Y46094D01*
G37*

%LPC*%
G36*
G01X55303Y40880D02*
G01X55231Y40883D01*
G01X55161Y40882D01*
G01X55092Y40875D01*
G01X55027Y40863D01*
G01X54968Y40846D01*
G01X54915Y40823D01*
G01X54866Y40795D01*
G01X54821Y40765D01*
G01X54781Y40733D01*
G01X54745Y40699D01*
G01X54713Y40664D01*
G01X54686Y40627D01*
G01X54662Y40589D01*
G01X54643Y40551D01*
G01X54627Y40511D01*
G01X54615Y40470D01*
G01X54606Y40430D01*
G01X54602Y40389D01*
G01X54600Y40348D01*
G01X54602Y40306D01*
G01X54607Y40265D01*
G01X54616Y40225D01*
G01X54627Y40184D01*
G01X54641Y40145D01*
G01X54658Y40107D01*
G01X54678Y40069D01*
G01X54700Y40033D01*
G01X54725Y39999D01*
G01X54753Y39965D01*
G01X54783Y39934D01*
G01X54815Y39905D01*
G01X54849Y39877D01*
G01X54885Y39852D01*
G01X54923Y39829D01*
G01X54963Y39809D01*
G01X55005Y39792D01*
G01X55048Y39778D01*
G01X55093Y39766D01*
G01X55139Y39759D01*
G01X55187Y39755D01*
G01X55236Y39754D01*
G01X55286Y39757D01*
G01X55337Y39764D01*
G01X55389Y39776D01*
G01X55442Y39791D01*
G01X55495Y39812D01*
G01X55552Y39839D01*
G01X55605Y39871D01*
G01X55652Y39908D01*
G01X55695Y39948D01*
G01X55733Y39992D01*
G01X55766Y40039D01*
G01X55794Y40088D01*
G01X55817Y40140D01*
G01X55835Y40194D01*
G01X55847Y40248D01*
G01X55855Y40303D01*
G01X55856Y40359D01*
G01X55853Y40414D01*
G01X55843Y40469D01*
G01X55828Y40522D01*
G01X55807Y40575D01*
G01X55781Y40625D01*
G01X55748Y40673D01*
G01X55710Y40717D01*
G01X55665Y40758D01*
G01X55620Y40790D01*
G01X55567Y40817D01*
G01X55507Y40840D01*
G01X55443Y40858D01*
G01X55374Y40871D01*
G01X55303Y40880D01*
G37*

%LPD*%
G36*
G01X62149Y36764D02*
G01X62107Y36767D01*
G01X62065Y36762D01*
G01X62025Y36748D01*
G01X61990Y36725D01*
G01X61963Y36693D01*
G01X61953Y36655D01*
G01X61960Y36609D01*
G01X61982Y36560D01*
G01X62018Y36514D01*
G01X62074Y36464D01*
G01X62117Y36448D01*
G01X62158Y36465D01*
G01X62208Y36518D01*
G01X62238Y36564D01*
G01X62256Y36614D01*
G01X62260Y36660D01*
G01X62250Y36697D01*
G01X62223Y36728D01*
G01X62188Y36750D01*
G01X62149Y36764D01*
G37*

%LPD*%
G36*
G01X62247Y37811D02*
G01X62227Y37812D01*
G01X62208Y37811D01*
G01X62190Y37808D01*
G01X62172Y37801D01*
G01X62153Y37793D01*
G01X62135Y37781D01*
G01X62115Y37765D01*
G01X62095Y37746D01*
G01X62074Y37722D01*
G01X62052Y37693D01*
G01X62028Y37659D01*
G01X62001Y37620D01*
G01X61973Y37574D01*
G01X61943Y37523D01*
G01X61910Y37464D01*
G01X61874Y37399D01*
G01X61835Y37325D01*
G01X61792Y37244D01*
G01X61745Y37155D01*
G01X61695Y37057D01*
G01X61640Y36951D01*
G01X61581Y36834D01*
G01X61517Y36708D01*
G01X61426Y36526D01*
G01X61382Y36437D01*
G01X61338Y36351D01*
G01X61297Y36266D01*
G01X61257Y36185D01*
G01X61219Y36107D01*
G01X61183Y36032D01*
G01X61148Y35960D01*
G01X61116Y35893D01*
G01X61087Y35830D01*
G01X61060Y35772D01*
G01X61035Y35719D01*
G01X61013Y35671D01*
G01X60995Y35629D01*
G01X60979Y35592D01*
G01X60966Y35562D01*
G01X60957Y35538D01*
G01X60951Y35521D01*
G01X60950Y35511D01*
G01X60967Y35482D01*
G01X61012Y35459D01*
G01X61079Y35442D01*
G01X61161Y35437D01*
G01X61221Y35439D01*
G01X61272Y35447D01*
G01X61317Y35462D01*
G01X61355Y35484D01*
G01X61390Y35517D01*
G01X61423Y35561D01*
G01X61457Y35616D01*
G01X61491Y35685D01*
G01X61519Y35742D01*
G01X61544Y35790D01*
G01X61567Y35828D01*
G01X61590Y35859D01*
G01X61617Y35883D01*
G01X61648Y35900D01*
G01X61685Y35912D01*
G01X61731Y35918D01*
G01X61786Y35921D01*
G01X61853Y35921D01*
G01X61934Y35918D01*
G01X62030Y35913D01*
G01X62124Y35908D01*
G01X62204Y35903D01*
G01X62270Y35897D01*
G01X62323Y35889D01*
G01X62367Y35879D01*
G01X62401Y35864D01*
G01X62429Y35847D01*
G01X62450Y35823D01*
G01X62467Y35794D01*
G01X62482Y35759D01*
G01X62495Y35716D01*
G01X62509Y35665D01*
G01X62528Y35599D01*
G01X62547Y35547D01*
G01X62569Y35508D01*
G01X62595Y35478D01*
G01X62627Y35458D01*
G01X62667Y35445D01*
G01X62716Y35438D01*
G01X62776Y35437D01*
G01X62857Y35441D01*
G01X62923Y35452D01*
G01X62967Y35469D01*
G01X62982Y35489D01*
G01X62980Y35513D01*
G01X62974Y35549D01*
G01X62965Y35596D01*
G01X62953Y35653D01*
G01X62939Y35718D01*
G01X62922Y35789D01*
G01X62905Y35865D01*
G01X62885Y35945D01*
G01X62865Y36027D01*
G01X62845Y36111D01*
G01X62824Y36193D01*
G01X62803Y36274D01*
G01X62783Y36351D01*
G01X62764Y36423D01*
G01X62746Y36488D01*
G01X62729Y36546D01*
G01X62715Y36594D01*
G01X62703Y36632D01*
G01X62694Y36658D01*
G01X62687Y36670D01*
G01X62658Y36686D01*
G01X62622Y36688D01*
G01X62581Y36676D01*
G01X62538Y36652D01*
G01X62494Y36618D01*
G01X62453Y36576D01*
G01X62416Y36526D01*
G01X62387Y36470D01*
G01X62359Y36419D01*
G01X62323Y36375D01*
G01X62283Y36341D01*
G01X62238Y36316D01*
G01X62190Y36298D01*
G01X62141Y36289D01*
G01X62090Y36287D01*
G01X62040Y36293D01*
G01X61991Y36306D01*
G01X61945Y36327D01*
G01X61903Y36354D01*
G01X61866Y36388D01*
G01X61835Y36428D01*
G01X61812Y36475D01*
G01X61798Y36527D01*
G01X61793Y36585D01*
G01X61796Y36644D01*
G01X61803Y36697D01*
G01X61815Y36743D01*
G01X61832Y36784D01*
G01X61854Y36820D01*
G01X61881Y36850D01*
G01X61913Y36876D01*
G01X61950Y36896D01*
G01X61992Y36910D01*
G01X62041Y36921D01*
G01X62094Y36926D01*
G01X62154Y36926D01*
G01X62254Y36930D01*
G01X62354Y36946D01*
G01X62442Y36973D01*
G01X62507Y37006D01*
G01X62542Y37035D01*
G01X62567Y37064D01*
G01X62584Y37098D01*
G01X62591Y37138D01*
G01X62590Y37189D01*
G01X62581Y37255D01*
G01X62563Y37338D01*
G01X62538Y37441D01*
G01X62511Y37540D01*
G01X62486Y37620D01*
G01X62461Y37682D01*
G01X62433Y37728D01*
G01X62401Y37762D01*
G01X62365Y37785D01*
G01X62320Y37800D01*
G01X62268Y37809D01*
G01X62247Y37811D01*
G37*

%LPD*%
G36*
G01X59725Y37818D02*
G01X59639Y37819D01*
G01X59574Y37815D01*
G01X59528Y37806D01*
G01X59497Y37791D01*
G01X59481Y37771D01*
G01X59476Y37745D01*
G01X59476Y37733D01*
G01X59474Y37715D01*
G01X59472Y37690D01*
G01X59469Y37658D01*
G01X59465Y37621D01*
G01X59460Y37578D01*
G01X59455Y37530D01*
G01X59449Y37477D01*
G01X59442Y37419D01*
G01X59434Y37356D01*
G01X59427Y37290D01*
G01X59418Y37220D01*
G01X59410Y37146D01*
G01X59400Y37069D01*
G01X59390Y36990D01*
G01X59380Y36907D01*
G01X59369Y36823D01*
G01X59358Y36737D01*
G01X59347Y36649D01*
G01X59336Y36559D01*
G01X59321Y36449D01*
G01X59307Y36340D01*
G01X59294Y36236D01*
G01X59281Y36135D01*
G01X59269Y36039D01*
G01X59257Y35948D01*
G01X59247Y35863D01*
G01X59237Y35784D01*
G01X59228Y35712D01*
G01X59220Y35647D01*
G01X59212Y35591D01*
G01X59206Y35542D01*
G01X59202Y35503D01*
G01X59198Y35474D01*
G01X59196Y35455D01*
G01X59195Y35447D01*
G01X59207Y35442D01*
G01X59242Y35439D01*
G01X59297Y35437D01*
G01X59457Y35437D01*
G01X59557Y35439D01*
G01X59668Y35442D01*
G01X59787Y35447D01*
G01X59896Y35452D01*
G01X59995Y35459D01*
G01X60083Y35466D01*
G01X60162Y35474D01*
G01X60233Y35484D01*
G01X60296Y35497D01*
G01X60352Y35510D01*
G01X60404Y35527D01*
G01X60450Y35545D01*
G01X60493Y35566D01*
G01X60533Y35590D01*
G01X60572Y35617D01*
G01X60623Y35656D01*
G01X60671Y35695D01*
G01X60716Y35734D01*
G01X60758Y35773D01*
G01X60796Y35813D01*
G01X60832Y35853D01*
G01X60865Y35893D01*
G01X60894Y35935D01*
G01X60921Y35978D01*
G01X60946Y36022D01*
G01X60969Y36068D01*
G01X60988Y36115D01*
G01X61006Y36165D01*
G01X61021Y36216D01*
G01X61035Y36270D01*
G01X61047Y36327D01*
G01X61057Y36387D01*
G01X61065Y36449D01*
G01X61072Y36515D01*
G01X61077Y36584D01*
G01X61080Y36657D01*
G01X61082Y36728D01*
G01X61081Y36795D01*
G01X61078Y36861D01*
G01X61072Y36924D01*
G01X61065Y36984D01*
G01X61054Y37042D01*
G01X61042Y37098D01*
G01X61027Y37152D01*
G01X61010Y37202D01*
G01X60990Y37252D01*
G01X60968Y37299D01*
G01X60943Y37343D01*
G01X60916Y37385D01*
G01X60886Y37425D01*
G01X60854Y37463D01*
G01X60819Y37499D01*
G01X60782Y37533D01*
G01X60742Y37564D01*
G01X60698Y37594D01*
G01X60653Y37622D01*
G01X60605Y37648D01*
G01X60554Y37671D01*
G01X60500Y37693D01*
G01X60444Y37713D01*
G01X60384Y37731D01*
G01X60322Y37747D01*
G01X60257Y37762D01*
G01X60189Y37774D01*
G01X60119Y37785D01*
G01X60045Y37794D01*
G01X59968Y37801D01*
G01X59834Y37812D01*
G01X59725Y37818D01*
G37*

%LPC*%
G36*
G01X60021Y37343D02*
G01X59972Y37345D01*
G01X59933Y37341D01*
G01X59906Y37331D01*
G01X59895Y37314D01*
G01X59893Y37305D01*
G01X59891Y37284D01*
G01X59887Y37253D01*
G01X59881Y37211D01*
G01X59874Y37160D01*
G01X59866Y37100D01*
G01X59858Y37033D01*
G01X59847Y36959D01*
G01X59837Y36879D01*
G01X59826Y36794D01*
G01X59814Y36705D01*
G01X59802Y36612D01*
G01X59711Y35928D01*
G01X59970Y35928D01*
G01X60032Y35930D01*
G01X60093Y35938D01*
G01X60152Y35950D01*
G01X60209Y35967D01*
G01X60263Y35987D01*
G01X60314Y36013D01*
G01X60363Y36042D01*
G01X60409Y36075D01*
G01X60452Y36112D01*
G01X60491Y36152D01*
G01X60526Y36196D01*
G01X60557Y36242D01*
G01X60585Y36292D01*
G01X60607Y36344D01*
G01X60626Y36399D01*
G01X60639Y36457D01*
G01X60651Y36532D01*
G01X60658Y36605D01*
G01X60660Y36676D01*
G01X60657Y36744D01*
G01X60649Y36810D01*
G01X60636Y36873D01*
G01X60618Y36933D01*
G01X60595Y36991D01*
G01X60568Y37046D01*
G01X60536Y37098D01*
G01X60499Y37147D01*
G01X60457Y37193D01*
G01X60423Y37219D01*
G01X60378Y37245D01*
G01X60325Y37269D01*
G01X60266Y37291D01*
G01X60203Y37310D01*
G01X60140Y37325D01*
G01X60078Y37336D01*
G01X60021Y37343D01*
G37*

%LPD*%
G36*
G01X52005Y37822D02*
G01X51272Y37822D01*
G01X51234Y37595D01*
G01X51228Y37556D01*
G01X51221Y37511D01*
G01X51213Y37461D01*
G01X51205Y37405D01*
G01X51197Y37345D01*
G01X51188Y37280D01*
G01X51178Y37211D01*
G01X51168Y37138D01*
G01X51159Y37063D01*
G01X51148Y36985D01*
G01X51138Y36905D01*
G01X51128Y36823D01*
G01X51117Y36740D01*
G01X51107Y36656D01*
G01X51096Y36573D01*
G01X51076Y36406D01*
G01X51066Y36325D01*
G01X51057Y36244D01*
G01X51047Y36166D01*
G01X51038Y36091D01*
G01X51030Y36018D01*
G01X51022Y35949D01*
G01X51015Y35885D01*
G01X51008Y35824D01*
G01X51002Y35768D01*
G01X50997Y35718D01*
G01X50993Y35673D01*
G01X50989Y35635D01*
G01X50987Y35603D01*
G01X50985Y35579D01*
G01X50985Y35562D01*
G01X50986Y35536D01*
G01X50993Y35514D01*
G01X51006Y35495D01*
G01X51026Y35480D01*
G01X51056Y35467D01*
G01X51096Y35458D01*
G01X51148Y35450D01*
G01X51216Y35444D01*
G01X51298Y35440D01*
G01X51397Y35438D01*
G01X51515Y35437D01*
G01X51783Y35437D01*
G01X51896Y35438D01*
G01X51994Y35441D01*
G01X52077Y35445D01*
G01X52147Y35451D01*
G01X52205Y35458D01*
G01X52251Y35468D01*
G01X52289Y35479D01*
G01X52318Y35493D01*
G01X52340Y35510D01*
G01X52356Y35529D01*
G01X52367Y35551D01*
G01X52383Y35605D01*
G01X52389Y35654D01*
G01X52384Y35699D01*
G01X52369Y35739D01*
G01X52343Y35776D01*
G01X52307Y35808D01*
G01X52260Y35836D01*
G01X52203Y35859D01*
G01X52134Y35879D01*
G01X52055Y35895D01*
G01X51965Y35907D01*
G01X51864Y35914D01*
G01X51460Y35935D01*
G01X51503Y36151D01*
G01X51520Y36239D01*
G01X51534Y36321D01*
G01X51543Y36387D01*
G01X51546Y36428D01*
G01X51555Y36440D01*
G01X51582Y36452D01*
G01X51623Y36462D01*
G01X51678Y36471D01*
G01X51744Y36479D01*
G01X51821Y36484D01*
G01X51905Y36488D01*
G01X51995Y36489D01*
G01X52115Y36490D01*
G01X52214Y36494D01*
G01X52295Y36502D01*
G01X52360Y36513D01*
G01X52409Y36528D01*
G01X52445Y36548D01*
G01X52471Y36573D01*
G01X52487Y36604D01*
G01X52500Y36649D01*
G01X52504Y36691D01*
G01X52498Y36730D01*
G01X52482Y36766D01*
G01X52457Y36798D01*
G01X52422Y36826D01*
G01X52377Y36851D01*
G01X52324Y36873D01*
G01X52260Y36891D01*
G01X52187Y36906D01*
G01X52106Y36917D01*
G01X52014Y36924D01*
G01X51902Y36932D01*
G01X51816Y36941D01*
G01X51750Y36953D01*
G01X51704Y36971D01*
G01X51672Y36996D01*
G01X51651Y37031D01*
G01X51638Y37077D01*
G01X51630Y37135D01*
G01X51625Y37178D01*
G01X51623Y37214D01*
G01X51625Y37244D01*
G01X51633Y37269D01*
G01X51648Y37288D01*
G01X51671Y37303D01*
G01X51705Y37315D01*
G01X51750Y37323D01*
G01X51809Y37331D01*
G01X51882Y37336D01*
G01X51971Y37341D01*
G01X52079Y37346D01*
G01X52172Y37351D01*
G01X52257Y37359D01*
G01X52335Y37370D01*
G01X52405Y37382D01*
G01X52466Y37398D01*
G01X52520Y37415D01*
G01X52565Y37435D01*
G01X52602Y37456D01*
G01X52632Y37481D01*
G01X52653Y37507D01*
G01X52665Y37536D01*
G01X52670Y37567D01*
G01X52666Y37600D01*
G01X52654Y37635D01*
G01X52633Y37672D01*
G01X52604Y37712D01*
G01X52584Y37732D01*
G01X52560Y37750D01*
G01X52530Y37765D01*
G01X52494Y37779D01*
G01X52452Y37790D01*
G01X52401Y37799D01*
G01X52342Y37807D01*
G01X52274Y37813D01*
G01X52195Y37817D01*
G01X52106Y37820D01*
G01X52005Y37822D01*
G37*

%LPD*%
G36*
G01X58446Y37822D02*
G01X57745Y37822D01*
G01X57625Y36823D01*
G01X57616Y36740D01*
G01X57606Y36658D01*
G01X57596Y36577D01*
G01X57586Y36497D01*
G01X57576Y36419D01*
G01X57567Y36342D01*
G01X57557Y36267D01*
G01X57548Y36195D01*
G01X57539Y36126D01*
G01X57530Y36059D01*
G01X57521Y35995D01*
G01X57514Y35936D01*
G01X57506Y35880D01*
G01X57498Y35829D01*
G01X57492Y35782D01*
G01X57486Y35740D01*
G01X57480Y35703D01*
G01X57475Y35672D01*
G01X57471Y35646D01*
G01X57468Y35627D01*
G01X57429Y35431D01*
G01X58112Y35451D01*
G01X58245Y35456D01*
G01X58361Y35461D01*
G01X58462Y35467D01*
G01X58548Y35474D01*
G01X58620Y35482D01*
G01X58681Y35492D01*
G01X58731Y35503D01*
G01X58773Y35517D01*
G01X58806Y35533D01*
G01X58833Y35552D01*
G01X58854Y35574D01*
G01X58872Y35599D01*
G01X58889Y35633D01*
G01X58899Y35666D01*
G01X58901Y35698D01*
G01X58895Y35729D01*
G01X58883Y35757D01*
G01X58863Y35785D01*
G01X58837Y35810D01*
G01X58805Y35833D01*
G01X58765Y35854D01*
G01X58721Y35873D01*
G01X58670Y35889D01*
G01X58614Y35903D01*
G01X58553Y35913D01*
G01X58487Y35921D01*
G01X58415Y35926D01*
G01X58340Y35928D01*
G01X58002Y35928D01*
G01X58002Y36483D01*
G01X58476Y36503D01*
G01X58581Y36509D01*
G01X58668Y36513D01*
G01X58741Y36519D01*
G01X58800Y36526D01*
G01X58847Y36535D01*
G01X58883Y36546D01*
G01X58909Y36560D01*
G01X58928Y36579D01*
G01X58939Y36601D01*
G01X58946Y36628D01*
G01X58949Y36661D01*
G01X58950Y36700D01*
G01X58948Y36755D01*
G01X58940Y36798D01*
G01X58920Y36830D01*
G01X58886Y36853D01*
G01X58831Y36869D01*
G01X58753Y36880D01*
G01X58645Y36889D01*
G01X58505Y36896D01*
G01X58381Y36903D01*
G01X58283Y36911D01*
G01X58208Y36921D01*
G01X58153Y36934D01*
G01X58118Y36950D01*
G01X58099Y36970D01*
G01X58094Y36995D01*
G01X58101Y37025D01*
G01X58117Y37074D01*
G01X58130Y37130D01*
G01X58140Y37185D01*
G01X58143Y37232D01*
G01X58148Y37257D01*
G01X58162Y37278D01*
G01X58189Y37295D01*
G01X58227Y37309D01*
G01X58279Y37319D01*
G01X58345Y37326D01*
G01X58426Y37330D01*
G01X58523Y37331D01*
G01X58637Y37333D01*
G01X58736Y37336D01*
G01X58822Y37342D01*
G01X58895Y37351D01*
G01X58956Y37364D01*
G01X59006Y37380D01*
G01X59046Y37400D01*
G01X59077Y37425D01*
G01X59099Y37455D01*
G01X59114Y37490D01*
G01X59123Y37531D01*
G01X59125Y37577D01*
G01X59124Y37614D01*
G01X59119Y37648D01*
G01X59110Y37678D01*
G01X59097Y37704D01*
G01X59078Y37728D01*
G01X59053Y37748D01*
G01X59022Y37765D01*
G01X58983Y37779D01*
G01X58936Y37791D01*
G01X58881Y37800D01*
G01X58816Y37808D01*
G01X58740Y37814D01*
G01X58654Y37818D01*
G01X58557Y37821D01*
G01X58446Y37822D01*
G37*

%LPD*%
G36*
G01X55146Y37250D02*
G01X55090Y37254D01*
G01X55034Y37250D01*
G01X54978Y37239D01*
G01X54921Y37219D01*
G01X54865Y37192D01*
G01X54807Y37158D01*
G01X54749Y37116D01*
G01X54699Y37073D01*
G01X54657Y37029D01*
G01X54622Y36983D01*
G01X54595Y36936D01*
G01X54575Y36887D01*
G01X54562Y36837D01*
G01X54558Y36786D01*
G01X54560Y36733D01*
G01X54569Y36679D01*
G01X54587Y36624D01*
G01X54611Y36568D01*
G01X54643Y36511D01*
G01X54682Y36452D01*
G01X54729Y36393D01*
G01X54783Y36332D01*
G01X54845Y36271D01*
G01X54901Y36215D01*
G01X54953Y36161D01*
G01X55001Y36109D01*
G01X55043Y36061D01*
G01X55077Y36017D01*
G01X55103Y35980D01*
G01X55120Y35951D01*
G01X55125Y35930D01*
G01X55112Y35895D01*
G01X55078Y35872D01*
G01X55027Y35861D01*
G01X54964Y35861D01*
G01X54895Y35872D01*
G01X54824Y35893D01*
G01X54758Y35924D01*
G01X54701Y35965D01*
G01X54634Y36018D01*
G01X54584Y36029D01*
G01X54535Y35991D01*
G01X54472Y35904D01*
G01X54438Y35850D01*
G01X54414Y35806D01*
G01X54402Y35769D01*
G01X54402Y35736D01*
G01X54413Y35704D01*
G01X54438Y35669D01*
G01X54475Y35628D01*
G01X54527Y35578D01*
G01X54572Y35540D01*
G01X54620Y35507D01*
G01X54671Y35479D01*
G01X54724Y35456D01*
G01X54779Y35438D01*
G01X54835Y35426D01*
G01X54891Y35417D01*
G01X54949Y35415D01*
G01X55006Y35417D01*
G01X55063Y35424D01*
G01X55119Y35437D01*
G01X55173Y35454D01*
G01X55226Y35477D01*
G01X55277Y35505D01*
G01X55324Y35537D01*
G01X55369Y35575D01*
G01X55414Y35621D01*
G01X55452Y35666D01*
G01X55483Y35713D01*
G01X55508Y35760D01*
G01X55526Y35809D01*
G01X55538Y35858D01*
G01X55543Y35908D01*
G01X55542Y35959D01*
G01X55534Y36012D01*
G01X55519Y36066D01*
G01X55497Y36121D01*
G01X55470Y36178D01*
G01X55435Y36236D01*
G01X55393Y36296D01*
G01X55346Y36357D01*
G01X55291Y36421D01*
G01X55230Y36490D01*
G01X55180Y36554D01*
G01X55142Y36611D01*
G01X55113Y36660D01*
G01X55096Y36702D01*
G01X55089Y36734D01*
G01X55093Y36757D01*
G01X55107Y36770D01*
G01X55133Y36773D01*
G01X55170Y36764D01*
G01X55217Y36743D01*
G01X55275Y36710D01*
G01X55328Y36677D01*
G01X55368Y36654D01*
G01X55399Y36644D01*
G01X55425Y36647D01*
G01X55448Y36664D01*
G01X55472Y36698D01*
G01X55501Y36748D01*
G01X55537Y36817D01*
G01X55558Y36863D01*
G01X55571Y36902D01*
G01X55575Y36937D01*
G01X55569Y36969D01*
G01X55552Y37001D01*
G01X55524Y37035D01*
G01X55484Y37072D01*
G01X55431Y37116D01*
G01X55373Y37158D01*
G01X55316Y37193D01*
G01X55259Y37219D01*
G01X55202Y37239D01*
G01X55146Y37250D01*
G37*

%LPD*%
G36*
G01X53388Y37238D02*
G01X53326Y37239D01*
G01X53266Y37235D01*
G01X53211Y37226D01*
G01X53160Y37212D01*
G01X53106Y37185D01*
G01X53038Y37141D01*
G01X52963Y37085D01*
G01X52890Y37024D01*
G01X52848Y36984D01*
G01X52809Y36942D01*
G01X52772Y36899D01*
G01X52738Y36854D01*
G01X52706Y36808D01*
G01X52677Y36761D01*
G01X52651Y36713D01*
G01X52627Y36664D01*
G01X52606Y36614D01*
G01X52587Y36564D01*
G01X52571Y36514D01*
G01X52558Y36462D01*
G01X52547Y36411D01*
G01X52539Y36360D01*
G01X52533Y36308D01*
G01X52530Y36258D01*
G01X52529Y36207D01*
G01X52531Y36156D01*
G01X52536Y36106D01*
G01X52543Y36057D01*
G01X52552Y36009D01*
G01X52564Y35961D01*
G01X52579Y35915D01*
G01X52596Y35870D01*
G01X52615Y35826D01*
G01X52637Y35783D01*
G01X52661Y35743D01*
G01X52688Y35703D01*
G01X52717Y35666D01*
G01X52749Y35630D01*
G01X52783Y35597D01*
G01X52819Y35566D01*
G01X52858Y35537D01*
G01X52900Y35510D01*
G01X52943Y35486D01*
G01X52989Y35465D01*
G01X53062Y35436D01*
G01X53125Y35416D01*
G01X53180Y35404D01*
G01X53232Y35400D01*
G01X53285Y35405D01*
G01X53342Y35418D01*
G01X53407Y35440D01*
G01X53482Y35470D01*
G01X53546Y35495D01*
G01X53604Y35513D01*
G01X53657Y35527D01*
G01X53705Y35534D01*
G01X53750Y35535D01*
G01X53791Y35531D01*
G01X53829Y35522D01*
G01X53864Y35506D01*
G01X53919Y35479D01*
G01X53974Y35457D01*
G01X54022Y35442D01*
G01X54057Y35437D01*
G01X54065Y35443D01*
G01X54074Y35462D01*
G01X54084Y35491D01*
G01X54094Y35531D01*
G01X54105Y35579D01*
G01X54116Y35636D01*
G01X54127Y35700D01*
G01X54139Y35769D01*
G01X54150Y35844D01*
G01X54161Y35922D01*
G01X54172Y36003D01*
G01X54182Y36085D01*
G01X54191Y36169D01*
G01X54201Y36252D01*
G01X54209Y36334D01*
G01X54216Y36413D01*
G01X54222Y36489D01*
G01X54227Y36561D01*
G01X54231Y36627D01*
G01X54233Y36686D01*
G01X54234Y36738D01*
G01X54233Y36781D01*
G01X54230Y36815D01*
G01X54225Y36838D01*
G01X54205Y36866D01*
G01X54169Y36889D01*
G01X54121Y36904D01*
G01X54066Y36910D01*
G01X54015Y36915D01*
G01X53971Y36930D01*
G01X53943Y36952D01*
G01X53932Y36978D01*
G01X53926Y37010D01*
G01X53909Y37041D01*
G01X53883Y37071D01*
G01X53848Y37100D01*
G01X53804Y37126D01*
G01X53755Y37151D01*
G01X53700Y37174D01*
G01X53642Y37193D01*
G01X53580Y37210D01*
G01X53516Y37223D01*
G01X53452Y37233D01*
G01X53388Y37238D01*
G37*

%LPC*%
G36*
G01X53484Y36824D02*
G01X53447Y36831D01*
G01X53408Y36827D01*
G01X53362Y36812D01*
G01X53305Y36787D01*
G01X53233Y36750D01*
G01X53193Y36727D01*
G01X53156Y36698D01*
G01X53121Y36664D01*
G01X53090Y36625D01*
G01X53061Y36583D01*
G01X53036Y36538D01*
G01X53015Y36490D01*
G01X52997Y36439D01*
G01X52983Y36388D01*
G01X52973Y36335D01*
G01X52967Y36283D01*
G01X52966Y36230D01*
G01X52969Y36178D01*
G01X52977Y36127D01*
G01X52990Y36078D01*
G01X53008Y36032D01*
G01X53031Y35990D01*
G01X53061Y35954D01*
G01X53096Y35923D01*
G01X53136Y35897D01*
G01X53179Y35877D01*
G01X53226Y35862D01*
G01X53275Y35852D01*
G01X53325Y35848D01*
G01X53376Y35850D01*
G01X53427Y35856D01*
G01X53477Y35869D01*
G01X53524Y35887D01*
G01X53570Y35910D01*
G01X53612Y35939D01*
G01X53650Y35974D01*
G01X53682Y36014D01*
G01X53719Y36074D01*
G01X53749Y36139D01*
G01X53770Y36206D01*
G01X53785Y36274D01*
G01X53791Y36343D01*
G01X53791Y36411D01*
G01X53782Y36476D01*
G01X53767Y36539D01*
G01X53745Y36596D01*
G01X53715Y36648D01*
G01X53679Y36693D01*
G01X53636Y36731D01*
G01X53574Y36774D01*
G01X53525Y36805D01*
G01X53484Y36824D01*
G37*

%LPD*%
G36*
G01X57323Y37186D02*
G01X57221Y37191D01*
G01X57170Y37190D01*
G01X57126Y37186D01*
G01X57087Y37180D01*
G01X57052Y37168D01*
G01X57019Y37151D01*
G01X56989Y37128D01*
G01X56958Y37097D01*
G01X56928Y37057D01*
G01X56895Y37008D01*
G01X56859Y36948D01*
G01X56819Y36877D01*
G01X56774Y36793D01*
G01X56730Y36713D01*
G01X56687Y36639D01*
G01X56645Y36572D01*
G01X56605Y36514D01*
G01X56569Y36466D01*
G01X56537Y36430D01*
G01X56512Y36408D01*
G01X56494Y36401D01*
G01X56477Y36411D01*
G01X56458Y36433D01*
G01X56435Y36469D01*
G01X56411Y36516D01*
G01X56385Y36572D01*
G01X56360Y36636D01*
G01X56334Y36707D01*
G01X56310Y36782D01*
G01X56274Y36897D01*
G01X56242Y36986D01*
G01X56211Y37053D01*
G01X56179Y37101D01*
G01X56141Y37134D01*
G01X56095Y37156D01*
G01X56038Y37169D01*
G01X55967Y37179D01*
G01X55863Y37184D01*
G01X55798Y37175D01*
G01X55769Y37150D01*
G01X55773Y37109D01*
G01X55780Y37090D01*
G01X55790Y37060D01*
G01X55802Y37019D01*
G01X55818Y36969D01*
G01X55836Y36910D01*
G01X55856Y36844D01*
G01X55877Y36772D01*
G01X55901Y36693D01*
G01X55925Y36610D01*
G01X55951Y36523D01*
G01X55977Y36432D01*
G01X56004Y36340D01*
G01X56199Y35665D01*
G01X55978Y35279D01*
G01X55933Y35201D01*
G01X55892Y35125D01*
G01X55855Y35056D01*
G01X55822Y34992D01*
G01X55795Y34938D01*
G01X55774Y34894D01*
G01X55761Y34862D01*
G01X55757Y34844D01*
G01X55775Y34828D01*
G01X55824Y34817D01*
G01X55896Y34813D01*
G01X55985Y34818D01*
G01X56011Y34821D01*
G01X56059Y34829D01*
G01X56081Y34836D01*
G01X56103Y34844D01*
G01X56124Y34855D01*
G01X56146Y34869D01*
G01X56168Y34886D01*
G01X56190Y34906D01*
G01X56213Y34930D01*
G01X56238Y34959D01*
G01X56264Y34993D01*
G01X56291Y35032D01*
G01X56320Y35077D01*
G01X56352Y35128D01*
G01X56388Y35185D01*
G01X56425Y35250D01*
G01X56466Y35321D01*
G01X56510Y35401D01*
G01X56559Y35488D01*
G01X56611Y35584D01*
G01X56668Y35689D01*
G01X56730Y35803D01*
G01X56797Y35928D01*
G01X56845Y36017D01*
G01X56892Y36105D01*
G01X56938Y36191D01*
G01X56983Y36275D01*
G01X57027Y36357D01*
G01X57069Y36436D01*
G01X57110Y36513D01*
G01X57148Y36586D01*
G01X57186Y36656D01*
G01X57221Y36722D01*
G01X57253Y36783D01*
G01X57284Y36841D01*
G01X57311Y36894D01*
G01X57336Y36941D01*
G01X57358Y36984D01*
G01X57377Y37020D01*
G01X57393Y37051D01*
G01X57405Y37074D01*
G01X57414Y37092D01*
G01X57419Y37103D01*
G01X57421Y37142D01*
G01X57390Y37169D01*
G01X57323Y37186D01*
G37*

%LPD*%
G54D10*
G01X13713Y42982D02*
G01X13713Y47554D01*
G01X8638Y47554D02*
G01X13713Y47554D01*
G01X11940Y42982D02*
G01X13713Y42982D01*
G01X8638Y42982D02*
G01X10416Y42982D01*
G01X8638Y42982D02*
G01X8638Y47554D01*
G01X18288Y43998D02*
G01X18288Y43744D01*
G01X18288Y49078D02*
G01X18288Y49332D01*
G01X18288Y43998D02*
G01X17526Y43998D01*
G01X19050Y43998D02*
G01X18288Y43998D01*
G01X19050Y49078D02*
G01X19050Y43998D01*
G01X18288Y49078D02*
G01X19050Y49078D01*
G01X17526Y49078D02*
G01X18288Y49078D01*
G01X17526Y43998D02*
G01X17526Y49078D01*
G01X32271Y42254D02*
G01X32271Y52853D01*
G01X32771Y52854D02*
G01X32771Y42253D01*
G01X27973Y42253D01*
G01X27973Y52854D01*
G01X32766Y52854D01*
G01X32771Y52854D01*
G01X13947Y37114D02*
G01X13947Y38460D01*
G01X14582Y37800D02*
G01X13337Y37800D01*
G54D26*
G01X20828Y56698D02*
G01X20828Y54183D01*
G01X15748Y54183D01*
G01X15748Y56698D01*
G01X20828Y56698D01*
G01X31496Y56698D02*
G01X31496Y54183D01*
G01X26416Y54183D01*
G01X26416Y56698D01*
G01X31496Y56698D01*
G01X2794Y47808D02*
G01X5308Y47808D01*
G01X5308Y42728D01*
G01X2794Y42728D01*
G01X2794Y47808D01*
G54D10*
G01X28528Y18424D02*
G01X28528Y28423D01*
G01X30480Y26980D02*
G01X36576Y26980D01*
G01X36576Y19868D01*
G01X30480Y19868D01*
G01X30480Y26980D01*
G01X38527Y28423D02*
G01X38527Y18424D01*
G01X38527Y28423D02*
G01X37649Y28423D01*
G01X35406Y28423D02*
G01X31649Y28423D01*
G01X29406Y28423D02*
G01X28528Y28423D01*
G01X28528Y18424D02*
G01X29406Y18424D01*
G01X31649Y18424D02*
G01X35406Y18424D01*
G01X37649Y18424D02*
G01X38527Y18424D01*
G01X28528Y3184D02*
G01X28528Y13183D01*
G01X30480Y11740D02*
G01X36576Y11740D01*
G01X36576Y4628D01*
G01X30480Y4628D01*
G01X30480Y11740D01*
G01X38527Y13183D02*
G01X38527Y3184D01*
G01X38527Y13183D02*
G01X37649Y13183D01*
G01X35406Y13183D02*
G01X31649Y13183D01*
G01X29406Y13183D02*
G01X28528Y13183D01*
G01X28528Y3184D02*
G01X29406Y3184D01*
G01X31649Y3184D02*
G01X35406Y3184D01*
G01X37649Y3184D02*
G01X38527Y3184D01*
G01X25400Y5136D02*
G01X25400Y31552D01*
G01X6070Y31552D01*
G01X6070Y5136D01*
G01X25400Y5136D01*
G01X87884Y5644D02*
G01X87884Y23424D01*
G01X87884Y23424D02*
G01X44704Y23424D01*
G01X44704Y23424D02*
G01X44704Y5644D01*
G01X44704Y5644D02*
G01X87884Y5644D01*
G01X84074Y10724D02*
G01X91694Y10724D01*
G01X91694Y18344D01*
G01X84074Y18344D01*
G01X84074Y10724D01*
G54D26*
G01X67564Y27488D02*
G01X67564Y24948D01*
G01X57404Y24948D01*
G01X57404Y27488D01*
G01X59309Y27488D01*
G54D27*
G01X67564Y27488D02*
G01X59309Y27488D01*
G54D10*
G01X26275Y52982D02*
G01X26275Y45682D01*
G01X26275Y45682D02*
G01X21476Y45682D01*
G01X21476Y52982D02*
G01X26275Y52982D01*
G01X21476Y45682D02*
G01X21476Y52982D01*
G01X21476Y37808D02*
G01X21476Y45108D01*
G01X21476Y45108D02*
G01X26275Y45108D01*
G01X26275Y37808D02*
G01X21476Y37808D01*
G01X26275Y45108D02*
G01X26275Y37808D01*
G54D26*
G01X24960Y56438D02*
G01X24960Y54777D01*
G01X24130Y55608D02*
G01X25793Y55608D01*
G01X32004Y55608D02*
G01X33667Y55608D01*
G01X44127Y50736D02*
G01X44033Y50459D01*
G01X43850Y50274D01*
G01X43573Y50182D01*
G01X43479Y50182D01*
G01X43202Y50274D01*
G01X43017Y50459D01*
G01X42926Y50736D01*
G01X42926Y50828D01*
G01X43017Y51104D01*
G01X43202Y51290D01*
G01X43479Y51381D01*
G01X43573Y51381D01*
G01X43850Y51290D01*
G01X44033Y51104D01*
G01X44127Y50736D01*
G01X44127Y50274D01*
G01X44033Y49812D01*
G01X43850Y49535D01*
G01X43573Y49443D01*
G01X43388Y49443D01*
G01X43111Y49535D01*
G01X43017Y49720D01*
G01X44737Y51381D02*
G01X45476Y49443D01*
G01X46215Y51381D02*
G01X45476Y49443D01*
G01X48247Y51381D02*
G01X48247Y49443D01*
G01X48247Y51381D02*
G01X49077Y51381D01*
G01X49354Y51290D01*
G01X49446Y51198D01*
G01X49540Y51013D01*
G01X49540Y50828D01*
G01X49446Y50642D01*
G01X49354Y50551D01*
G01X49077Y50459D01*
G01X48247Y50459D02*
G01X49077Y50459D01*
G01X49354Y50365D01*
G01X49446Y50274D01*
G01X49540Y50088D01*
G01X49540Y49812D01*
G01X49446Y49626D01*
G01X49354Y49535D01*
G01X49077Y49443D01*
G01X48247Y49443D01*
G01X51257Y50736D02*
G01X51257Y49443D01*
G01X51257Y50459D02*
G01X51071Y50642D01*
G01X50888Y50736D01*
G01X50609Y50736D01*
G01X50426Y50642D01*
G01X50241Y50459D01*
G01X50149Y50182D01*
G01X50149Y49997D01*
G01X50241Y49720D01*
G01X50426Y49535D01*
G01X50609Y49443D01*
G01X50888Y49443D01*
G01X51071Y49535D01*
G01X51257Y49720D01*
G01X52143Y51381D02*
G01X52143Y49812D01*
G01X52235Y49535D01*
G01X52420Y49443D01*
G01X52605Y49443D01*
G01X51866Y50736D02*
G01X52514Y50736D01*
G01X53492Y51381D02*
G01X53492Y49812D01*
G01X53583Y49535D01*
G01X53769Y49443D01*
G01X53954Y49443D01*
G01X53215Y50736D02*
G01X53860Y50736D01*
G01X54564Y50182D02*
G01X55671Y50182D01*
G01X55671Y50365D01*
G01X55580Y50551D01*
G01X55486Y50642D01*
G01X55303Y50736D01*
G01X55026Y50736D01*
G01X54841Y50642D01*
G01X54655Y50459D01*
G01X54564Y50182D01*
G01X54564Y49997D01*
G01X54655Y49720D01*
G01X54841Y49535D01*
G01X55026Y49443D01*
G01X55303Y49443D01*
G01X55486Y49535D01*
G01X55671Y49720D01*
G01X56281Y50736D02*
G01X56281Y49443D01*
G01X56281Y50182D02*
G01X56375Y50459D01*
G01X56558Y50642D01*
G01X56743Y50736D01*
G01X57020Y50736D01*
G01X57721Y50736D02*
G01X58277Y49443D01*
G01X58831Y50736D02*
G01X58277Y49443D01*
G01X58092Y49072D01*
G01X57906Y48887D01*
G01X57721Y48796D01*
G01X57630Y48796D01*
G54D29*
G01X91536Y25778D02*
G01X91467Y25778D01*
G01X91333Y25847D01*
G01X91264Y25915D01*
G01X91196Y26050D01*
G01X91196Y26324D01*
G01X91264Y26459D01*
G01X91333Y26527D01*
G01X91467Y26596D01*
G01X91605Y26596D01*
G01X91742Y26527D01*
G01X91945Y26390D01*
G01X92628Y25710D01*
G01X92628Y26665D01*
G01X91196Y27523D02*
G01X91264Y27317D01*
G01X91467Y27183D01*
G01X91810Y27114D01*
G01X92014Y27114D01*
G01X92354Y27183D01*
G01X92560Y27317D01*
G01X92628Y27523D01*
G01X92628Y27660D01*
G01X92560Y27863D01*
G01X92354Y28001D01*
G01X92014Y28069D01*
G01X91810Y28069D01*
G01X91467Y28001D01*
G01X91264Y27863D01*
G01X91196Y27660D01*
G01X91196Y27523D01*
G01X91536Y28587D02*
G01X91467Y28587D01*
G01X91333Y28656D01*
G01X91264Y28722D01*
G01X91196Y28859D01*
G01X91196Y29133D01*
G01X91264Y29268D01*
G01X91333Y29337D01*
G01X91467Y29405D01*
G01X91605Y29405D01*
G01X91742Y29337D01*
G01X91945Y29199D01*
G01X92628Y28519D01*
G01X92628Y29474D01*
G01X91196Y30332D02*
G01X91264Y30127D01*
G01X91467Y29992D01*
G01X91810Y29923D01*
G01X92014Y29923D01*
G01X92354Y29992D01*
G01X92560Y30127D01*
G01X92628Y30332D01*
G01X92628Y30469D01*
G01X92560Y30673D01*
G01X92354Y30810D01*
G01X92014Y30878D01*
G01X91810Y30878D01*
G01X91467Y30810D01*
G01X91264Y30673D01*
G01X91196Y30469D01*
G01X91196Y30332D01*
G01X92014Y31328D02*
G01X92014Y32555D01*
G01X91196Y33413D02*
G01X91264Y33210D01*
G01X91467Y33073D01*
G01X91810Y33004D01*
G01X92014Y33004D01*
G01X92354Y33073D01*
G01X92560Y33210D01*
G01X92628Y33413D01*
G01X92628Y33550D01*
G01X92560Y33754D01*
G01X92354Y33891D01*
G01X92014Y33959D01*
G01X91810Y33959D01*
G01X91467Y33891D01*
G01X91264Y33754D01*
G01X91196Y33550D01*
G01X91196Y33413D01*
G01X91196Y34749D02*
G01X91264Y34546D01*
G01X91401Y34478D01*
G01X91536Y34478D01*
G01X91673Y34546D01*
G01X91742Y34683D01*
G01X91810Y34955D01*
G01X91879Y35158D01*
G01X92014Y35295D01*
G01X92151Y35364D01*
G01X92354Y35364D01*
G01X92491Y35295D01*
G01X92560Y35227D01*
G01X92628Y35024D01*
G01X92628Y34749D01*
G01X92560Y34546D01*
G01X92491Y34478D01*
G01X92354Y34409D01*
G01X92151Y34409D01*
G01X92014Y34478D01*
G01X91879Y34615D01*
G01X91810Y34818D01*
G01X91742Y35092D01*
G01X91673Y35227D01*
G01X91536Y35295D01*
G01X91401Y35295D01*
G01X91264Y35227D01*
G01X91196Y35024D01*
G01X91196Y34749D01*
G01X92014Y35814D02*
G01X92014Y37040D01*
G01X91196Y37902D02*
G01X91264Y37696D01*
G01X91467Y37559D01*
G01X91810Y37493D01*
G01X92014Y37493D01*
G01X92354Y37559D01*
G01X92560Y37696D01*
G01X92628Y37902D01*
G01X92628Y38036D01*
G01X92560Y38242D01*
G01X92354Y38376D01*
G01X92014Y38445D01*
G01X91810Y38445D01*
G01X91467Y38376D01*
G01X91264Y38242D01*
G01X91196Y38036D01*
G01X91196Y37902D01*
G01X91196Y39850D02*
G01X92628Y39169D01*
G01X91196Y38895D02*
G01X91196Y39850D01*
G01X94584Y17843D02*
G01X94449Y17775D01*
G01X94312Y17637D01*
G01X94244Y17500D01*
G01X94244Y17228D01*
G01X94312Y17091D01*
G01X94449Y16957D01*
G01X94584Y16888D01*
G01X94790Y16820D01*
G01X95130Y16820D01*
G01X95336Y16888D01*
G01X95470Y16957D01*
G01X95608Y17091D01*
G01X95676Y17228D01*
G01X95676Y17500D01*
G01X95608Y17637D01*
G01X95470Y17775D01*
G01X95336Y17843D01*
G01X94721Y19111D02*
G01X95676Y19111D01*
G01X94927Y19111D02*
G01X94790Y18973D01*
G01X94721Y18839D01*
G01X94721Y18633D01*
G01X94790Y18496D01*
G01X94927Y18361D01*
G01X95130Y18293D01*
G01X95267Y18293D01*
G01X95470Y18361D01*
G01X95608Y18496D01*
G01X95676Y18633D01*
G01X95676Y18839D01*
G01X95608Y18973D01*
G01X95470Y19111D01*
G01X94721Y19560D02*
G01X95676Y19560D01*
G01X94993Y19560D02*
G01X94790Y19766D01*
G01X94721Y19901D01*
G01X94721Y20106D01*
G01X94790Y20243D01*
G01X94993Y20309D01*
G01X95676Y20309D01*
G01X94721Y21102D02*
G01X94790Y20965D01*
G01X94927Y20828D01*
G01X95130Y20762D01*
G01X95267Y20762D01*
G01X95470Y20828D01*
G01X95608Y20965D01*
G01X95676Y21102D01*
G01X95676Y21305D01*
G01X95608Y21442D01*
G01X95470Y21579D01*
G01X95267Y21646D01*
G01X95130Y21646D01*
G01X94927Y21579D01*
G01X94790Y21442D01*
G01X94721Y21305D01*
G01X94721Y21102D01*
G01X94721Y22098D02*
G01X95676Y22098D01*
G01X94993Y22098D02*
G01X94790Y22301D01*
G01X94721Y22438D01*
G01X94721Y22641D01*
G01X94790Y22778D01*
G01X94993Y22847D01*
G01X95676Y22847D01*
G01X94244Y24346D02*
G01X95676Y24346D01*
G01X94244Y24346D02*
G01X94244Y25232D01*
G01X94927Y24346D02*
G01X94927Y24892D01*
G01X95676Y24346D02*
G01X95676Y25232D01*
G01X94244Y26093D02*
G01X94312Y25956D01*
G01X94449Y25819D01*
G01X94584Y25750D01*
G01X94790Y25684D01*
G01X95130Y25684D01*
G01X95336Y25750D01*
G01X95470Y25819D01*
G01X95608Y25956D01*
G01X95676Y26093D01*
G01X95676Y26365D01*
G01X95608Y26502D01*
G01X95470Y26637D01*
G01X95336Y26705D01*
G01X95130Y26774D01*
G01X94790Y26774D01*
G01X94584Y26705D01*
G01X94449Y26637D01*
G01X94312Y26502D01*
G01X94244Y26365D01*
G01X94244Y26093D01*
G01X94449Y28178D02*
G01X94312Y28041D01*
G01X94244Y27838D01*
G01X94244Y27564D01*
G01X94312Y27361D01*
G01X94449Y27223D01*
G01X94584Y27223D01*
G01X94721Y27292D01*
G01X94790Y27361D01*
G01X94858Y27498D01*
G01X94993Y27907D01*
G01X95062Y28041D01*
G01X95130Y28110D01*
G01X95267Y28178D01*
G01X95470Y28178D01*
G01X95608Y28041D01*
G01X95676Y27838D01*
G01X95676Y27564D01*
G01X95608Y27361D01*
G01X95470Y27223D01*
G01X94244Y30157D02*
G01X95676Y30157D01*
G01X94244Y29680D02*
G01X94244Y30632D01*
G01X94244Y31084D02*
G01X94312Y31150D01*
G01X94244Y31219D01*
G01X94175Y31150D01*
G01X94244Y31084D01*
G01X94721Y31150D02*
G01X95676Y31150D01*
G01X94721Y31668D02*
G01X95676Y31668D01*
G01X94993Y31668D02*
G01X94790Y31874D01*
G01X94721Y32011D01*
G01X94721Y32214D01*
G01X94790Y32352D01*
G01X94993Y32420D01*
G01X95676Y32420D01*
G01X94993Y32420D02*
G01X94790Y32623D01*
G01X94721Y32761D01*
G01X94721Y32964D01*
G01X94790Y33101D01*
G01X94993Y33169D01*
G01X95676Y33169D01*
G01X95130Y33619D02*
G01X95130Y34437D01*
G01X94993Y34437D01*
G01X94858Y34368D01*
G01X94790Y34302D01*
G01X94721Y34165D01*
G01X94721Y33959D01*
G01X94790Y33825D01*
G01X94927Y33688D01*
G01X95130Y33619D01*
G01X95267Y33619D01*
G01X95470Y33688D01*
G01X95608Y33825D01*
G01X95676Y33959D01*
G01X95676Y34165D01*
G01X95608Y34302D01*
G01X95470Y34437D01*
G01X95062Y34887D02*
G01X95062Y36116D01*
G01X94244Y36565D02*
G01X95676Y36565D01*
G01X95676Y36565D02*
G01X95676Y37383D01*
G01X94721Y38651D02*
G01X95676Y38651D01*
G01X94927Y38651D02*
G01X94790Y38516D01*
G01X94721Y38379D01*
G01X94721Y38173D01*
G01X94790Y38039D01*
G01X94927Y37902D01*
G01X95130Y37833D01*
G01X95267Y37833D01*
G01X95470Y37902D01*
G01X95608Y38039D01*
G01X95676Y38173D01*
G01X95676Y38379D01*
G01X95608Y38516D01*
G01X95470Y38651D01*
G01X94721Y39100D02*
G01X96154Y39100D01*
G01X94927Y39100D02*
G01X94790Y39238D01*
G01X94721Y39375D01*
G01X94721Y39578D01*
G01X94790Y39715D01*
G01X94927Y39852D01*
G01X95130Y39918D01*
G01X95267Y39918D01*
G01X95470Y39852D01*
G01X95608Y39715D01*
G01X95676Y39578D01*
G01X95676Y39375D01*
G01X95608Y39238D01*
G01X95470Y39100D01*
G01X94927Y41120D02*
G01X94790Y41051D01*
G01X94721Y40848D01*
G01X94721Y40642D01*
G01X94790Y40436D01*
G01X94927Y40370D01*
G01X95062Y40436D01*
G01X95130Y40574D01*
G01X95199Y40914D01*
G01X95267Y41051D01*
G01X95402Y41120D01*
G01X95470Y41120D01*
G01X95608Y41051D01*
G01X95676Y40848D01*
G01X95676Y40642D01*
G01X95608Y40436D01*
G01X95470Y40370D01*
G01X95130Y41569D02*
G01X95130Y42387D01*
G01X94993Y42387D01*
G01X94858Y42319D01*
G01X94790Y42253D01*
G01X94721Y42115D01*
G01X94721Y41910D01*
G01X94790Y41775D01*
G01X94927Y41638D01*
G01X95130Y41569D01*
G01X95267Y41569D01*
G01X95470Y41638D01*
G01X95608Y41775D01*
G01X95676Y41910D01*
G01X95676Y42115D01*
G01X95608Y42253D01*
G01X95470Y42387D01*
G01X94244Y43888D02*
G01X95676Y43888D01*
G01X94244Y43888D02*
G01X95676Y44432D01*
G01X94244Y44978D02*
G01X95676Y44432D01*
G01X94244Y44978D02*
G01X95676Y44978D01*
G01X94721Y46248D02*
G01X95676Y46248D01*
G01X94927Y46248D02*
G01X94790Y46111D01*
G01X94721Y45974D01*
G01X94721Y45770D01*
G01X94790Y45633D01*
G01X94927Y45496D01*
G01X95130Y45428D01*
G01X95267Y45428D01*
G01X95470Y45496D01*
G01X95608Y45633D01*
G01X95676Y45770D01*
G01X95676Y45974D01*
G01X95608Y46111D01*
G01X95470Y46248D01*
G01X94244Y46698D02*
G01X95676Y46698D01*
G01X94721Y47378D02*
G01X95402Y46698D01*
G01X95130Y46969D02*
G01X95676Y47447D01*
G01X95130Y47896D02*
G01X95130Y48714D01*
G01X94993Y48714D01*
G01X94858Y48646D01*
G01X94790Y48580D01*
G01X94721Y48443D01*
G01X94721Y48237D01*
G01X94790Y48102D01*
G01X94927Y47965D01*
G01X95130Y47896D01*
G01X95267Y47896D01*
G01X95470Y47965D01*
G01X95608Y48102D01*
G01X95676Y48237D01*
G01X95676Y48443D01*
G01X95608Y48580D01*
G01X95470Y48714D01*
G01X94721Y49164D02*
G01X95676Y49164D01*
G01X95130Y49164D02*
G01X94927Y49232D01*
G01X94790Y49370D01*
G01X94721Y49507D01*
G01X94721Y49710D01*
G01X4170Y42004D02*
G01X4170Y40777D01*
G01X3556Y41391D02*
G01X4782Y41391D01*
G01X33284Y44953D02*
G01X34716Y44269D01*
G01X33284Y43998D02*
G01X33284Y44953D01*
G01X33284Y45742D02*
G01X33352Y45539D01*
G01X33489Y45471D01*
G01X33624Y45471D01*
G01X33761Y45539D01*
G01X33830Y45674D01*
G01X33898Y45948D01*
G01X33967Y46151D01*
G01X34102Y46289D01*
G01X34239Y46357D01*
G01X34442Y46357D01*
G01X34579Y46289D01*
G01X34648Y46220D01*
G01X34716Y46017D01*
G01X34716Y45742D01*
G01X34648Y45539D01*
G01X34579Y45471D01*
G01X34442Y45402D01*
G01X34239Y45402D01*
G01X34102Y45471D01*
G01X33967Y45605D01*
G01X33898Y45811D01*
G01X33830Y46083D01*
G01X33761Y46220D01*
G01X33624Y46289D01*
G01X33489Y46289D01*
G01X33352Y46220D01*
G01X33284Y46017D01*
G01X33284Y45742D01*
G01X33284Y47216D02*
G01X33352Y47010D01*
G01X33555Y46875D01*
G01X33898Y46807D01*
G01X34102Y46807D01*
G01X34442Y46875D01*
G01X34648Y47010D01*
G01X34716Y47216D01*
G01X34716Y47353D01*
G01X34648Y47556D01*
G01X34442Y47693D01*
G01X34102Y47762D01*
G01X33898Y47762D01*
G01X33555Y47693D01*
G01X33352Y47556D01*
G01X33284Y47353D01*
G01X33284Y47216D01*
G01X33284Y49029D02*
G01X33284Y48349D01*
G01X33898Y48280D01*
G01X33830Y48349D01*
G01X33761Y48552D01*
G01X33761Y48757D01*
G01X33830Y48961D01*
G01X33967Y49098D01*
G01X34170Y49166D01*
G01X34307Y49166D01*
G01X34510Y49098D01*
G01X34648Y48961D01*
G01X34716Y48757D01*
G01X34716Y48552D01*
G01X34648Y48349D01*
G01X34579Y48280D01*
G01X34442Y48211D01*
G54D30*
G01X9144Y50739D02*
G01X9144Y49649D01*
G01X9144Y50739D02*
G01X9611Y50739D01*
G01X9766Y50688D01*
G01X9819Y50635D01*
G01X9870Y50530D01*
G01X9870Y50375D01*
G01X9819Y50271D01*
G01X9766Y50221D01*
G01X9611Y50167D01*
G01X9144Y50167D01*
G01X10993Y50480D02*
G01X10942Y50584D01*
G01X10838Y50688D01*
G01X10734Y50739D01*
G01X10525Y50739D01*
G01X10421Y50688D01*
G01X10317Y50584D01*
G01X10266Y50480D01*
G01X10213Y50322D01*
G01X10213Y50063D01*
G01X10266Y49908D01*
G01X10317Y49804D01*
G01X10421Y49700D01*
G01X10525Y49649D01*
G01X10734Y49649D01*
G01X10838Y49700D01*
G01X10942Y49804D01*
G01X10993Y49908D01*
G01X11595Y50739D02*
G01X11440Y50688D01*
G01X11389Y50584D01*
G01X11389Y50480D01*
G01X11440Y50375D01*
G01X11544Y50322D01*
G01X11752Y50271D01*
G01X11907Y50221D01*
G01X12011Y50116D01*
G01X12065Y50012D01*
G01X12065Y49855D01*
G01X12011Y49751D01*
G01X11960Y49700D01*
G01X11803Y49649D01*
G01X11595Y49649D01*
G01X11440Y49700D01*
G01X11389Y49751D01*
G01X11336Y49855D01*
G01X11336Y50012D01*
G01X11389Y50116D01*
G01X11493Y50221D01*
G01X11648Y50271D01*
G01X11856Y50322D01*
G01X11960Y50375D01*
G01X12011Y50480D01*
G01X12011Y50584D01*
G01X11960Y50688D01*
G01X11803Y50739D01*
G01X11595Y50739D01*
G01X12407Y50530D02*
G01X12509Y50584D01*
G01X12666Y50739D01*
G01X12666Y49649D01*
G01X13736Y50739D02*
G01X13218Y49649D01*
G01X13009Y50739D02*
G01X13736Y50739D01*
G01X9398Y49215D02*
G01X9398Y48435D01*
G01X9448Y48280D01*
G01X9552Y48176D01*
G01X9710Y48125D01*
G01X9814Y48125D01*
G01X9969Y48176D01*
G01X10073Y48280D01*
G01X10124Y48435D01*
G01X10124Y49215D01*
G01X10520Y48956D02*
G01X10520Y49006D01*
G01X10571Y49111D01*
G01X10624Y49164D01*
G01X10728Y49215D01*
G01X10934Y49215D01*
G01X11038Y49164D01*
G01X11092Y49111D01*
G01X11142Y49006D01*
G01X11142Y48902D01*
G01X11092Y48798D01*
G01X10988Y48643D01*
G01X10467Y48125D01*
G01X11196Y48125D01*
G01X16118Y44506D02*
G01X17208Y44506D01*
G01X16118Y44506D02*
G01X16118Y44973D01*
G01X16169Y45128D01*
G01X16222Y45181D01*
G01X16327Y45232D01*
G01X16431Y45232D01*
G01X16535Y45181D01*
G01X16586Y45128D01*
G01X16637Y44973D01*
G01X16637Y44506D01*
G01X16637Y44869D02*
G01X17208Y45232D01*
G01X16327Y45575D02*
G01X16273Y45679D01*
G01X16118Y45836D01*
G01X17208Y45836D01*
G01X33274Y53025D02*
G01X33274Y52245D01*
G01X33324Y52090D01*
G01X33428Y51986D01*
G01X33586Y51935D01*
G01X33690Y51935D01*
G01X33845Y51986D01*
G01X33949Y52090D01*
G01X34000Y52245D01*
G01X34000Y53025D01*
G01X34447Y53025D02*
G01X35018Y53025D01*
G01X34709Y52608D01*
G01X34864Y52608D01*
G01X34968Y52557D01*
G01X35018Y52507D01*
G01X35072Y52349D01*
G01X35072Y52245D01*
G01X35018Y52090D01*
G01X34914Y51986D01*
G01X34759Y51935D01*
G01X34604Y51935D01*
G01X34447Y51986D01*
G01X34396Y52037D01*
G01X34343Y52141D01*
G01X21861Y35494D02*
G01X21808Y35598D01*
G01X21704Y35702D01*
G01X21602Y35753D01*
G01X21394Y35753D01*
G01X21290Y35702D01*
G01X21186Y35598D01*
G01X21132Y35494D01*
G01X21082Y35336D01*
G01X21082Y35077D01*
G01X21132Y34922D01*
G01X21186Y34818D01*
G01X21290Y34714D01*
G01X21394Y34663D01*
G01X21602Y34663D01*
G01X21704Y34714D01*
G01X21808Y34818D01*
G01X21861Y34922D01*
G01X22308Y35753D02*
G01X22880Y35753D01*
G01X22567Y35336D01*
G01X22722Y35336D01*
G01X22826Y35285D01*
G01X22880Y35235D01*
G01X22931Y35077D01*
G01X22931Y34973D01*
G01X22880Y34818D01*
G01X22776Y34714D01*
G01X22618Y34663D01*
G01X22463Y34663D01*
G01X22308Y34714D01*
G01X22255Y34765D01*
G01X22204Y34869D01*
G01X15806Y58359D02*
G01X15702Y58308D01*
G01X15598Y58204D01*
G01X15544Y58100D01*
G01X15494Y57942D01*
G01X15494Y57683D01*
G01X15544Y57528D01*
G01X15598Y57424D01*
G01X15702Y57320D01*
G01X15806Y57269D01*
G01X16014Y57269D01*
G01X16116Y57320D01*
G01X16220Y57424D01*
G01X16273Y57528D01*
G01X16324Y57683D01*
G01X16324Y57942D01*
G01X16273Y58100D01*
G01X16220Y58204D01*
G01X16116Y58308D01*
G01X16014Y58359D01*
G01X15806Y58359D01*
G01X16667Y58359D02*
G01X16667Y57269D01*
G01X16667Y58359D02*
G01X17396Y57269D01*
G01X17396Y58359D02*
G01X17396Y57269D01*
G01X17739Y56903D02*
G01X18674Y56903D01*
G01X19329Y58359D02*
G01X19225Y58308D01*
G01X19121Y58204D01*
G01X19067Y58100D01*
G01X19016Y57942D01*
G01X19016Y57683D01*
G01X19067Y57528D01*
G01X19121Y57424D01*
G01X19225Y57320D01*
G01X19329Y57269D01*
G01X19535Y57269D01*
G01X19639Y57320D01*
G01X19743Y57424D01*
G01X19796Y57528D01*
G01X19847Y57683D01*
G01X19847Y57942D01*
G01X19796Y58100D01*
G01X19743Y58204D01*
G01X19639Y58308D01*
G01X19535Y58359D01*
G01X19329Y58359D01*
G01X20190Y58359D02*
G01X20190Y57269D01*
G01X20190Y58359D02*
G01X20866Y58359D01*
G01X20190Y57841D02*
G01X20607Y57841D01*
G01X21209Y58359D02*
G01X21209Y57269D01*
G01X21209Y58359D02*
G01X21884Y58359D01*
G01X21209Y57841D02*
G01X21625Y57841D01*
G01X27432Y58105D02*
G01X27432Y57015D01*
G01X28158Y58105D02*
G01X28158Y57015D01*
G01X27432Y57587D02*
G01X28158Y57587D01*
G01X29176Y57741D02*
G01X29126Y57587D01*
G01X29022Y57482D01*
G01X28867Y57429D01*
G01X28813Y57429D01*
G01X28658Y57482D01*
G01X28554Y57587D01*
G01X28501Y57741D01*
G01X28501Y57792D01*
G01X28554Y57950D01*
G01X28658Y58054D01*
G01X28813Y58105D01*
G01X28867Y58105D01*
G01X29022Y58054D01*
G01X29126Y57950D01*
G01X29176Y57741D01*
G01X29176Y57482D01*
G01X29126Y57221D01*
G01X29022Y57066D01*
G01X28867Y57015D01*
G01X28762Y57015D01*
G01X28605Y57066D01*
G01X28554Y57170D01*
G01X29519Y58105D02*
G01X29936Y57015D01*
G01X30353Y58105D02*
G01X29936Y57015D01*
G01X1137Y41729D02*
G01X1033Y41676D01*
G01X929Y41572D01*
G01X878Y41470D01*
G01X878Y41262D01*
G01X929Y41158D01*
G01X1033Y41054D01*
G01X1137Y41000D01*
G01X1295Y40950D01*
G01X1554Y40950D01*
G01X1709Y41000D01*
G01X1813Y41054D01*
G01X1917Y41158D01*
G01X1968Y41262D01*
G01X1968Y41470D01*
G01X1917Y41572D01*
G01X1813Y41676D01*
G01X1709Y41729D01*
G01X878Y42385D02*
G01X929Y42280D01*
G01X1033Y42176D01*
G01X1137Y42123D01*
G01X1295Y42072D01*
G01X1554Y42072D01*
G01X1709Y42123D01*
G01X1813Y42176D01*
G01X1917Y42280D01*
G01X1968Y42385D01*
G01X1968Y42590D01*
G01X1917Y42694D01*
G01X1813Y42799D01*
G01X1709Y42852D01*
G01X1554Y42903D01*
G01X1295Y42903D01*
G01X1137Y42852D01*
G01X1033Y42799D01*
G01X929Y42694D01*
G01X878Y42590D01*
G01X878Y42385D01*
G01X878Y43246D02*
G01X1968Y43246D01*
G01X878Y43246D02*
G01X1968Y43972D01*
G01X878Y43972D02*
G01X1968Y43972D01*
G01X2334Y44315D02*
G01X2334Y45252D01*
G01X878Y45595D02*
G01X1968Y45595D01*
G01X878Y45595D02*
G01X878Y46271D01*
G01X1397Y45595D02*
G01X1397Y46009D01*
G01X1968Y45595D02*
G01X1968Y46271D01*
G01X878Y46924D02*
G01X929Y46819D01*
G01X1033Y46715D01*
G01X1137Y46665D01*
G01X1295Y46614D01*
G01X1554Y46614D01*
G01X1709Y46665D01*
G01X1813Y46715D01*
G01X1917Y46819D01*
G01X1968Y46924D01*
G01X1968Y47132D01*
G01X1917Y47236D01*
G01X1813Y47340D01*
G01X1709Y47391D01*
G01X1554Y47444D01*
G01X1295Y47444D01*
G01X1137Y47391D01*
G01X1033Y47340D01*
G01X929Y47236D01*
G01X878Y47132D01*
G01X878Y46924D01*
G01X1033Y48514D02*
G01X929Y48409D01*
G01X878Y48255D01*
G01X878Y48046D01*
G01X929Y47891D01*
G01X1033Y47787D01*
G01X1137Y47787D01*
G01X1242Y47838D01*
G01X1295Y47891D01*
G01X1346Y47995D01*
G01X1450Y48305D01*
G01X1501Y48409D01*
G01X1554Y48463D01*
G01X1658Y48514D01*
G01X1813Y48514D01*
G01X1917Y48409D01*
G01X1968Y48255D01*
G01X1968Y48046D01*
G01X1917Y47891D01*
G01X1813Y47787D01*
G01X31206Y31534D02*
G01X31102Y31638D01*
G01X30947Y31689D01*
G01X30739Y31689D01*
G01X30584Y31638D01*
G01X30480Y31534D01*
G01X30480Y31430D01*
G01X30530Y31325D01*
G01X30584Y31272D01*
G01X30688Y31221D01*
G01X31000Y31117D01*
G01X31102Y31066D01*
G01X31155Y31013D01*
G01X31206Y30909D01*
G01X31206Y30754D01*
G01X31102Y30650D01*
G01X30947Y30599D01*
G01X30739Y30599D01*
G01X30584Y30650D01*
G01X30480Y30754D01*
G01X31549Y30233D02*
G01X32486Y30233D01*
G01X33555Y31534D02*
G01X33451Y31638D01*
G01X33296Y31689D01*
G01X33088Y31689D01*
G01X32931Y31638D01*
G01X32829Y31534D01*
G01X32829Y31430D01*
G01X32880Y31325D01*
G01X32931Y31272D01*
G01X33035Y31221D01*
G01X33347Y31117D01*
G01X33451Y31066D01*
G01X33502Y31013D01*
G01X33555Y30909D01*
G01X33555Y30754D01*
G01X33451Y30650D01*
G01X33296Y30599D01*
G01X33088Y30599D01*
G01X32931Y30650D01*
G01X32829Y30754D01*
G01X34262Y31689D02*
G01X34262Y30599D01*
G01X33898Y31689D02*
G01X34625Y31689D01*
G01X35384Y31689D02*
G01X34968Y30599D01*
G01X35384Y31689D02*
G01X35801Y30599D01*
G01X35125Y30962D02*
G01X35643Y30962D01*
G01X36144Y31689D02*
G01X36144Y30599D01*
G01X36144Y31689D02*
G01X36611Y31689D01*
G01X36766Y31638D01*
G01X36817Y31585D01*
G01X36870Y31480D01*
G01X36870Y31376D01*
G01X36817Y31272D01*
G01X36766Y31221D01*
G01X36611Y31171D01*
G01X36144Y31171D01*
G01X36507Y31171D02*
G01X36870Y30599D01*
G01X37576Y31689D02*
G01X37576Y30599D01*
G01X37213Y31689D02*
G01X37939Y31689D01*
G01X31714Y16294D02*
G01X31610Y16398D01*
G01X31455Y16449D01*
G01X31247Y16449D01*
G01X31092Y16398D01*
G01X30988Y16294D01*
G01X30988Y16190D01*
G01X31038Y16085D01*
G01X31092Y16032D01*
G01X31196Y15981D01*
G01X31508Y15877D01*
G01X31610Y15826D01*
G01X31663Y15773D01*
G01X31714Y15669D01*
G01X31714Y15514D01*
G01X31610Y15410D01*
G01X31455Y15359D01*
G01X31247Y15359D01*
G01X31092Y15410D01*
G01X30988Y15514D01*
G01X32057Y14993D02*
G01X32994Y14993D01*
G01X34063Y16294D02*
G01X33959Y16398D01*
G01X33804Y16449D01*
G01X33596Y16449D01*
G01X33439Y16398D01*
G01X33337Y16294D01*
G01X33337Y16190D01*
G01X33388Y16085D01*
G01X33439Y16032D01*
G01X33543Y15981D01*
G01X33855Y15877D01*
G01X33959Y15826D01*
G01X34010Y15773D01*
G01X34063Y15669D01*
G01X34063Y15514D01*
G01X33959Y15410D01*
G01X33804Y15359D01*
G01X33596Y15359D01*
G01X33439Y15410D01*
G01X33337Y15514D01*
G01X34770Y16449D02*
G01X34770Y15359D01*
G01X34406Y16449D02*
G01X35133Y16449D01*
G01X35788Y16449D02*
G01X35684Y16398D01*
G01X35580Y16294D01*
G01X35529Y16190D01*
G01X35476Y16032D01*
G01X35476Y15773D01*
G01X35529Y15618D01*
G01X35580Y15514D01*
G01X35684Y15410D01*
G01X35788Y15359D01*
G01X35996Y15359D01*
G01X36101Y15410D01*
G01X36205Y15514D01*
G01X36255Y15618D01*
G01X36309Y15773D01*
G01X36309Y16032D01*
G01X36255Y16190D01*
G01X36205Y16294D01*
G01X36101Y16398D01*
G01X35996Y16449D01*
G01X35788Y16449D01*
G01X36652Y16449D02*
G01X36652Y15359D01*
G01X36652Y16449D02*
G01X37119Y16449D01*
G01X37274Y16398D01*
G01X37325Y16345D01*
G01X37378Y16240D01*
G01X37378Y16085D01*
G01X37325Y15981D01*
G01X37274Y15931D01*
G01X37119Y15877D01*
G01X36652Y15877D01*
G01X4434Y18344D02*
G01X5524Y18344D01*
G01X4434Y18344D02*
G01X4434Y19019D01*
G01X4953Y18344D02*
G01X4953Y18760D01*
G01X5524Y18344D02*
G01X5524Y19019D01*
G01X4434Y19362D02*
G01X5524Y19362D01*
G01X4434Y19362D02*
G01X5524Y20088D01*
G01X4434Y20088D02*
G01X5524Y20088D01*
G01X4693Y21211D02*
G01X4589Y21160D01*
G01X4485Y21056D01*
G01X4434Y20952D01*
G01X4434Y20744D01*
G01X4485Y20640D01*
G01X4589Y20536D01*
G01X4693Y20485D01*
G01X4851Y20431D01*
G01X5110Y20431D01*
G01X5265Y20485D01*
G01X5369Y20536D01*
G01X5473Y20640D01*
G01X5524Y20744D01*
G01X5524Y20952D01*
G01X5473Y21056D01*
G01X5369Y21160D01*
G01X5265Y21211D01*
G01X4643Y21554D02*
G01X4589Y21658D01*
G01X4434Y21813D01*
G01X5524Y21813D01*
G54D26*
G01X7477Y10470D02*
G01X9415Y10470D01*
G01X7477Y11762D02*
G01X8770Y10470D01*
G01X8308Y10932D02*
G01X9415Y11762D01*
G01X7477Y12372D02*
G01X8399Y13111D01*
G01X9415Y13111D01*
G01X7477Y13850D02*
G01X8399Y13111D01*
G01X8585Y14460D02*
G01X8585Y16121D01*
G01X7477Y17287D02*
G01X7569Y17010D01*
G01X7846Y16825D01*
G01X8308Y16731D01*
G01X8585Y16731D01*
G01X9047Y16825D01*
G01X9324Y17010D01*
G01X9415Y17287D01*
G01X9415Y17470D01*
G01X9324Y17747D01*
G01X9047Y17932D01*
G01X8585Y18026D01*
G01X8308Y18026D01*
G01X7846Y17932D01*
G01X7569Y17747D01*
G01X7477Y17470D01*
G01X7477Y17287D01*
G01X7477Y19558D02*
G01X8770Y18636D01*
G01X8770Y20020D01*
G01X7477Y19558D02*
G01X9415Y19558D01*
G01X7477Y21183D02*
G01X7569Y20906D01*
G01X7846Y20721D01*
G01X8308Y20630D01*
G01X8585Y20630D01*
G01X9047Y20721D01*
G01X9324Y20906D01*
G01X9415Y21183D01*
G01X9415Y21369D01*
G01X9324Y21646D01*
G01X9047Y21831D01*
G01X8585Y21922D01*
G01X8308Y21922D01*
G01X7846Y21831D01*
G01X7569Y21646D01*
G01X7477Y21369D01*
G01X7477Y21183D01*
G54D30*
G01X89408Y21021D02*
G01X89408Y20241D01*
G01X89458Y20086D01*
G01X89562Y19982D01*
G01X89720Y19931D01*
G01X89824Y19931D01*
G01X89979Y19982D01*
G01X90083Y20086D01*
G01X90134Y20241D01*
G01X90134Y21021D01*
G01X90477Y20812D02*
G01X90581Y20866D01*
G01X90738Y21021D01*
G01X90738Y19931D01*
G54D26*
G01X47706Y8692D02*
G01X48676Y8692D01*
G01X47706Y8692D02*
G01X47706Y9014D01*
G01X47752Y9154D01*
G01X47843Y9245D01*
G01X47937Y9291D01*
G01X48074Y9339D01*
G01X48305Y9339D01*
G01X48445Y9291D01*
G01X48536Y9245D01*
G01X48628Y9154D01*
G01X48676Y9014D01*
G01X48676Y8692D01*
G01X47891Y9644D02*
G01X47843Y9735D01*
G01X47706Y9873D01*
G01X48676Y9873D01*
G01X47520Y11011D02*
G01X48999Y10177D01*
G01X47706Y11638D02*
G01X48676Y11638D01*
G01X47706Y11315D02*
G01X47706Y11960D01*
G01X47706Y12265D02*
G01X48676Y12913D01*
G01X47706Y12913D02*
G01X48676Y12265D01*
G01X50731Y18529D02*
G01X50637Y18483D01*
G01X50546Y18389D01*
G01X50500Y18298D01*
G01X50500Y18112D01*
G01X50546Y18021D01*
G01X50637Y17927D01*
G01X50731Y17881D01*
G01X50868Y17836D01*
G01X51099Y17836D01*
G01X51239Y17881D01*
G01X51330Y17927D01*
G01X51422Y18021D01*
G01X51470Y18112D01*
G01X51470Y18298D01*
G01X51422Y18389D01*
G01X51330Y18483D01*
G01X51239Y18529D01*
G01X51099Y18529D01*
G01X51099Y18298D02*
G01X51099Y18529D01*
G01X50500Y18834D02*
G01X51470Y18834D01*
G01X50500Y18834D02*
G01X51470Y19479D01*
G01X50500Y19479D02*
G01X51470Y19479D01*
G01X50500Y19784D02*
G01X51470Y19784D01*
G01X50500Y19784D02*
G01X50500Y20109D01*
G01X50546Y20246D01*
G01X50637Y20337D01*
G01X50731Y20386D01*
G01X50868Y20431D01*
G01X51099Y20431D01*
G01X51239Y20386D01*
G01X51330Y20337D01*
G01X51422Y20246D01*
G01X51470Y20109D01*
G01X51470Y19784D01*
G01X55717Y17744D02*
G01X56550Y17744D01*
G01X56134Y17328D02*
G01X56134Y18158D01*
G01X55580Y19017D02*
G01X55580Y18557D01*
G01X55994Y18509D01*
G01X55948Y18557D01*
G01X55902Y18694D01*
G01X55902Y18834D01*
G01X55948Y18971D01*
G01X56042Y19065D01*
G01X56179Y19111D01*
G01X56273Y19111D01*
G01X56410Y19065D01*
G01X56502Y18971D01*
G01X56550Y18834D01*
G01X56550Y18694D01*
G01X56502Y18557D01*
G01X56456Y18509D01*
G01X56365Y18463D01*
G01X55580Y19415D02*
G01X56550Y19784D01*
G01X55580Y20155D02*
G01X56550Y19784D01*
G01X83809Y8438D02*
G01X84780Y8438D01*
G01X83809Y8438D02*
G01X83809Y8760D01*
G01X83858Y8900D01*
G01X83949Y8991D01*
G01X84040Y9037D01*
G01X84180Y9085D01*
G01X84411Y9085D01*
G01X84548Y9037D01*
G01X84642Y8991D01*
G01X84734Y8900D01*
G01X84780Y8760D01*
G01X84780Y8438D01*
G01X83995Y9390D02*
G01X83949Y9481D01*
G01X83809Y9619D01*
G01X84780Y9619D01*
G01X84040Y9972D02*
G01X83995Y9972D01*
G01X83903Y10017D01*
G01X83858Y10063D01*
G01X83809Y10155D01*
G01X83809Y10340D01*
G01X83858Y10431D01*
G01X83903Y10480D01*
G01X83995Y10525D01*
G01X84086Y10525D01*
G01X84180Y10480D01*
G01X84317Y10386D01*
G01X84780Y9923D01*
G01X84780Y10571D01*
G01X48214Y17836D02*
G01X49184Y18204D01*
G01X48214Y18575D02*
G01X49184Y18204D01*
G01X48214Y18879D02*
G01X49184Y18879D01*
G01X48214Y19184D02*
G01X49184Y19184D01*
G01X48214Y19184D02*
G01X49184Y19829D01*
G01X48214Y19829D02*
G01X49184Y19829D01*
G01X83555Y18598D02*
G01X84526Y18598D01*
G01X83555Y18598D02*
G01X83555Y18920D01*
G01X83604Y19060D01*
G01X83695Y19151D01*
G01X83786Y19197D01*
G01X83926Y19245D01*
G01X84157Y19245D01*
G01X84294Y19197D01*
G01X84388Y19151D01*
G01X84480Y19060D01*
G01X84526Y18920D01*
G01X84526Y18598D01*
G01X83741Y19550D02*
G01X83695Y19641D01*
G01X83555Y19779D01*
G01X84526Y19779D01*
G01X83555Y20177D02*
G01X83555Y20685D01*
G01X83926Y20409D01*
G01X83926Y20546D01*
G01X83972Y20640D01*
G01X84018Y20685D01*
G01X84157Y20731D01*
G01X84249Y20731D01*
G01X84388Y20685D01*
G01X84480Y20591D01*
G01X84526Y20454D01*
G01X84526Y20315D01*
G01X84480Y20177D01*
G01X84434Y20132D01*
G01X84340Y20083D01*
G01X55811Y9385D02*
G01X55717Y9339D01*
G01X55626Y9245D01*
G01X55580Y9154D01*
G01X55580Y8968D01*
G01X55626Y8877D01*
G01X55717Y8783D01*
G01X55811Y8737D01*
G01X55948Y8692D01*
G01X56179Y8692D01*
G01X56319Y8737D01*
G01X56410Y8783D01*
G01X56502Y8877D01*
G01X56550Y8968D01*
G01X56550Y9154D01*
G01X56502Y9245D01*
G01X56410Y9339D01*
G01X56319Y9385D01*
G01X56179Y9385D01*
G01X56179Y9154D02*
G01X56179Y9385D01*
G01X55580Y9690D02*
G01X56550Y9690D01*
G01X55580Y9690D02*
G01X56550Y10335D01*
G01X55580Y10335D02*
G01X56550Y10335D01*
G01X55580Y10640D02*
G01X56550Y10640D01*
G01X55580Y10640D02*
G01X55580Y10965D01*
G01X55626Y11102D01*
G01X55717Y11193D01*
G01X55811Y11242D01*
G01X55948Y11287D01*
G01X56179Y11287D01*
G01X56319Y11242D01*
G01X56410Y11193D01*
G01X56502Y11102D01*
G01X56550Y10965D01*
G01X56550Y10640D01*
G01X50731Y8438D02*
G01X51701Y8438D01*
G01X50731Y8438D02*
G01X50731Y8760D01*
G01X50777Y8900D01*
G01X50868Y8991D01*
G01X50962Y9037D01*
G01X51099Y9085D01*
G01X51330Y9085D01*
G01X51470Y9037D01*
G01X51562Y8991D01*
G01X51653Y8900D01*
G01X51701Y8760D01*
G01X51701Y8438D01*
G01X50731Y9667D02*
G01X50777Y9527D01*
G01X50916Y9436D01*
G01X51145Y9390D01*
G01X51285Y9390D01*
G01X51516Y9436D01*
G01X51653Y9527D01*
G01X51701Y9667D01*
G01X51701Y9758D01*
G01X51653Y9898D01*
G01X51516Y9989D01*
G01X51285Y10035D01*
G01X51145Y10035D01*
G01X50916Y9989D01*
G01X50777Y9898D01*
G01X50731Y9758D01*
G01X50731Y9667D01*
G01X50546Y11171D02*
G01X52024Y10340D01*
G01X50731Y11475D02*
G01X51701Y11475D01*
G01X50731Y11475D02*
G01X50731Y11892D01*
G01X50777Y12032D01*
G01X50822Y12077D01*
G01X50916Y12123D01*
G01X51008Y12123D01*
G01X51099Y12077D01*
G01X51145Y12032D01*
G01X51193Y11892D01*
G01X51193Y11475D01*
G01X51193Y11800D02*
G01X51701Y12123D01*
G01X50731Y12428D02*
G01X51701Y13073D01*
G01X50731Y13073D02*
G01X51701Y12428D01*
G01X53086Y8714D02*
G01X54056Y8714D01*
G01X53086Y8714D02*
G01X53086Y9131D01*
G01X53131Y9268D01*
G01X53177Y9314D01*
G01X53271Y9362D01*
G01X53362Y9362D01*
G01X53454Y9314D01*
G01X53500Y9268D01*
G01X53548Y9131D01*
G01X53548Y8714D01*
G01X53548Y9037D02*
G01X54056Y9362D01*
G01X53086Y9667D02*
G01X54056Y9667D01*
G01X53086Y9667D02*
G01X53086Y10266D01*
G01X53548Y9667D02*
G01X53548Y10035D01*
G01X54056Y9667D02*
G01X54056Y10266D01*
G01X53223Y11216D02*
G01X53131Y11125D01*
G01X53086Y10988D01*
G01X53086Y10802D01*
G01X53131Y10663D01*
G01X53223Y10571D01*
G01X53317Y10571D01*
G01X53408Y10617D01*
G01X53454Y10663D01*
G01X53500Y10757D01*
G01X53594Y11033D01*
G01X53639Y11125D01*
G01X53685Y11171D01*
G01X53779Y11216D01*
G01X53916Y11216D01*
G01X54008Y11125D01*
G01X54056Y10988D01*
G01X54056Y10802D01*
G01X54008Y10663D01*
G01X53916Y10571D01*
G01X53086Y11521D02*
G01X54056Y11521D01*
G01X53086Y11521D02*
G01X53086Y12123D01*
G01X53548Y11521D02*
G01X53548Y11892D01*
G01X54056Y11521D02*
G01X54056Y12123D01*
G01X53086Y12750D02*
G01X54056Y12750D01*
G01X53086Y12428D02*
G01X53086Y13073D01*
G01X58120Y8692D02*
G01X59090Y8692D01*
G01X58120Y8692D02*
G01X58120Y9014D01*
G01X58166Y9154D01*
G01X58257Y9245D01*
G01X58351Y9291D01*
G01X58488Y9339D01*
G01X58719Y9339D01*
G01X58859Y9291D01*
G01X58950Y9245D01*
G01X59042Y9154D01*
G01X59090Y9014D01*
G01X59090Y8692D01*
G01X58351Y9690D02*
G01X58305Y9690D01*
G01X58211Y9735D01*
G01X58166Y9781D01*
G01X58120Y9873D01*
G01X58120Y10058D01*
G01X58166Y10152D01*
G01X58211Y10198D01*
G01X58305Y10243D01*
G01X58397Y10243D01*
G01X58488Y10198D01*
G01X58628Y10104D01*
G01X59090Y9644D01*
G01X59090Y10289D01*
G01X60660Y8692D02*
G01X61630Y8692D01*
G01X60660Y8692D02*
G01X60660Y9014D01*
G01X60706Y9154D01*
G01X60797Y9245D01*
G01X60891Y9291D01*
G01X61028Y9339D01*
G01X61259Y9339D01*
G01X61399Y9291D01*
G01X61490Y9245D01*
G01X61582Y9154D01*
G01X61630Y9014D01*
G01X61630Y8692D01*
G01X60660Y9735D02*
G01X60660Y10243D01*
G01X61028Y9967D01*
G01X61028Y10104D01*
G01X61074Y10198D01*
G01X61122Y10243D01*
G01X61259Y10289D01*
G01X61353Y10289D01*
G01X61490Y10243D01*
G01X61582Y10152D01*
G01X61630Y10012D01*
G01X61630Y9873D01*
G01X61582Y9735D01*
G01X61536Y9690D01*
G01X61445Y9644D01*
G01X63200Y8646D02*
G01X64170Y8646D01*
G01X63200Y8646D02*
G01X63200Y8968D01*
G01X63246Y9108D01*
G01X63337Y9200D01*
G01X63431Y9245D01*
G01X63568Y9293D01*
G01X63799Y9293D01*
G01X63939Y9245D01*
G01X64030Y9200D01*
G01X64122Y9108D01*
G01X64170Y8968D01*
G01X64170Y8646D01*
G01X63200Y10058D02*
G01X63845Y9598D01*
G01X63845Y10289D01*
G01X63200Y10058D02*
G01X64170Y10058D01*
G01X65486Y8692D02*
G01X66456Y8692D01*
G01X65486Y8692D02*
G01X65486Y9014D01*
G01X65532Y9154D01*
G01X65623Y9245D01*
G01X65717Y9291D01*
G01X65854Y9339D01*
G01X66085Y9339D01*
G01X66225Y9291D01*
G01X66316Y9245D01*
G01X66408Y9154D01*
G01X66456Y9014D01*
G01X66456Y8692D01*
G01X65486Y10198D02*
G01X65486Y9735D01*
G01X65900Y9690D01*
G01X65854Y9735D01*
G01X65808Y9873D01*
G01X65808Y10012D01*
G01X65854Y10152D01*
G01X65948Y10243D01*
G01X66085Y10289D01*
G01X66179Y10289D01*
G01X66316Y10243D01*
G01X66408Y10152D01*
G01X66456Y10012D01*
G01X66456Y9873D01*
G01X66408Y9735D01*
G01X66362Y9690D01*
G01X66271Y9644D01*
G01X68026Y8737D02*
G01X68996Y8737D01*
G01X68026Y8737D02*
G01X68026Y9060D01*
G01X68072Y9200D01*
G01X68163Y9291D01*
G01X68257Y9337D01*
G01X68394Y9385D01*
G01X68625Y9385D01*
G01X68765Y9337D01*
G01X68856Y9291D01*
G01X68948Y9200D01*
G01X68996Y9060D01*
G01X68996Y8737D01*
G01X68163Y10243D02*
G01X68072Y10198D01*
G01X68026Y10058D01*
G01X68026Y9967D01*
G01X68072Y9827D01*
G01X68211Y9735D01*
G01X68440Y9690D01*
G01X68671Y9690D01*
G01X68856Y9735D01*
G01X68948Y9827D01*
G01X68996Y9967D01*
G01X68996Y10012D01*
G01X68948Y10149D01*
G01X68856Y10243D01*
G01X68719Y10289D01*
G01X68671Y10289D01*
G01X68534Y10243D01*
G01X68440Y10149D01*
G01X68394Y10012D01*
G01X68394Y9967D01*
G01X68440Y9827D01*
G01X68534Y9735D01*
G01X68671Y9690D01*
G01X70820Y8692D02*
G01X71790Y8692D01*
G01X70820Y8692D02*
G01X70820Y9014D01*
G01X70866Y9154D01*
G01X70957Y9245D01*
G01X71051Y9291D01*
G01X71188Y9339D01*
G01X71419Y9339D01*
G01X71559Y9291D01*
G01X71650Y9245D01*
G01X71742Y9154D01*
G01X71790Y9014D01*
G01X71790Y8692D01*
G01X70820Y10289D02*
G01X71790Y9827D01*
G01X70820Y9644D02*
G01X70820Y10289D01*
G01X73106Y8692D02*
G01X74076Y8692D01*
G01X73106Y8692D02*
G01X73106Y9014D01*
G01X73152Y9154D01*
G01X73243Y9245D01*
G01X73337Y9291D01*
G01X73474Y9339D01*
G01X73705Y9339D01*
G01X73845Y9291D01*
G01X73936Y9245D01*
G01X74028Y9154D01*
G01X74076Y9014D01*
G01X74076Y8692D01*
G01X73106Y9873D02*
G01X73152Y9735D01*
G01X73243Y9690D01*
G01X73337Y9690D01*
G01X73428Y9735D01*
G01X73474Y9827D01*
G01X73520Y10012D01*
G01X73568Y10152D01*
G01X73660Y10243D01*
G01X73751Y10289D01*
G01X73891Y10289D01*
G01X73982Y10243D01*
G01X74028Y10198D01*
G01X74076Y10058D01*
G01X74076Y9873D01*
G01X74028Y9735D01*
G01X73982Y9690D01*
G01X73891Y9644D01*
G01X73751Y9644D01*
G01X73660Y9690D01*
G01X73568Y9781D01*
G01X73520Y9921D01*
G01X73474Y10104D01*
G01X73428Y10198D01*
G01X73337Y10243D01*
G01X73243Y10243D01*
G01X73152Y10198D01*
G01X73106Y10058D01*
G01X73106Y9873D01*
G01X75646Y8737D02*
G01X76616Y8737D01*
G01X75646Y8737D02*
G01X75646Y9060D01*
G01X75692Y9200D01*
G01X75783Y9291D01*
G01X75877Y9337D01*
G01X76014Y9385D01*
G01X76245Y9385D01*
G01X76385Y9337D01*
G01X76476Y9291D01*
G01X76568Y9200D01*
G01X76616Y9060D01*
G01X76616Y8737D01*
G01X75968Y10289D02*
G01X76108Y10243D01*
G01X76200Y10149D01*
G01X76245Y10012D01*
G01X76245Y9967D01*
G01X76200Y9827D01*
G01X76108Y9735D01*
G01X75968Y9690D01*
G01X75923Y9690D01*
G01X75783Y9735D01*
G01X75692Y9827D01*
G01X75646Y9967D01*
G01X75646Y10012D01*
G01X75692Y10149D01*
G01X75783Y10243D01*
G01X75968Y10289D01*
G01X76200Y10289D01*
G01X76431Y10243D01*
G01X76568Y10149D01*
G01X76616Y10012D01*
G01X76616Y9918D01*
G01X76568Y9781D01*
G01X76476Y9735D01*
G01X78440Y8692D02*
G01X79410Y8692D01*
G01X78440Y8692D02*
G01X78440Y9014D01*
G01X78486Y9154D01*
G01X78577Y9245D01*
G01X78671Y9291D01*
G01X78808Y9339D01*
G01X79039Y9339D01*
G01X79179Y9291D01*
G01X79270Y9245D01*
G01X79362Y9154D01*
G01X79410Y9014D01*
G01X79410Y8692D01*
G01X78625Y9644D02*
G01X78577Y9735D01*
G01X78440Y9873D01*
G01X79410Y9873D01*
G01X78440Y10457D02*
G01X78486Y10317D01*
G01X78625Y10226D01*
G01X78854Y10177D01*
G01X78994Y10177D01*
G01X79225Y10226D01*
G01X79362Y10317D01*
G01X79410Y10457D01*
G01X79410Y10548D01*
G01X79362Y10685D01*
G01X79225Y10779D01*
G01X78994Y10825D01*
G01X78854Y10825D01*
G01X78625Y10779D01*
G01X78486Y10685D01*
G01X78440Y10548D01*
G01X78440Y10457D01*
G01X81015Y8854D02*
G01X81986Y8854D01*
G01X81015Y8854D02*
G01X81015Y9177D01*
G01X81064Y9316D01*
G01X81155Y9408D01*
G01X81246Y9454D01*
G01X81386Y9502D01*
G01X81617Y9502D01*
G01X81754Y9454D01*
G01X81848Y9408D01*
G01X81940Y9316D01*
G01X81986Y9177D01*
G01X81986Y8854D01*
G01X81201Y9807D02*
G01X81155Y9898D01*
G01X81015Y10035D01*
G01X81986Y10035D01*
G01X81201Y10340D02*
G01X81155Y10434D01*
G01X81015Y10571D01*
G01X81986Y10571D01*
G01X81234Y17927D02*
G01X81234Y18435D01*
G01X81602Y18158D01*
G01X81602Y18298D01*
G01X81648Y18389D01*
G01X81696Y18435D01*
G01X81833Y18483D01*
G01X81927Y18483D01*
G01X82064Y18435D01*
G01X82156Y18344D01*
G01X82204Y18204D01*
G01X82204Y18067D01*
G01X82156Y17927D01*
G01X82110Y17881D01*
G01X82019Y17836D01*
G01X81234Y18788D02*
G01X82204Y19156D01*
G01X81234Y19525D02*
G01X82204Y19156D01*
G01X81234Y19923D02*
G01X81234Y20431D01*
G01X81602Y20155D01*
G01X81602Y20292D01*
G01X81648Y20386D01*
G01X81696Y20431D01*
G01X81833Y20477D01*
G01X81927Y20477D01*
G01X82064Y20431D01*
G01X82156Y20337D01*
G01X82204Y20200D01*
G01X82204Y20061D01*
G01X82156Y19923D01*
G01X82110Y19878D01*
G01X82019Y19829D01*
G01X78694Y17442D02*
G01X79664Y17074D01*
G01X78694Y17442D02*
G01X79664Y17813D01*
G01X79339Y17213D02*
G01X79339Y17673D01*
G01X78694Y18117D02*
G01X79664Y18117D01*
G01X78694Y18117D02*
G01X78694Y18534D01*
G01X78740Y18671D01*
G01X78785Y18717D01*
G01X78879Y18763D01*
G01X78971Y18763D01*
G01X79062Y18717D01*
G01X79108Y18671D01*
G01X79156Y18534D01*
G01X79156Y18117D01*
G01X79156Y18440D02*
G01X79664Y18763D01*
G01X78694Y19067D02*
G01X79664Y19067D01*
G01X78694Y19067D02*
G01X78694Y19669D01*
G01X79156Y19067D02*
G01X79156Y19438D01*
G01X79664Y19067D02*
G01X79664Y19669D01*
G01X78694Y19974D02*
G01X79664Y19974D01*
G01X78694Y19974D02*
G01X78694Y20574D01*
G01X79156Y19974D02*
G01X79156Y20342D01*
G01X76154Y18966D02*
G01X77124Y18598D01*
G01X76154Y18966D02*
G01X77124Y19337D01*
G01X76799Y18737D02*
G01X76799Y19197D01*
G01X76154Y19918D02*
G01X76200Y19779D01*
G01X76339Y19687D01*
G01X76568Y19641D01*
G01X76708Y19641D01*
G01X76939Y19687D01*
G01X77076Y19779D01*
G01X77124Y19918D01*
G01X77124Y20010D01*
G01X77076Y20149D01*
G01X76939Y20241D01*
G01X76708Y20287D01*
G01X76568Y20287D01*
G01X76339Y20241D01*
G01X76200Y20149D01*
G01X76154Y20010D01*
G01X76154Y19918D01*
G01X73360Y18966D02*
G01X74330Y18598D01*
G01X73360Y18966D02*
G01X74330Y19337D01*
G01X74005Y18737D02*
G01X74005Y19197D01*
G01X73545Y19641D02*
G01X73497Y19733D01*
G01X73360Y19873D01*
G01X74330Y19873D01*
G01X71074Y18966D02*
G01X72044Y18598D01*
G01X71074Y18966D02*
G01X72044Y19337D01*
G01X71719Y18737D02*
G01X71719Y19197D01*
G01X71305Y19687D02*
G01X71259Y19687D01*
G01X71165Y19733D01*
G01X71120Y19779D01*
G01X71074Y19873D01*
G01X71074Y20058D01*
G01X71120Y20149D01*
G01X71165Y20195D01*
G01X71259Y20241D01*
G01X71351Y20241D01*
G01X71442Y20195D01*
G01X71582Y20104D01*
G01X72044Y19641D01*
G01X72044Y20287D01*
G01X68280Y18966D02*
G01X69250Y18598D01*
G01X68280Y18966D02*
G01X69250Y19337D01*
G01X68925Y18737D02*
G01X68925Y19197D01*
G01X68280Y19733D02*
G01X68280Y20241D01*
G01X68648Y19964D01*
G01X68648Y20104D01*
G01X68694Y20195D01*
G01X68742Y20241D01*
G01X68879Y20287D01*
G01X68973Y20287D01*
G01X69110Y20241D01*
G01X69202Y20149D01*
G01X69250Y20010D01*
G01X69250Y19873D01*
G01X69202Y19733D01*
G01X69156Y19687D01*
G01X69065Y19641D01*
G01X65740Y18966D02*
G01X66710Y18598D01*
G01X65740Y18966D02*
G01X66710Y19337D01*
G01X66385Y18737D02*
G01X66385Y19197D01*
G01X65740Y20104D02*
G01X66385Y19641D01*
G01X66385Y20335D01*
G01X65740Y20104D02*
G01X66710Y20104D01*
G01X63200Y18966D02*
G01X64170Y18598D01*
G01X63200Y18966D02*
G01X64170Y19337D01*
G01X63845Y18737D02*
G01X63845Y19197D01*
G01X63200Y20195D02*
G01X63200Y19733D01*
G01X63614Y19687D01*
G01X63568Y19733D01*
G01X63522Y19873D01*
G01X63522Y20010D01*
G01X63568Y20149D01*
G01X63662Y20241D01*
G01X63799Y20287D01*
G01X63893Y20287D01*
G01X64030Y20241D01*
G01X64122Y20149D01*
G01X64170Y20010D01*
G01X64170Y19873D01*
G01X64122Y19733D01*
G01X64076Y19687D01*
G01X63985Y19641D01*
G01X60914Y18966D02*
G01X61884Y18598D01*
G01X60914Y18966D02*
G01X61884Y19337D01*
G01X61559Y18737D02*
G01X61559Y19197D01*
G01X61051Y20195D02*
G01X60960Y20149D01*
G01X60914Y20010D01*
G01X60914Y19918D01*
G01X60960Y19779D01*
G01X61099Y19687D01*
G01X61328Y19641D01*
G01X61559Y19641D01*
G01X61744Y19687D01*
G01X61836Y19779D01*
G01X61884Y19918D01*
G01X61884Y19964D01*
G01X61836Y20104D01*
G01X61744Y20195D01*
G01X61607Y20241D01*
G01X61559Y20241D01*
G01X61422Y20195D01*
G01X61328Y20104D01*
G01X61282Y19964D01*
G01X61282Y19918D01*
G01X61328Y19779D01*
G01X61422Y19687D01*
G01X61559Y19641D01*
G01X58120Y18966D02*
G01X59090Y18598D01*
G01X58120Y18966D02*
G01X59090Y19337D01*
G01X58765Y18737D02*
G01X58765Y19197D01*
G01X58120Y20287D02*
G01X59090Y19827D01*
G01X58120Y19641D02*
G01X58120Y20287D01*
G01X53040Y16058D02*
G01X54010Y16058D01*
G01X53040Y16058D02*
G01X53040Y16474D01*
G01X53086Y16611D01*
G01X53131Y16657D01*
G01X53225Y16705D01*
G01X53317Y16705D01*
G01X53408Y16657D01*
G01X53454Y16611D01*
G01X53502Y16474D01*
G01X53502Y16058D01*
G01X53502Y16380D02*
G01X54010Y16705D01*
G01X53040Y17010D02*
G01X54010Y17010D01*
G01X53040Y17010D02*
G01X53040Y17609D01*
G01X53502Y17010D02*
G01X53502Y17378D01*
G01X54010Y17010D02*
G01X54010Y17609D01*
G01X53177Y18559D02*
G01X53086Y18468D01*
G01X53040Y18331D01*
G01X53040Y18145D01*
G01X53086Y18006D01*
G01X53177Y17914D01*
G01X53271Y17914D01*
G01X53362Y17960D01*
G01X53408Y18006D01*
G01X53454Y18100D01*
G01X53548Y18377D01*
G01X53594Y18468D01*
G01X53639Y18514D01*
G01X53733Y18559D01*
G01X53870Y18559D01*
G01X53962Y18468D01*
G01X54010Y18331D01*
G01X54010Y18145D01*
G01X53962Y18006D01*
G01X53870Y17914D01*
G01X53040Y18864D02*
G01X54010Y18864D01*
G01X53040Y18864D02*
G01X53040Y19466D01*
G01X53502Y18864D02*
G01X53502Y19235D01*
G01X54010Y18864D02*
G01X54010Y19466D01*
G01X53040Y20094D02*
G01X54010Y20094D01*
G01X53040Y19771D02*
G01X53040Y20416D01*
G54D30*
G01X68072Y26609D02*
G01X68072Y25519D01*
G01X68072Y26609D02*
G01X68435Y26609D01*
G01X68592Y26558D01*
G01X68694Y26454D01*
G01X68747Y26350D01*
G01X68798Y26192D01*
G01X68798Y25933D01*
G01X68747Y25778D01*
G01X68694Y25674D01*
G01X68592Y25570D01*
G01X68435Y25519D01*
G01X68072Y25519D01*
G01X69141Y26609D02*
G01X69141Y25519D01*
G01X70213Y26454D02*
G01X70109Y26558D01*
G01X69951Y26609D01*
G01X69745Y26609D01*
G01X69588Y26558D01*
G01X69484Y26454D01*
G01X69484Y26350D01*
G01X69537Y26245D01*
G01X69588Y26192D01*
G01X69692Y26141D01*
G01X70004Y26037D01*
G01X70109Y25986D01*
G01X70159Y25933D01*
G01X70213Y25829D01*
G01X70213Y25674D01*
G01X70109Y25570D01*
G01X69951Y25519D01*
G01X69745Y25519D01*
G01X69588Y25570D01*
G01X69484Y25674D01*
G01X70556Y26609D02*
G01X70556Y25519D01*
G01X70556Y26609D02*
G01X71023Y26609D01*
G01X71178Y26558D01*
G01X71231Y26505D01*
G01X71282Y26400D01*
G01X71282Y26245D01*
G01X71231Y26141D01*
G01X71178Y26091D01*
G01X71023Y26037D01*
G01X70556Y26037D01*
G01X23639Y50226D02*
G01X23586Y50330D01*
G01X23482Y50434D01*
G01X23380Y50485D01*
G01X23172Y50485D01*
G01X23068Y50434D01*
G01X22964Y50330D01*
G01X22910Y50226D01*
G01X22860Y50068D01*
G01X22860Y49809D01*
G01X22910Y49654D01*
G01X22964Y49550D01*
G01X23068Y49446D01*
G01X23172Y49395D01*
G01X23380Y49395D01*
G01X23482Y49446D01*
G01X23586Y49550D01*
G01X23639Y49654D01*
G01X23982Y50276D02*
G01X24086Y50330D01*
G01X24241Y50485D01*
G01X24241Y49395D01*
G01X23639Y41844D02*
G01X23586Y41948D01*
G01X23482Y42052D01*
G01X23380Y42103D01*
G01X23172Y42103D01*
G01X23068Y42052D01*
G01X22964Y41948D01*
G01X22910Y41844D01*
G01X22860Y41686D01*
G01X22860Y41427D01*
G01X22910Y41272D01*
G01X22964Y41168D01*
G01X23068Y41064D01*
G01X23172Y41013D01*
G01X23380Y41013D01*
G01X23482Y41064D01*
G01X23586Y41168D01*
G01X23639Y41272D01*
G01X24033Y41844D02*
G01X24033Y41894D01*
G01X24086Y41999D01*
G01X24137Y42052D01*
G01X24241Y42103D01*
G01X24450Y42103D01*
G01X24554Y42052D01*
G01X24604Y41999D01*
G01X24658Y41894D01*
G01X24658Y41790D01*
G01X24604Y41686D01*
G01X24500Y41531D01*
G01X23982Y41013D01*
G01X24709Y41013D01*
G54D10*
G75*
G01X10417Y42982D02*
G02X11941Y42982I762J0D01*
G01*
G54D28*
G75*
G01X27508Y50323D02*
G03X27508Y50320I-200J-2D01*
G01*
G54D10*
G75*
G01X16767Y40379D02*
G03X16838Y40379I35J-4000D01*
G01*
G75*
G01X36322Y29520D02*
G03X30949Y29614I-2794J-6096D01*
G01*
G75*
G01X29464Y28758D02*
G03X29428Y18118I4064J-5334D01*
G01*
G75*
G01X30988Y17328D02*
G03X36034Y17158I2760J6936D01*
G01*
G75*
G01X37592Y18090D02*
G03X37592Y28758I-4064J5334D01*
G01*
G75*
G01X36322Y14280D02*
G03X30949Y14374I-2794J-6096D01*
G01*
G75*
G01X29464Y13518D02*
G03X29428Y2878I4064J-5334D01*
G01*
G75*
G01X30988Y2088D02*
G03X36034Y1918I2760J6936D01*
G01*
G75*
G01X37592Y2850D02*
G03X37592Y13518I-4064J5334D01*
G01*
G75*
G01X34778Y23424D02*
G03X34778Y23424I-1250J0D01*
G01*
G75*
G01X35528Y23424D02*
G03X35528Y23424I-2000J0D01*
G01*
G75*
G01X37592Y26980D02*
G03X37592Y26980I-508J0D01*
G01*
G75*
G01X37592Y19868D02*
G03X37592Y19868I-508J0D01*
G01*
G75*
G01X30480Y19868D02*
G03X30480Y19868I-508J0D01*
G01*
G75*
G01X30480Y26980D02*
G03X30480Y26980I-508J0D01*
G01*
G75*
G01X34778Y8184D02*
G03X34778Y8184I-1250J0D01*
G01*
G75*
G01X35528Y8184D02*
G03X35528Y8184I-2000J0D01*
G01*
G75*
G01X37592Y11740D02*
G03X37592Y11740I-508J0D01*
G01*
G75*
G01X37592Y4628D02*
G03X37592Y4628I-508J0D01*
G01*
G75*
G01X30480Y4628D02*
G03X30480Y4628I-508J0D01*
G01*
G75*
G01X30480Y11740D02*
G03X30480Y11740I-508J0D01*
G01*
G75*
G01X16815Y15752D02*
G03X16815Y15752I-3073J0D01*
G01*
G54D31*
G01X39878Y55265D02*
G01X88877Y55265D01*
G01X88877Y29266D01*
G01X39878Y29266D01*
G01X39878Y55265D01*

%LPD*%
G36*
G01X19578Y39308D02*
G01X19514Y39378D01*
G01X19514Y33378D01*
G01X19578Y33447D01*
G01X19641Y33517D01*
G01X19702Y33589D01*
G01X19762Y33662D01*
G01X19820Y33737D01*
G01X19877Y33813D01*
G01X19932Y33890D01*
G01X19985Y33968D01*
G01X20037Y34047D01*
G01X20087Y34128D01*
G01X20135Y34209D01*
G01X20181Y34292D01*
G01X20225Y34375D01*
G01X20268Y34460D01*
G01X20309Y34545D01*
G01X20348Y34631D01*
G01X20385Y34718D01*
G01X20420Y34806D01*
G01X20453Y34895D01*
G01X20484Y34984D01*
G01X20514Y35074D01*
G01X20541Y35164D01*
G01X20566Y35255D01*
G01X20590Y35347D01*
G01X20611Y35439D01*
G01X20630Y35532D01*
G01X20648Y35625D01*
G01X20663Y35718D01*
G01X20677Y35812D01*
G01X20688Y35906D01*
G01X20697Y36000D01*
G01X20704Y36094D01*
G01X20709Y36188D01*
G01X20712Y36283D01*
G01X20714Y36378D01*
G01X20712Y36472D01*
G01X20709Y36567D01*
G01X20704Y36661D01*
G01X20697Y36755D01*
G01X20688Y36849D01*
G01X20677Y36943D01*
G01X20663Y37037D01*
G01X20648Y37130D01*
G01X20630Y37223D01*
G01X20611Y37316D01*
G01X20590Y37408D01*
G01X20566Y37500D01*
G01X20541Y37591D01*
G01X20514Y37681D01*
G01X20484Y37771D01*
G01X20453Y37860D01*
G01X20420Y37949D01*
G01X20385Y38037D01*
G01X20348Y38124D01*
G01X20309Y38210D01*
G01X20268Y38295D01*
G01X20225Y38380D01*
G01X20181Y38463D01*
G01X20135Y38546D01*
G01X20087Y38627D01*
G01X20037Y38708D01*
G01X19985Y38787D01*
G01X19932Y38865D01*
G01X19877Y38942D01*
G01X19820Y39018D01*
G01X19762Y39093D01*
G01X19702Y39166D01*
G01X19641Y39238D01*
G01X19578Y39308D01*
G37*
M00*
M02*
