;Layer: Drill PTH
;EasyEDA v6.4.7, 2020-11-16T16:22:07+01:00
;2d597777df414444a141df10d1f533aa,ed05136cbb5443d0bd3f5f3a1b1e84d4,10
;Gerber Generator version 0.2
M48
METRIC,LZ,000.000
;Holesize 1 = 0.305 METRIC
T01C0.305
;Holesize 2 = 0.889 METRIC
T02C0.889
;Holesize 3 = 0.900 METRIC
T03C0.900
;Holesize 4 = 0.915 METRIC
T04C0.915
;Holesize 5 = 1.000 METRIC
T05C1.000
;Holesize 6 = 1.200 METRIC
T06C1.200
;Holesize 7 = 1.400 METRIC
T07C1.400
;Holesize 8 = 1.501 METRIC
T08C1.501
;Holesize 9 = 3.101 METRIC
T09C3.101
;Holesize 10 = 4.501 METRIC
T10C4.501
%
G05
G90
T01
X+027940Y+039934
X+026964Y+038957
T02
X+017018Y+055428
X+019558Y+055428
X+027686Y+055428
X+030226Y+055428
X+004064Y+043998
X+004064Y+046538
X+058674Y+026218
X+061214Y+026218
X+063754Y+026218
X+066294Y+026218
T03
X+018288Y+042728
X+018288Y+050348
T04
X+048514Y+006914
X+051054Y+006914
X+053594Y+006914
X+056134Y+006914
X+058674Y+006914
X+061214Y+006914
X+063754Y+006914
X+066294Y+006914
X+068834Y+006914
X+071374Y+006914
X+073914Y+006914
X+076454Y+006914
X+078994Y+006914
X+081534Y+006914
X+084074Y+006914
X+048514Y+022154
X+051054Y+022154
X+053594Y+022154
X+056134Y+022154
X+058674Y+022154
X+061214Y+022154
X+063754Y+022154
X+066294Y+022154
X+068834Y+022154
X+071374Y+022154
X+073914Y+022154
X+076454Y+022154
X+078994Y+022154
X+081534Y+022154
X+084074Y+022154
T05
X+014986Y+043998
X+014986Y+046538
X+007366Y+046538
X+007366Y+043998
X+018514Y+036378
X+015013Y+036378
X+023876Y+051831
X+023876Y+046831
X+023876Y+038958
X+023876Y+043958
T06
X+036527Y+028573
X+036527Y+018274
X+030528Y+028573
X+030528Y+018273
X+036527Y+013333
X+036527Y+003034
X+030528Y+013333
X+030528Y+003033
X+018847Y+028143
X+016307Y+028143
X+013767Y+028143
X+011227Y+028143
X+008687Y+028143
T07
X+029972Y+047554
X+029972Y+045014
X+029972Y+050094
T08
X+048239Y+057714G85X+045740Y+057714
X+082021Y+057714G85X+079522Y+057714
X+082021Y+027234G85X+079522Y+027234
X+048239Y+027234G85X+045740Y+027234
T09
X+022922Y+024818
X+022922Y+010918
T10
X+004999Y+055000
X+093980Y+005136
X+093980Y+054920
M30
